# Blender 5.1.1
# www.blender.org
mtllib bar.mtl
o kitchenBar
v -1.611263 0.000000 4.310785
v -1.611263 0.000000 4.063797
v -2.428225 0.000000 4.310785
v -2.428225 0.000000 4.063797
v -2.428225 0.110654 4.063797
v -1.611263 0.110654 4.063797
v -2.428225 0.110654 4.310785
v -2.428225 0.740965 4.348783
v -2.428225 0.740965 4.025798
v -2.428225 0.110654 4.025798
v -2.428225 0.110654 4.348783
v -1.611263 0.740965 4.025798
v -1.611263 0.110654 4.025798
v -1.611263 0.740965 4.348783
v -1.611263 0.110654 4.310785
v -1.611263 0.110654 4.348783
v -2.377223 0.161656 4.025798
v -2.377223 0.689964 4.025798
v -1.662265 0.689964 4.025798
v -1.662265 0.161656 4.025798
v -1.662265 0.161656 4.348783
v -1.662265 0.689964 4.348783
v -2.377223 0.689964 4.348783
v -2.377223 0.161656 4.348783
v -2.338576 0.200304 4.025798
v -1.700912 0.200304 4.025798
v -2.338576 0.651316 4.025798
v -1.700912 0.651316 4.025798
v -1.700912 0.200304 4.348783
v -2.338576 0.200304 4.348783
v -1.700912 0.651316 4.348783
v -2.338576 0.651316 4.348783
v -1.611263 0.797963 3.987800
v -1.611263 0.740965 3.987800
v -1.611263 0.797963 4.386782
v -1.611263 0.740966 4.386782
v -2.428225 0.740965 3.987800
v -2.428225 0.797963 3.987800
v -2.428225 0.797963 4.386782
v -2.428225 0.740966 4.386782
vn 0.5774 -0.5773 -0.5774
vn 0.5774 -0.5774 0.5774
vn -0.5773 -0.5773 0.5774
vn -0.5774 -0.5774 -0.5774
vn -0.9045 -0.3015 -0.3015
vn 0.9045 -0.3015 -0.3015
vn -0.9045 -0.3015 0.3015
vn -0.5773 -0.5773 -0.5774
vn 0.5773 -0.5774 -0.5774
vn 0.9045 -0.3015 0.3015
vn 0.5773 -0.5773 0.5774
vn -0.0000 -0.0000 -1.0000
vn -0.0000 -0.0000 1.0000
vn 0.5774 0.5774 -0.5774
vn 0.5774 0.5773 0.5774
vn -0.5774 0.5773 -0.5774
vn -0.5774 0.5773 0.5773
vn -0.5773 -0.5774 0.5774
vt 0.000000 1.574803
vt 0.000000 6.692914
vt -16.929131 6.692914
vt -16.929131 1.574803
vt 0.000000 0.000000
vt 16.929131 0.000000
vt 16.929131 2.292987
vt 0.000000 2.292987
vt 1.574803 2.292987
vt 1.574803 0.000000
vt 6.692914 0.000000
vt 6.692914 2.292987
vt 7.480315 15.354330
vt 0.787402 15.354330
vt 0.787402 2.292987
vt 7.480315 2.292987
vt -0.787402 2.292987
vt -0.787402 15.354330
vt -7.480315 15.354330
vt -1.574803 2.292987
vt -1.574803 0.000000
vt -6.692914 2.292987
vt -7.480315 2.292987
vt -6.692914 0.000000
vt 15.872280 3.349844
vt 16.929131 15.354330
vt 15.872280 14.297470
vt 1.056858 14.297470
vt 1.056858 3.349844
vt 0.000000 15.354330
vt 0.000000 0.787402
vt -16.929131 0.787402
vt -16.929131 0.000000
vt -16.929131 2.292987
vt 0.000000 7.480315
vt -16.929131 7.480315
vt -1.056858 3.349844
vt -1.056858 14.297470
vt -15.872280 14.297470
vt -15.872280 3.349844
vt -16.929131 15.354330
vt 1.857721 4.150708
vt 15.071410 4.150708
vt 15.071410 13.496610
vt 1.857721 13.496610
vt -15.071410 4.150708
vt -1.857721 4.150708
vt -1.857721 13.496610
vt -15.071410 13.496610
vt 0.000000 16.535431
vt -8.267716 16.535431
vt -8.267716 15.354330
vt 8.267716 16.535431
vt 8.267716 15.354330
vt 16.929131 16.535431
vt 0.000000 8.267716
vt 16.929131 8.267716
vt -16.929131 16.535431
vt -16.929131 8.267716
s 1
usemtl wood.024
f 2/1/1 1/2/2 3/3/3
f 3/3/3 4/4/4 2/1/1
f 2/5/1 4/6/4 5/7/5
f 5/7/5 6/8/6 2/5/1
f 5/9/5 4/10/4 3/11/3
f 5/9/5 3/11/3 7/12/7
f 5/9/5 7/12/7 8/13/7
f 5/9/5 8/13/7 9/14/5
f 9/14/5 10/15/8 5/9/5
f 7/12/7 11/16/3 8/13/7
f 13/17/9 12/18/6 14/19/10
f 14/19/10 6/20/6 13/17/9
f 14/19/10 2/21/1 6/20/6
f 14/19/10 15/22/10 2/21/1
f 14/19/10 16/23/11 15/22/10
f 2/21/1 15/22/10 1/24/2
f 17/25/12 13/8/9 10/7/8
f 10/7/8 9/26/5 17/25/12
f 9/26/5 18/27/12 17/25/12
f 9/26/5 19/28/12 18/27/12
f 13/8/9 17/25/12 20/29/12
f 20/29/12 12/30/6 13/8/9
f 20/29/12 19/28/12 12/30/6
f 19/28/12 9/26/5 12/30/6
f 13/31/9 6/1/6 5/4/5
f 5/4/5 10/32/8 13/31/9
f 3/33/3 1/5/2 15/8/10
f 15/8/10 7/34/7 3/33/3
f 15/2/10 16/35/11 11/36/3
f 11/36/3 7/3/7 15/2/10
f 21/37/13 11/34/3 16/8/11
f 16/8/11 14/30/10 21/37/13
f 14/30/10 22/38/13 21/37/13
f 14/30/10 23/39/13 22/38/13
f 11/34/3 21/37/13 24/40/13
f 24/40/13 8/41/7 11/34/3
f 24/40/13 23/39/13 8/41/7
f 23/39/13 14/30/10 8/41/7
f 26/42/12 25/43/12 27/44/12
f 27/44/12 28/45/12 26/42/12
f 30/46/13 29/47/13 31/48/13
f 31/48/13 32/49/13 30/46/13
usemtl metal.002
f 34/30/9 33/50/14 35/51/15
f 35/51/15 12/18/6 34/30/9
f 35/51/15 14/19/10 12/18/6
f 35/51/15 36/52/2 14/19/10
f 38/50/16 37/30/4 9/14/5
f 9/14/5 39/53/17 38/50/16
f 9/14/5 8/13/7 39/53/17
f 8/13/7 40/54/18 39/53/17
f 34/30/9 37/26/4 38/55/16
f 38/55/16 33/50/14 34/30/9
f 35/56/15 33/5/14 38/6/16
f 38/6/16 39/57/17 35/56/15
f 34/5/9 12/31/6 9/32/5
f 9/32/5 37/33/4 34/5/9
f 40/41/18 36/30/2 35/50/15
f 35/50/15 39/58/17 40/41/18
f 14/35/10 36/56/2 40/59/18
f 40/59/18 8/36/7 14/35/10
usemtl woodDark.001
f 25/43/12 20/29/12 17/25/12
f 17/25/12 18/27/12 25/43/12
f 18/27/12 27/44/12 25/43/12
f 18/27/12 28/45/12 27/44/12
f 20/29/12 25/43/12 26/42/12
f 26/42/12 19/28/12 20/29/12
f 26/42/12 28/45/12 19/28/12
f 28/45/12 18/27/12 19/28/12
f 29/47/13 24/40/13 21/37/13
f 21/37/13 22/38/13 29/47/13
f 22/38/13 31/48/13 29/47/13
f 22/38/13 32/49/13 31/48/13
f 24/40/13 29/47/13 30/46/13
f 30/46/13 23/39/13 24/40/13
f 30/46/13 32/49/13 23/39/13
f 32/49/13 22/38/13 23/39/13
o kitchenBar.001
v -2.428452 0.000000 4.310785
v -2.428452 0.000000 4.063797
v -3.245414 0.000000 4.310785
v -3.245414 0.000000 4.063797
v -3.245414 0.110654 4.063797
v -2.428452 0.110654 4.063797
v -3.245414 0.110654 4.310785
v -3.245414 0.740965 4.348783
v -3.245414 0.740965 4.025798
v -3.245414 0.110654 4.025798
v -3.245414 0.110654 4.348783
v -2.428452 0.740965 4.025798
v -2.428452 0.110654 4.025798
v -2.428452 0.740965 4.348783
v -2.428452 0.110654 4.310785
v -2.428452 0.110654 4.348783
v -3.194413 0.161656 4.025798
v -3.194413 0.689964 4.025798
v -2.479454 0.689964 4.025798
v -2.479454 0.161656 4.025798
v -2.479454 0.161656 4.348783
v -2.479454 0.689964 4.348783
v -3.194413 0.689964 4.348783
v -3.194413 0.161656 4.348783
v -3.155765 0.200304 4.025798
v -2.518102 0.200304 4.025798
v -3.155765 0.651316 4.025798
v -2.518102 0.651316 4.025798
v -2.518102 0.200304 4.348783
v -3.155765 0.200304 4.348783
v -2.518102 0.651316 4.348783
v -3.155765 0.651316 4.348783
v -2.428452 0.797963 3.987800
v -2.428452 0.740965 3.987800
v -2.428452 0.797963 4.386782
v -2.428452 0.740966 4.386782
v -3.245414 0.740965 3.987800
v -3.245414 0.797963 3.987800
v -3.245414 0.797963 4.386782
v -3.245414 0.740966 4.386782
vn 0.5774 -0.5773 -0.5774
vn 0.5774 -0.5774 0.5774
vn -0.5773 -0.5773 0.5774
vn -0.5774 -0.5774 -0.5774
vn -0.9045 -0.3015 -0.3015
vn 0.9045 -0.3015 -0.3015
vn -0.9045 -0.3015 0.3015
vn -0.5773 -0.5773 -0.5774
vn 0.5773 -0.5774 -0.5774
vn 0.9045 -0.3015 0.3015
vn 0.5773 -0.5773 0.5774
vn -0.0000 -0.0000 -1.0000
vn -0.0000 -0.0000 1.0000
vn 0.5774 0.5774 -0.5774
vn 0.5774 0.5773 0.5774
vn -0.5774 0.5773 -0.5774
vn -0.5774 0.5773 0.5773
vn -0.5773 -0.5774 0.5774
vt 0.000000 1.574803
vt 0.000000 6.692914
vt -16.929131 6.692914
vt -16.929131 1.574803
vt 0.000000 0.000000
vt 16.929131 0.000000
vt 16.929131 2.292987
vt 0.000000 2.292987
vt 1.574803 2.292987
vt 1.574803 0.000000
vt 6.692914 0.000000
vt 6.692914 2.292987
vt 7.480315 15.354330
vt 0.787402 15.354330
vt 0.787402 2.292987
vt 7.480315 2.292987
vt -0.787402 2.292987
vt -0.787402 15.354330
vt -7.480315 15.354330
vt -1.574803 2.292987
vt -1.574803 0.000000
vt -6.692914 2.292987
vt -7.480315 2.292987
vt -6.692914 0.000000
vt 15.872280 3.349844
vt 16.929131 15.354330
vt 15.872280 14.297470
vt 1.056858 14.297470
vt 1.056858 3.349844
vt 0.000000 15.354330
vt 0.000000 0.787402
vt -16.929131 0.787402
vt -16.929131 0.000000
vt -16.929131 2.292987
vt 0.000000 7.480315
vt -16.929131 7.480315
vt -1.056858 3.349844
vt -1.056858 14.297470
vt -15.872280 14.297470
vt -15.872280 3.349844
vt -16.929131 15.354330
vt 1.857721 4.150708
vt 15.071410 4.150708
vt 15.071410 13.496610
vt 1.857721 13.496610
vt -15.071410 4.150708
vt -1.857721 4.150708
vt -1.857721 13.496610
vt -15.071410 13.496610
vt 0.000000 16.535431
vt -8.267716 16.535431
vt -8.267716 15.354330
vt 8.267716 16.535431
vt 8.267716 15.354330
vt 16.929131 16.535431
vt 0.000000 8.267716
vt 16.929131 8.267716
vt -16.929131 16.535431
vt -16.929131 8.267716
s 1
usemtl wood.025
f 42/60/19 41/61/20 43/62/21
f 43/62/21 44/63/22 42/60/19
f 42/64/19 44/65/22 45/66/23
f 45/66/23 46/67/24 42/64/19
f 45/68/23 44/69/22 43/70/21
f 45/68/23 43/70/21 47/71/25
f 45/68/23 47/71/25 48/72/25
f 45/68/23 48/72/25 49/73/23
f 49/73/23 50/74/26 45/68/23
f 47/71/25 51/75/21 48/72/25
f 53/76/27 52/77/24 54/78/28
f 54/78/28 46/79/24 53/76/27
f 54/78/28 42/80/19 46/79/24
f 54/78/28 55/81/28 42/80/19
f 54/78/28 56/82/29 55/81/28
f 42/80/19 55/81/28 41/83/20
f 57/84/30 53/67/27 50/66/26
f 50/66/26 49/85/23 57/84/30
f 49/85/23 58/86/30 57/84/30
f 49/85/23 59/87/30 58/86/30
f 53/67/27 57/84/30 60/88/30
f 60/88/30 52/89/24 53/67/27
f 60/88/30 59/87/30 52/89/24
f 59/87/30 49/85/23 52/89/24
f 53/90/27 46/60/24 45/63/23
f 45/63/23 50/91/26 53/90/27
f 43/92/21 41/64/20 55/67/28
f 55/67/28 47/93/25 43/92/21
f 55/61/28 56/94/29 51/95/21
f 51/95/21 47/62/25 55/61/28
f 61/96/31 51/93/21 56/67/29
f 56/67/29 54/89/28 61/96/31
f 54/89/28 62/97/31 61/96/31
f 54/89/28 63/98/31 62/97/31
f 51/93/21 61/96/31 64/99/31
f 64/99/31 48/100/25 51/93/21
f 64/99/31 63/98/31 48/100/25
f 63/98/31 54/89/28 48/100/25
f 66/101/30 65/102/30 67/103/30
f 67/103/30 68/104/30 66/101/30
f 70/105/31 69/106/31 71/107/31
f 71/107/31 72/108/31 70/105/31
usemtl metal.003
f 74/89/27 73/109/32 75/110/33
f 75/110/33 52/77/24 74/89/27
f 75/110/33 54/78/28 52/77/24
f 75/110/33 76/111/20 54/78/28
f 78/109/34 77/89/22 49/73/23
f 49/73/23 79/112/35 78/109/34
f 49/73/23 48/72/25 79/112/35
f 48/72/25 80/113/36 79/112/35
f 74/89/27 77/85/22 78/114/34
f 78/114/34 73/109/32 74/89/27
f 75/115/33 73/64/32 78/65/34
f 78/65/34 79/116/35 75/115/33
f 74/64/27 52/90/24 49/91/23
f 49/91/23 77/92/22 74/64/27
f 80/100/36 76/89/20 75/109/33
f 75/109/33 79/117/35 80/100/36
f 54/94/28 76/115/20 80/118/36
f 80/118/36 48/95/25 54/94/28
usemtl woodDark.002
f 65/102/30 60/88/30 57/84/30
f 57/84/30 58/86/30 65/102/30
f 58/86/30 67/103/30 65/102/30
f 58/86/30 68/104/30 67/103/30
f 60/88/30 65/102/30 66/101/30
f 66/101/30 59/87/30 60/88/30
f 66/101/30 68/104/30 59/87/30
f 68/104/30 58/86/30 59/87/30
f 69/106/31 64/99/31 61/96/31
f 61/96/31 62/97/31 69/106/31
f 62/97/31 71/107/31 69/106/31
f 62/97/31 72/108/31 71/107/31
f 64/99/31 69/106/31 70/105/31
f 70/105/31 63/98/31 64/99/31
f 70/105/31 72/108/31 63/98/31
f 72/108/31 62/97/31 63/98/31
