# Blender 4.3.2
# www.blender.org
mtllib couch-round.mtl
o couch-round
v 0.000000 0.444160 1.157627
v -0.000000 0.000000 0.713325
v -0.000000 0.000000 1.421142
v 0.000000 0.954409 1.421142
v -0.578814 0.444160 1.002535
v -0.356663 0.000000 0.617758
v -0.710571 0.000000 1.230745
v -0.710571 0.954409 1.230745
v -1.002535 0.444160 0.578814
v -0.617758 0.000000 0.356662
v -1.230745 0.000000 0.710571
v -1.230745 0.954409 0.710571
v -1.157627 0.444160 -0.000000
v -0.713325 0.000000 -0.000000
v -1.421142 0.000000 0.000000
v -1.421142 0.954409 0.000000
v -1.002535 0.444160 -0.578814
v -0.617757 0.000000 -0.356662
v -1.230745 0.000000 -0.710571
v -1.230745 0.954409 -0.710571
v -0.578814 0.444160 -1.002535
v -0.356662 0.000000 -0.617757
v -0.710571 0.000000 -1.230745
v -0.710571 0.954409 -1.230745
v 0.000000 0.444160 -1.157627
v 0.000000 0.000000 -0.713325
v 0.000000 0.000000 -1.421142
v 0.000000 0.954409 -1.421142
v 0.500000 0.000000 -1.421142
v 0.500000 0.000000 1.421142
v 0.000000 0.954409 1.369111
v 0.000000 0.896735 1.290673
v 0.000000 0.937517 1.320670
v -0.645336 0.896728 1.117754
v -0.684605 0.954409 1.185771
v -0.660349 0.937515 1.143758
v -1.185820 0.954409 0.684633
v -1.117753 0.896725 0.645335
v -1.143772 0.937514 0.660357
v -1.369285 0.954409 0.000000
v -1.290670 0.896723 -0.000000
v -1.320720 0.937514 -0.000000
v -1.185820 0.954409 -0.684633
v -1.117753 0.896725 -0.645335
v -1.143772 0.937514 -0.660357
v -0.684605 0.954409 -1.185771
v -0.645336 0.896728 -1.117754
v -0.660349 0.937515 -1.143758
v 0.000000 0.954409 -1.369111
v 0.000000 0.896735 -1.290673
v 0.000000 0.937517 -1.320670
v 0.000000 0.384160 0.713325
v 0.000000 0.444160 0.774808
v 0.000000 0.426586 0.731333
v -0.356662 0.384160 0.617758
v -0.387454 0.444160 0.671089
v -0.365681 0.426586 0.633378
v -0.671138 0.444160 0.387482
v -0.617758 0.384160 0.356662
v -0.633392 0.426586 0.365689
v -0.774982 0.444160 -0.000000
v -0.713325 0.384160 -0.000000
v -0.731384 0.426586 -0.000000
v -0.671138 0.444160 -0.387482
v -0.617757 0.384160 -0.356662
v -0.633392 0.426586 -0.365689
v -0.387453 0.444160 -0.671089
v -0.356662 0.384160 -0.617757
v -0.365681 0.426586 -0.633378
v 0.000000 0.444160 -0.774808
v 0.000000 0.384160 -0.713325
v 0.000000 0.426586 -0.731333
v 0.500000 0.384160 1.202528
v 0.440000 0.444160 1.157627
v 0.482426 0.426586 1.170779
v 0.500000 0.000000 0.773325
v 0.440000 0.000000 0.713325
v 0.482426 0.000000 0.730899
v 0.440000 0.954409 1.421142
v 0.500000 0.894409 1.421142
v 0.482426 0.936836 1.421142
v 0.500000 0.894409 1.379223
v 0.440000 0.954409 1.369061
v 0.482426 0.936836 1.372034
v 0.500000 0.869698 1.345264
v 0.440000 0.896739 1.290674
v 0.482426 0.888819 1.306663
v 0.500000 0.886996 1.357981
v 0.440000 0.937518 1.320655
v 0.482426 0.922721 1.331587
v 0.500000 0.384160 0.786429
v 0.440000 0.444160 0.774758
v 0.482426 0.426586 0.778173
v 0.500000 0.371964 0.773325
v 0.440000 0.384160 0.713325
v 0.482426 0.380588 0.730899
v 0.500000 0.380286 0.776854
v 0.440000 0.426586 0.731318
v 0.482426 0.413025 0.744655
v 0.500000 0.384160 -1.202528
v 0.440000 0.444160 -1.157627
v 0.482426 0.426586 -1.170778
v 0.440000 0.000000 -0.713325
v 0.500000 0.000000 -0.773325
v 0.482426 0.000000 -0.730898
v 0.500000 0.894409 -1.421142
v 0.440000 0.954409 -1.421142
v 0.482426 0.936836 -1.421142
v 0.500000 0.869698 -1.345264
v 0.440000 0.896739 -1.290674
v 0.482426 0.888819 -1.306663
v 0.500000 0.894409 -1.379223
v 0.440000 0.954409 -1.369061
v 0.482426 0.936836 -1.372034
v 0.500000 0.886996 -1.357981
v 0.440000 0.937518 -1.320655
v 0.482426 0.922721 -1.331587
v 0.500000 0.371964 -0.773325
v 0.440000 0.384160 -0.713325
v 0.482426 0.380588 -0.730898
v 0.500000 0.384160 -0.786429
v 0.440000 0.444160 -0.774758
v 0.482426 0.426586 -0.778173
v 0.500000 0.380286 -0.776854
v 0.440000 0.426586 -0.731318
v 0.482426 0.413025 -0.744654
vn -0.0000 -1.0000 -0.0000
vn -0.6802 -0.2732 0.6802
vn -0.0000 -0.9442 0.3295
vn 0.7071 -0.0000 -0.7071
vn -0.9292 -0.2732 0.2490
vn -0.0000 1.0000 -0.0000
vn -0.0000 -0.0000 -1.0000
vn -1.0000 -0.0000 -0.0000
vn 0.2588 -0.0000 -0.9659
vn 0.9659 -0.0000 -0.2588
vn -0.9292 -0.2732 -0.2490
vn -0.7071 -0.0000 0.7071
vn -0.9659 -0.0000 -0.2588
vn -0.9659 -0.0000 0.2588
vn -0.2490 -0.2732 -0.9292
vn -0.7071 -0.0000 -0.7071
vn 0.9659 -0.0000 0.2588
vn -0.0000 -0.2820 -0.9594
vn -0.2588 -0.0000 -0.9659
vn -0.6802 -0.2732 -0.6802
vn 0.7071 -0.0000 0.7071
vn -0.0000 -0.5925 -0.8056
vn -0.0000 -0.0000 1.0000
vn 0.2588 -0.0000 0.9659
vn -0.2588 -0.0000 0.9659
vn -0.0000 -0.5923 0.8057
vn -0.0000 -0.9271 0.3748
vn -0.2398 -0.9407 0.2398
vn -0.5763 -0.5795 0.5763
vn -0.2109 -0.5795 0.7872
vn -0.0877 -0.9407 0.3276
vn -0.3274 -0.9408 0.0877
vn -0.7871 -0.5797 0.2109
vn -0.3273 -0.9408 -0.0877
vn -0.7870 -0.5798 -0.2109
vn -0.2397 -0.9408 -0.2397
vn -0.5761 -0.5797 -0.5762
vn -0.0877 -0.9407 -0.3276
vn -0.2109 -0.5795 -0.7872
vn -0.0000 -0.3904 -0.9206
vn -0.0000 -0.9442 -0.3293
vn -0.2490 -0.2732 0.9292
vn -0.2726 -0.9227 0.2726
vn -0.6541 -0.3799 0.6541
vn -0.0999 -0.9225 0.3729
vn -0.2395 -0.3793 0.8937
vn -0.3721 -0.9228 0.0997
vn -0.8934 -0.3802 0.2394
vn -0.8934 -0.3802 -0.2394
vn -0.3721 -0.9228 -0.0997
vn -0.6541 -0.3799 -0.6541
vn -0.2726 -0.9227 -0.2726
vn -0.2395 -0.3793 -0.8937
vn -0.0999 -0.9225 -0.3729
vn -0.0000 -0.9270 -0.3750
vn -0.0000 -0.3907 0.9205
vn -0.0000 -0.2820 0.9594
vn -0.9239 -0.3613 0.1261
vn -0.3827 -0.8723 0.3044
vn -0.9239 -0.2267 0.3083
vn -0.3827 -0.5472 0.7444
vn -0.9239 -0.1079 0.3671
vn -0.3827 -0.2606 0.8864
vn -0.9239 -0.3827 -0.0000
vn -0.3827 -0.9239 -0.0000
vn -0.9239 -0.1494 0.3523
vn -0.3827 -0.3607 0.8506
vn -0.9239 -0.3548 0.1435
vn -0.3827 -0.8565 0.3465
vn -0.9239 -0.0000 0.3827
vn -0.3827 -0.0000 0.9239
vn -0.9239 -0.3613 -0.1261
vn -0.3827 -0.8723 -0.3044
vn -0.9239 -0.2267 -0.3083
vn -0.3827 -0.5473 -0.7444
vn -0.9239 -0.1079 -0.3671
vn -0.3827 -0.2606 -0.8864
vn -0.9239 -0.1494 -0.3523
vn -0.3827 -0.3607 -0.8506
vn -0.9239 -0.3548 -0.1435
vn -0.3826 -0.8565 -0.3465
vn -0.9239 -0.0000 -0.3827
vn -0.3827 -0.0000 -0.9239
vn -0.0000 -0.9442 0.3293
vn -0.0000 -0.5923 -0.8057
vn -0.0000 -0.5925 0.8056
vn -0.0000 -0.9270 0.3750
vn -0.2397 -0.9408 0.2397
vn -0.5761 -0.5797 0.5762
vn -0.2110 -0.5792 0.7874
vn -0.0879 -0.9406 0.3280
vn -0.3273 -0.9408 0.0877
vn -0.7870 -0.5798 0.2109
vn -0.3274 -0.9408 -0.0877
vn -0.7871 -0.5797 -0.2109
vn -0.2398 -0.9407 -0.2398
vn -0.5763 -0.5795 -0.5763
vn -0.0879 -0.9406 -0.3280
vn -0.2110 -0.5792 -0.7874
vn -0.0000 -0.3907 -0.9205
vn -0.0000 -0.9442 -0.3295
vn -0.2724 -0.9228 0.2724
vn -0.6540 -0.3802 0.6540
vn -0.0997 -0.9227 0.3724
vn -0.2394 -0.3799 0.8935
vn -0.3720 -0.9229 0.0997
vn -0.8934 -0.3803 0.2394
vn -0.8934 -0.3803 -0.2394
vn -0.3720 -0.9229 -0.0997
vn -0.6540 -0.3802 -0.6540
vn -0.2724 -0.9228 -0.2724
vn -0.2394 -0.3799 -0.8935
vn -0.0997 -0.9227 -0.3724
vn -0.0000 -0.9271 -0.3748
vn -0.0000 -0.3904 0.9206
vn -0.3827 -0.5473 0.7444
vn -0.3827 -0.5472 -0.7444
vn -0.3827 -0.8565 -0.3465
vt 0.458415 0.009928
vt 0.375492 -0.000000
vt 0.458415 -0.000000
vt 0.590160 0.784264
vt 0.507756 0.659305
vt 0.596438 0.670243
vt 0.375492 0.009937
vt 0.457912 0.019170
vt 0.374989 0.019173
vt 0.908344 0.623619
vt 0.726244 0.763978
vt 0.726244 0.623619
vt 0.524104 0.546671
vt 0.611100 0.569219
vt 0.280784 0.655253
vt 0.237899 0.765690
vt 0.218328 0.691759
vt 0.592329 0.036328
vt 0.681895 0.140525
vt 0.587436 0.044909
vt 0.200929 0.574407
vt 0.164865 0.637646
vt 0.953253 0.733718
vt 0.908344 0.603095
vt 0.918272 0.603095
vt 0.726244 0.442702
vt 0.729597 0.436978
vt 0.737692 0.434607
vt 0.701979 0.907055
vt 0.703327 0.907607
vt 0.703807 0.909109
vt 0.908344 0.502065
vt 0.726244 0.502065
vt 0.908344 0.763978
vt 0.726244 0.885533
vt 0.904482 0.004233
vt 0.830159 0.126619
vt 0.817132 0.025371
vt 0.280784 0.876127
vt 0.218328 0.839621
vt 0.690361 0.135576
vt 0.716471 0.271153
vt 0.619653 0.677709
vt 0.694673 0.610780
vt 0.691941 0.681093
vt 0.681895 0.401781
vt 0.592329 0.505978
vt 0.587436 0.497397
vt 0.200929 0.956973
vt 0.164865 0.893733
vt 0.690361 0.406730
vt 0.798532 0.083179
vt 0.734271 0.148951
vt 0.726244 0.086563
vt 0.622384 0.607396
vt 0.702700 0.548391
vt 0.091846 0.986564
vt 0.091846 0.913523
vt 0.923950 0.244339
vt 0.829245 0.337120
vt 0.834593 0.240727
vt 0.806560 0.145568
vt 0.737003 0.219264
vt 0.492113 0.542306
vt 0.310012 0.663861
vt 0.310012 0.542306
vt 0.969070 0.526285
vt 1.000000 0.434607
vt 1.000000 0.603096
vt 0.917988 0.351811
vt 0.822006 0.393845
vt 0.458415 0.542306
vt 0.458415 0.532378
vt 0.809291 0.215881
vt 0.733707 0.278661
vt 0.919006 0.117117
vt 0.492113 0.663861
vt 0.310012 0.804220
vt 0.919231 0.412386
vt 0.926470 0.355663
vt 0.321460 0.993232
vt 0.313365 0.990861
vt 0.310012 0.985137
vt 0.375492 0.542306
vt 0.375492 0.532369
vt 0.492113 0.804220
vt 0.310012 0.925774
vt 0.785607 0.958831
vt 0.726244 0.885533
vt 0.785607 0.885533
vt 0.153285 0.339204
vt 0.203102 0.389021
vt 0.036328 0.406730
vt 0.785606 0.885533
vt 0.844969 0.958831
vt 0.785606 0.958831
vt 0.091846 0.544815
vt 0.091846 0.617857
vt 0.622948 0.737106
vt 0.695237 0.740490
vt 0.502756 0.954532
vt 0.504978 0.893985
vt 0.511298 0.950820
vt 0.091322 0.626152
vt 0.008923 0.617867
vt 0.673467 0.145157
vt 0.582361 0.052925
vt 0.492113 0.787647
vt 0.500756 0.786431
vt 0.496436 0.897699
vt 0.706815 0.271153
vt 0.499276 0.657563
vt 0.927514 0.115512
vt 0.912652 -0.000000
vt 0.673467 0.397149
vt 0.932571 0.245695
vt 0.582361 0.489381
vt 0.805996 0.275278
vt 0.807225 0.334155
vt 0.798757 0.332003
vt 0.457912 0.523136
vt 0.593948 0.880731
vt 0.210691 0.695917
vt 0.160238 0.644842
vt 0.611100 0.678366
vt 0.614480 0.739260
vt 0.229159 0.765690
vt 0.613901 0.606274
vt 0.630412 0.545008
vt 0.815043 0.144446
vt 0.210691 0.835463
vt 0.817844 0.216537
vt 0.160238 0.886538
vt 0.814464 0.277432
vt 0.091322 0.905228
vt 0.008923 0.913513
vt 0.008400 0.905225
vt 0.621719 0.795984
vt 0.600268 0.937566
vt 0.512027 0.968103
vt 0.501995 0.967209
vt 0.505829 0.961717
vt 0.366553 0.017087
vt 0.512930 0.958631
vt 0.515651 0.966529
vt 0.603798 0.945094
vt 0.611100 0.952310
vt 0.619184 0.821921
vt 0.611100 0.814282
vt 0.618061 0.813373
vt 0.366973 0.009370
vt 0.630193 0.810519
vt 0.631084 0.801799
vt 0.631854 0.810097
vt 0.624610 0.803445
vt 0.630187 0.793831
vt 0.621156 0.808031
vt 0.000000 0.623610
vt 0.008400 0.626155
vt 0.645362 0.905758
vt 0.701006 0.898487
vt 0.000404 0.617215
vt 0.008923 0.544815
vt 0.702700 0.805151
vt 0.701848 0.813373
vt 0.702475 0.797215
vt 0.909742 0.425806
vt 0.919787 0.425074
vt 0.911708 0.428722
vt 0.366553 0.525219
vt 0.366973 0.532936
vt 0.908992 0.416320
vt 0.916043 0.419520
vt 0.910750 0.408536
vt 0.906144 0.424173
vt 0.818355 0.401316
vt 0.921109 0.431968
vt 0.912836 0.434607
vt 0.366973 0.542306
vt 0.798751 0.348690
vt 0.797860 0.339971
vt 0.804334 0.341616
vt 0.807788 0.346202
vt 0.799738 0.350000
vt 0.000000 0.907769
vt 0.000404 0.914165
vt 0.810937 0.408412
vt 0.008923 0.986564
vt 0.000404 0.989074
vt 0.797090 0.348268
vt 0.726244 0.343323
vt 0.726469 0.335386
vt 0.310012 0.765690
vt 0.944672 0.738672
vt 0.908344 0.434607
vt 0.702916 0.979174
vt 0.611100 0.991172
vt 0.643005 0.914761
vt 0.613243 0.822697
vt 0.623938 0.825947
vt 0.622177 0.822924
vt 0.908344 0.885533
vt 0.726244 0.271153
vt 0.908344 0.589931
vt 0.727096 0.351544
vt 0.492113 0.925774
vt 0.492113 0.993232
vt 0.726244 0.958831
vt 0.135577 0.036328
vt 0.271153 -0.000000
vt 0.271153 0.135051
vt 0.366553 -0.000000
vt 0.366553 0.123603
vt 0.363200 0.131698
vt 0.355105 0.135051
vt 0.036328 0.135577
vt 0.203102 0.153285
vt 0.000000 0.271153
vt 0.135051 0.271153
vt 0.271153 0.542306
vt 0.135577 0.505978
vt 0.271153 0.407255
vt 0.366553 0.418703
vt 0.366553 0.542306
vt 0.355105 0.407255
vt 0.363200 0.410608
vt 0.153285 0.203102
vt 0.844969 0.885533
vt 0.516004 0.542306
vt 0.374989 0.523133
vt 0.622131 0.542306
vt 0.806813 0.080478
vt 0.510014 0.970988
vt 0.366973 -0.000000
vt 0.629206 0.811829
vt 0.000404 0.542306
s 0
f 31/1/1 79/2/1 4/3/1
f 5/4/2 38/5/2 9/6/2
f 83/7/3 33/8/3 89/9/3
f 7/10/4 12/11/4 8/12/4
f 9/6/5 41/13/5 13/14/5
f 9/15/1 61/16/1 58/17/1
f 8/18/1 37/19/1 35/20/1
f 5/21/1 58/17/1 56/22/1
f 35/23/6 4/24/6 31/25/6
f 79/26/7 81/27/7 80/28/7
f 91/29/8 97/30/8 94/31/8
f 3/32/9 8/12/9 4/33/9
f 11/34/10 16/35/10 12/11/10
f 41/36/11 17/37/11 13/38/11
f 61/16/1 17/39/1 64/40/1
f 12/41/1 40/42/1 37/19/1
f 55/43/12 10/44/12 6/45/12
f 43/46/1 24/47/1 46/48/1
f 64/40/1 21/49/1 67/50/1
f 40/42/1 20/51/1 43/46/1
f 62/52/13 18/53/13 14/54/13
f 59/55/14 14/56/14 10/44/14
f 67/50/1 25/57/1 70/58/1
f 47/59/15 25/60/15 21/61/15
f 65/62/16 22/63/16 18/53/16
f 15/64/17 20/65/17 16/66/17
f 100/67/8 106/68/8 29/69/8
f 50/70/18 101/71/18 25/60/18
f 46/48/1 28/72/1 49/73/1
f 68/74/19 26/75/19 22/63/19
f 44/76/20 21/61/20 17/37/20
f 19/77/21 24/78/21 20/65/21
f 116/79/22 50/70/22 51/80/22
f 106/81/23 108/82/23 107/83/23
f 49/73/1 107/84/1 113/85/1
f 23/86/24 28/87/24 24/78/24
f 2/88/23 95/89/23 52/90/23
f 18/91/6 22/92/6 19/93/6
f 71/94/7 103/95/7 26/96/7
f 1/97/1 56/22/1 53/98/1
f 52/99/25 6/45/25 2/100/25
f 89/101/26 32/102/26 86/103/26
f 54/104/27 92/105/27 53/98/27
f 35/20/28 39/106/28 36/107/28
f 36/108/29 38/5/29 34/109/29
f 34/109/30 33/110/30 36/108/30
f 36/107/31 31/1/31 35/20/31
f 37/19/32 42/111/32 39/106/32
f 39/112/33 41/13/33 38/5/33
f 43/46/34 42/111/34 40/42/34
f 45/113/35 41/36/35 42/114/35
f 46/48/36 45/115/36 43/46/36
f 48/116/37 44/76/37 45/113/37
f 49/73/38 48/117/38 46/48/38
f 51/80/39 47/59/39 48/116/39
f 71/118/40 125/119/40 119/120/40
f 113/85/41 51/121/41 49/73/41
f 1/122/42 34/109/42 5/4/42
f 56/22/43 60/123/43 57/124/43
f 57/125/44 59/55/44 55/43/44
f 53/98/45 57/124/45 54/104/45
f 54/126/46 55/43/46 52/99/46
f 58/17/47 63/127/47 60/123/47
f 60/128/48 62/129/48 59/55/48
f 62/52/49 66/130/49 65/62/49
f 63/127/50 64/40/50 66/131/50
f 65/62/51 69/132/51 68/74/51
f 66/131/52 67/50/52 69/133/52
f 68/74/53 72/134/53 71/118/53
f 69/133/54 70/58/54 72/135/54
f 72/135/55 122/136/55 125/137/55
f 52/99/56 98/138/56 54/126/56
f 32/102/57 74/139/57 86/103/57
f 88/140/58 84/141/58 90/142/58
f 90/143/59 83/7/59 89/9/59
f 88/140/60 87/144/60 85/145/60
f 90/142/61 86/103/61 87/144/61
f 85/145/62 75/146/62 73/147/62
f 87/144/63 74/139/63 75/146/63
f 82/148/64 81/149/64 84/150/64
f 84/151/65 79/2/65 83/7/65
f 97/152/66 96/153/66 94/154/66
f 99/155/67 95/156/67 96/153/67
f 97/152/68 93/157/68 99/155/68
f 99/158/69 92/105/69 98/159/69
f 91/29/64 75/160/64 93/161/64
f 93/162/65 74/163/65 92/105/65
f 94/154/70 78/164/70 76/165/70
f 96/153/71 77/166/71 78/164/71
f 53/98/1 74/163/1 1/97/1
f 115/167/72 114/168/72 112/169/72
f 117/170/73 113/85/73 114/171/73
f 115/167/74 111/172/74 117/173/74
f 117/173/75 110/174/75 116/79/75
f 109/175/76 102/176/76 111/172/76
f 111/172/77 101/71/77 110/174/77
f 112/169/64 108/177/64 106/178/64
f 114/171/65 107/84/65 108/179/65
f 124/180/78 120/181/78 126/182/78
f 126/182/79 119/120/79 125/119/79
f 124/180/80 123/183/80 121/184/80
f 126/185/81 122/136/81 123/186/81
f 121/184/64 102/176/64 100/187/64
f 123/186/65 101/188/65 102/189/65
f 118/190/82 105/191/82 120/181/82
f 120/181/83 103/192/83 119/120/83
f 70/58/1 101/188/1 122/136/1
f 31/1/1 83/7/1 79/2/1
f 5/4/2 34/109/2 38/5/2
f 83/7/84 31/1/84 33/8/84
f 7/10/4 11/34/4 12/11/4
f 9/6/5 38/5/5 41/13/5
f 9/15/1 13/193/1 61/16/1
f 8/18/1 12/41/1 37/19/1
f 5/21/1 9/15/1 58/17/1
f 35/23/6 8/194/6 4/24/6
f 30/195/7 3/32/7 80/28/7
f 3/32/7 4/33/7 80/28/7
f 4/33/7 79/26/7 80/28/7
f 94/31/8 76/196/8 91/29/8
f 76/196/8 30/197/8 73/198/8
f 30/197/8 80/199/8 73/198/8
f 80/199/8 82/148/8 85/200/8
f 73/198/8 80/199/8 85/200/8
f 82/148/8 88/201/8 85/200/8
f 73/198/8 91/29/8 76/196/8
f 3/32/9 7/10/9 8/12/9
f 11/34/10 15/202/10 16/35/10
f 41/36/11 44/76/11 17/37/11
f 61/16/1 13/193/1 17/39/1
f 12/41/1 16/203/1 40/42/1
f 55/43/12 59/55/12 10/44/12
f 43/46/1 20/51/1 24/47/1
f 64/40/1 17/39/1 21/49/1
f 40/42/1 16/203/1 20/51/1
f 62/52/13 65/62/13 18/53/13
f 59/55/14 62/129/14 14/56/14
f 67/50/1 21/49/1 25/57/1
f 47/59/15 50/70/15 25/60/15
f 65/62/16 68/74/16 22/63/16
f 15/64/17 19/77/17 20/65/17
f 100/187/8 109/175/8 106/178/8
f 109/175/8 115/167/8 112/169/8
f 106/178/8 109/175/8 112/169/8
f 29/69/8 104/204/8 100/67/8
f 104/205/8 118/190/8 121/184/8
f 100/187/8 104/205/8 121/184/8
f 118/190/8 124/180/8 121/184/8
f 50/70/18 110/174/18 101/71/18
f 46/48/1 24/47/1 28/72/1
f 68/74/19 71/118/19 26/75/19
f 44/76/20 47/59/20 21/61/20
f 19/77/21 23/86/21 24/78/21
f 116/79/85 110/174/85 50/70/85
f 107/83/23 28/87/23 106/81/23
f 28/87/23 27/206/23 106/81/23
f 27/206/23 29/207/23 106/81/23
f 49/73/1 28/72/1 107/84/1
f 23/86/24 27/206/24 28/87/24
f 2/88/23 77/208/23 95/89/23
f 7/209/6 3/210/6 2/211/6
f 3/210/6 30/212/6 76/213/6
f 2/211/6 3/210/6 76/213/6
f 76/213/6 78/214/6 77/215/6
f 2/211/6 76/213/6 77/215/6
f 11/216/6 7/209/6 6/217/6
f 19/93/6 15/218/6 18/91/6
f 15/218/6 11/216/6 14/219/6
f 18/91/6 15/218/6 14/219/6
f 27/220/6 23/221/6 26/222/6
f 23/221/6 19/93/6 22/92/6
f 26/222/6 23/221/6 22/92/6
f 104/223/6 29/224/6 27/220/6
f 103/225/6 105/226/6 104/223/6
f 26/222/6 103/225/6 104/223/6
f 104/223/6 27/220/6 26/222/6
f 7/209/6 2/211/6 6/217/6
f 11/216/6 6/217/6 10/227/6
f 11/216/6 10/227/6 14/219/6
f 71/94/7 119/228/7 103/95/7
f 1/97/1 5/21/1 56/22/1
f 52/99/25 55/43/25 6/45/25
f 89/101/86 33/110/86 32/102/86
f 54/104/87 98/159/87 92/105/87
f 35/20/88 37/19/88 39/106/88
f 36/108/89 39/112/89 38/5/89
f 34/109/90 32/102/90 33/110/90
f 36/107/91 33/8/91 31/1/91
f 37/19/92 40/42/92 42/111/92
f 39/112/93 42/229/93 41/13/93
f 43/46/94 45/115/94 42/111/94
f 45/113/95 44/76/95 41/36/95
f 46/48/96 48/117/96 45/115/96
f 48/116/97 47/59/97 44/76/97
f 49/73/98 51/121/98 48/117/98
f 51/80/99 50/70/99 47/59/99
f 71/118/100 72/134/100 125/119/100
f 113/85/101 116/230/101 51/121/101
f 1/122/42 32/102/42 34/109/42
f 56/22/102 58/17/102 60/123/102
f 57/125/103 60/128/103 59/55/103
f 53/98/104 56/22/104 57/124/104
f 54/126/105 57/125/105 55/43/105
f 58/17/106 61/16/106 63/127/106
f 60/128/107 63/231/107 62/129/107
f 62/52/108 63/232/108 66/130/108
f 63/127/109 61/16/109 64/40/109
f 65/62/110 66/130/110 69/132/110
f 66/131/111 64/40/111 67/50/111
f 68/74/112 69/132/112 72/134/112
f 69/133/113 67/50/113 70/58/113
f 72/135/114 70/58/114 122/136/114
f 52/99/115 95/156/115 98/138/115
f 32/102/57 1/122/57 74/139/57
f 88/140/58 82/233/58 84/141/58
f 90/143/59 84/151/59 83/7/59
f 88/140/60 90/142/60 87/144/60
f 90/142/116 89/101/116 86/103/116
f 85/145/62 87/144/62 75/146/62
f 87/144/63 86/103/63 74/139/63
f 82/148/64 80/199/64 81/149/64
f 84/151/65 81/234/65 79/2/65
f 97/152/66 99/155/66 96/153/66
f 99/155/67 98/138/67 95/156/67
f 97/152/68 91/235/68 93/157/68
f 99/158/69 93/162/69 92/105/69
f 91/29/64 73/198/64 75/160/64
f 93/162/65 75/236/65 74/163/65
f 94/154/70 96/153/70 78/164/70
f 96/153/71 95/156/71 77/166/71
f 53/98/1 92/105/1 74/163/1
f 115/167/72 117/173/72 114/168/72
f 117/170/73 116/230/73 113/85/73
f 115/167/74 109/175/74 111/172/74
f 117/173/117 111/172/117 110/174/117
f 109/175/76 100/187/76 102/176/76
f 111/172/77 102/176/77 101/71/77
f 112/169/64 114/168/64 108/177/64
f 114/171/65 113/85/65 107/84/65
f 124/180/78 118/190/78 120/181/78
f 126/182/79 120/181/79 119/120/79
f 124/180/80 126/182/80 123/183/80
f 126/185/118 125/137/118 122/136/118
f 121/184/64 123/183/64 102/176/64
f 123/186/65 122/136/65 101/188/65
f 118/190/82 104/205/82 105/191/82
f 120/181/83 105/191/83 103/192/83
f 70/58/1 25/57/1 101/188/1
