# Blender 5.1.1
# www.blender.org
mtllib dance-floor.mtl
o floorFull
v 0.000000 0.025599 -0.000000
v 0.000000 -0.024401 0.000000
v 0.000000 0.025599 1.000000
v 0.000000 -0.024401 1.000000
v -1.000000 0.025599 -0.000000
v -1.000000 0.025599 1.000000
v -1.000000 -0.024401 1.000000
v -1.000000 -0.024401 0.000000
vn 0.5773 -0.5774 -0.5773
vn 0.5774 0.5774 -0.5774
vn 0.5773 0.5774 0.5773
vn 0.5774 -0.5774 0.5774
vn -0.5773 0.5774 -0.5773
vn -0.5774 0.5774 0.5774
vn -0.5773 -0.5774 0.5773
vn -0.5774 -0.5774 -0.5774
vt 0.000000 0.000000
vt 0.000000 1.968504
vt -39.370079 1.968504
vt -39.370079 0.000000
vt 0.000000 39.370079
vt 39.370079 0.000000
vt 39.370079 39.370079
vt -39.370079 39.370079
vt 39.370079 1.968504
s 1
usemtl wood.026
f 2/1/1 1/2/2 3/3/3
f 3/3/3 4/4/4 2/1/1
f 3/5/3 1/1/2 5/6/5
f 5/6/5 6/7/6 3/5/3
f 2/1/1 4/5/4 7/8/7
f 7/8/7 8/4/8 2/1/1
f 7/4/7 4/1/4 3/2/3
f 3/2/3 6/3/6 7/4/7
f 2/1/1 8/6/8 5/9/5
f 5/9/5 1/2/2 2/1/1
f 5/2/5 8/1/8 7/6/7
f 7/6/7 6/9/6 5/2/5
o floorFull.001
v 0.000000 0.025599 -0.993747
v 0.000000 -0.024401 -0.993747
v 0.000000 0.025599 0.006253
v 0.000000 -0.024401 0.006253
v -1.000000 0.025599 -0.993747
v -1.000000 0.025599 0.006253
v -1.000000 -0.024401 0.006253
v -1.000000 -0.024401 -0.993747
vn 0.5773 -0.5774 -0.5773
vn 0.5774 0.5774 -0.5774
vn 0.5773 0.5774 0.5773
vn 0.5774 -0.5774 0.5774
vn -0.5773 0.5774 -0.5773
vn -0.5774 0.5774 0.5774
vn -0.5773 -0.5774 0.5773
vn -0.5774 -0.5774 -0.5774
vt 0.000000 0.000000
vt 0.000000 1.968504
vt -39.370079 1.968504
vt -39.370079 0.000000
vt 0.000000 39.370079
vt 39.370079 0.000000
vt 39.370079 39.370079
vt -39.370079 39.370079
vt 39.370079 1.968504
s 1
usemtl wood.027
f 10/10/9 9/11/10 11/12/11
f 11/12/11 12/13/12 10/10/9
f 11/14/11 9/10/10 13/15/13
f 13/15/13 14/16/14 11/14/11
f 10/10/9 12/14/12 15/17/15
f 15/17/15 16/13/16 10/10/9
f 15/13/15 12/10/12 11/11/11
f 11/11/11 14/12/14 15/13/15
f 10/10/9 16/15/16 13/18/13
f 13/18/13 9/11/10 10/10/9
f 13/11/13 16/10/16 15/15/15
f 15/15/15 14/18/14 13/11/13
o floorFull.002
v 1.002889 0.025599 -0.993747
v 1.002889 -0.024401 -0.993747
v 1.002889 0.025599 0.006253
v 1.002889 -0.024401 0.006253
v 0.002889 0.025599 -0.993747
v 0.002889 0.025599 0.006253
v 0.002889 -0.024401 0.006253
v 0.002889 -0.024401 -0.993747
vn 0.5773 -0.5774 -0.5773
vn 0.5774 0.5774 -0.5774
vn 0.5773 0.5774 0.5773
vn 0.5774 -0.5774 0.5774
vn -0.5773 0.5774 -0.5773
vn -0.5774 0.5774 0.5774
vn -0.5773 -0.5774 0.5773
vn -0.5774 -0.5774 -0.5774
vt 0.000000 0.000000
vt 0.000000 1.968504
vt -39.370079 1.968504
vt -39.370079 0.000000
vt 0.000000 39.370079
vt 39.370079 0.000000
vt 39.370079 39.370079
vt -39.370079 39.370079
vt 39.370079 1.968504
s 1
usemtl wood.028
f 18/19/17 17/20/18 19/21/19
f 19/21/19 20/22/20 18/19/17
f 19/23/19 17/19/18 21/24/21
f 21/24/21 22/25/22 19/23/19
f 18/19/17 20/23/20 23/26/23
f 23/26/23 24/22/24 18/19/17
f 23/22/23 20/19/20 19/20/19
f 19/20/19 22/21/22 23/22/23
f 18/19/17 24/24/24 21/27/21
f 21/27/21 17/20/18 18/19/17
f 21/20/21 24/19/24 23/24/23
f 23/24/23 22/27/22 21/20/21
o floorFull.003
v 1.002889 0.025599 -0.000000
v 1.002889 -0.024401 0.000000
v 1.002889 0.025599 1.000000
v 1.002889 -0.024401 1.000000
v 0.002889 0.025599 -0.000000
v 0.002889 0.025599 1.000000
v 0.002889 -0.024401 1.000000
v 0.002889 -0.024401 0.000000
vn 0.5773 -0.5774 -0.5773
vn 0.5774 0.5774 -0.5774
vn 0.5773 0.5774 0.5773
vn 0.5774 -0.5774 0.5774
vn -0.5773 0.5774 -0.5773
vn -0.5774 0.5774 0.5774
vn -0.5773 -0.5774 0.5773
vn -0.5774 -0.5774 -0.5774
vt 0.000000 0.000000
vt 0.000000 1.968504
vt -39.370079 1.968504
vt -39.370079 0.000000
vt 0.000000 39.370079
vt 39.370079 0.000000
vt 39.370079 39.370079
vt -39.370079 39.370079
vt 39.370079 1.968504
s 1
usemtl wood.029
f 26/28/25 25/29/26 27/30/27
f 27/30/27 28/31/28 26/28/25
f 27/32/27 25/28/26 29/33/29
f 29/33/29 30/34/30 27/32/27
f 26/28/25 28/32/28 31/35/31
f 31/35/31 32/31/32 26/28/25
f 31/31/31 28/28/28 27/29/27
f 27/29/27 30/30/30 31/31/31
f 26/28/25 32/33/32 29/36/29
f 29/36/29 25/29/26 26/28/25
f 29/29/29 32/28/32 31/33/31
f 31/33/31 30/36/30 29/29/29
o floorFull.004
v 2.002642 0.025599 -0.993747
v 2.002642 -0.024401 -0.993747
v 2.002642 0.025599 0.006253
v 2.002642 -0.024401 0.006253
v 1.002642 0.025599 -0.993747
v 1.002642 0.025599 0.006253
v 1.002642 -0.024401 0.006253
v 1.002642 -0.024401 -0.993747
vn 0.5773 -0.5774 -0.5773
vn 0.5774 0.5774 -0.5774
vn 0.5773 0.5774 0.5773
vn 0.5774 -0.5774 0.5774
vn -0.5773 0.5774 -0.5773
vn -0.5774 0.5774 0.5774
vn -0.5773 -0.5774 0.5773
vn -0.5774 -0.5774 -0.5774
vt 0.000000 0.000000
vt 0.000000 1.968504
vt -39.370079 1.968504
vt -39.370079 0.000000
vt 0.000000 39.370079
vt 39.370079 0.000000
vt 39.370079 39.370079
vt -39.370079 39.370079
vt 39.370079 1.968504
s 1
usemtl wood.030
f 34/37/33 33/38/34 35/39/35
f 35/39/35 36/40/36 34/37/33
f 35/41/35 33/37/34 37/42/37
f 37/42/37 38/43/38 35/41/35
f 34/37/33 36/41/36 39/44/39
f 39/44/39 40/40/40 34/37/33
f 39/40/39 36/37/36 35/38/35
f 35/38/35 38/39/38 39/40/39
f 34/37/33 40/42/40 37/45/37
f 37/45/37 33/38/34 34/37/33
f 37/38/37 40/37/40 39/42/39
f 39/42/39 38/45/38 37/38/37
o floorFull.005
v 2.002642 0.025599 -0.000000
v 2.002642 -0.024401 0.000000
v 2.002642 0.025599 1.000000
v 2.002642 -0.024401 1.000000
v 1.002642 0.025599 -0.000000
v 1.002642 0.025599 1.000000
v 1.002642 -0.024401 1.000000
v 1.002642 -0.024401 0.000000
vn 0.5773 -0.5774 -0.5773
vn 0.5774 0.5774 -0.5774
vn 0.5773 0.5774 0.5773
vn 0.5774 -0.5774 0.5774
vn -0.5773 0.5774 -0.5773
vn -0.5774 0.5774 0.5774
vn -0.5773 -0.5774 0.5773
vn -0.5774 -0.5774 -0.5774
vt 0.000000 0.000000
vt 0.000000 1.968504
vt -39.370079 1.968504
vt -39.370079 0.000000
vt 0.000000 39.370079
vt 39.370079 0.000000
vt 39.370079 39.370079
vt -39.370079 39.370079
vt 39.370079 1.968504
s 1
usemtl wood.031
f 42/46/41 41/47/42 43/48/43
f 43/48/43 44/49/44 42/46/41
f 43/50/43 41/46/42 45/51/45
f 45/51/45 46/52/46 43/50/43
f 42/46/41 44/50/44 47/53/47
f 47/53/47 48/49/48 42/46/41
f 47/49/47 44/46/44 43/47/43
f 43/47/43 46/48/46 47/49/47
f 42/46/41 48/51/48 45/54/45
f 45/54/45 41/47/42 42/46/41
f 45/47/45 48/46/48 47/51/47
f 47/51/47 46/54/46 45/47/45
o floorFull.006
v 3.000538 0.025599 -0.993747
v 3.000538 -0.024401 -0.993747
v 3.000538 0.025599 0.006253
v 3.000538 -0.024401 0.006253
v 2.000538 0.025599 -0.993747
v 2.000538 0.025599 0.006253
v 2.000538 -0.024401 0.006253
v 2.000538 -0.024401 -0.993747
vn 0.5773 -0.5774 -0.5773
vn 0.5774 0.5774 -0.5774
vn 0.5773 0.5774 0.5773
vn 0.5774 -0.5774 0.5774
vn -0.5773 0.5774 -0.5773
vn -0.5774 0.5774 0.5774
vn -0.5773 -0.5774 0.5773
vn -0.5774 -0.5774 -0.5774
vt 0.000000 0.000000
vt 0.000000 1.968504
vt -39.370079 1.968504
vt -39.370079 0.000000
vt 0.000000 39.370079
vt 39.370079 0.000000
vt 39.370079 39.370079
vt -39.370079 39.370079
vt 39.370079 1.968504
s 1
usemtl wood.032
f 50/55/49 49/56/50 51/57/51
f 51/57/51 52/58/52 50/55/49
f 51/59/51 49/55/50 53/60/53
f 53/60/53 54/61/54 51/59/51
f 50/55/49 52/59/52 55/62/55
f 55/62/55 56/58/56 50/55/49
f 55/58/55 52/55/52 51/56/51
f 51/56/51 54/57/54 55/58/55
f 50/55/49 56/60/56 53/63/53
f 53/63/53 49/56/50 50/55/49
f 53/56/53 56/55/56 55/60/55
f 55/60/55 54/63/54 53/56/53
o floorFull.007
v 3.000538 0.025599 -0.000000
v 3.000538 -0.024401 0.000000
v 3.000538 0.025599 1.000000
v 3.000538 -0.024401 1.000000
v 2.000538 0.025599 -0.000000
v 2.000538 0.025599 1.000000
v 2.000538 -0.024401 1.000000
v 2.000538 -0.024401 0.000000
vn 0.5773 -0.5774 -0.5773
vn 0.5774 0.5774 -0.5774
vn 0.5773 0.5774 0.5773
vn 0.5774 -0.5774 0.5774
vn -0.5773 0.5774 -0.5773
vn -0.5774 0.5774 0.5774
vn -0.5773 -0.5774 0.5773
vn -0.5774 -0.5774 -0.5774
vt 0.000000 0.000000
vt 0.000000 1.968504
vt -39.370079 1.968504
vt -39.370079 0.000000
vt 0.000000 39.370079
vt 39.370079 0.000000
vt 39.370079 39.370079
vt -39.370079 39.370079
vt 39.370079 1.968504
s 1
usemtl wood.033
f 58/64/57 57/65/58 59/66/59
f 59/66/59 60/67/60 58/64/57
f 59/68/59 57/64/58 61/69/61
f 61/69/61 62/70/62 59/68/59
f 58/64/57 60/68/60 63/71/63
f 63/71/63 64/67/64 58/64/57
f 63/67/63 60/64/60 59/65/59
f 59/65/59 62/66/62 63/67/63
f 58/64/57 64/69/64 61/72/61
f 61/72/61 57/65/58 58/64/57
f 61/65/61 64/64/64 63/69/63
f 63/69/63 62/72/62 61/65/61
o floorFull.008
v 3.000538 0.025599 1.001298
v 3.000538 -0.024401 1.001298
v 3.000538 0.025599 2.001298
v 3.000538 -0.024401 2.001298
v 2.000538 0.025599 1.001298
v 2.000538 0.025599 2.001298
v 2.000538 -0.024401 2.001298
v 2.000538 -0.024401 1.001298
vn 0.5773 -0.5774 -0.5773
vn 0.5774 0.5774 -0.5774
vn 0.5773 0.5774 0.5773
vn 0.5774 -0.5774 0.5774
vn -0.5773 0.5774 -0.5773
vn -0.5774 0.5774 0.5774
vn -0.5773 -0.5774 0.5773
vn -0.5774 -0.5774 -0.5774
vt 0.000000 0.000000
vt 0.000000 1.968504
vt -39.370079 1.968504
vt -39.370079 0.000000
vt 0.000000 39.370079
vt 39.370079 0.000000
vt 39.370079 39.370079
vt -39.370079 39.370079
vt 39.370079 1.968504
s 1
usemtl wood.034
f 66/73/65 65/74/66 67/75/67
f 67/75/67 68/76/68 66/73/65
f 67/77/67 65/73/66 69/78/69
f 69/78/69 70/79/70 67/77/67
f 66/73/65 68/77/68 71/80/71
f 71/80/71 72/76/72 66/73/65
f 71/76/71 68/73/68 67/74/67
f 67/74/67 70/75/70 71/76/71
f 66/73/65 72/78/72 69/81/69
f 69/81/69 65/74/66 66/73/65
f 69/74/69 72/73/72 71/78/71
f 71/78/71 70/81/70 69/74/69
o floorFull.009
v 2.002642 0.025599 1.001298
v 2.002642 -0.024401 1.001298
v 2.002642 0.025599 2.001298
v 2.002642 -0.024401 2.001298
v 1.002642 0.025599 1.001298
v 1.002642 0.025599 2.001298
v 1.002642 -0.024401 2.001298
v 1.002642 -0.024401 1.001298
vn 0.5773 -0.5774 -0.5773
vn 0.5774 0.5774 -0.5774
vn 0.5773 0.5774 0.5773
vn 0.5774 -0.5774 0.5774
vn -0.5773 0.5774 -0.5773
vn -0.5774 0.5774 0.5774
vn -0.5773 -0.5774 0.5773
vn -0.5774 -0.5774 -0.5774
vt 0.000000 0.000000
vt 0.000000 1.968504
vt -39.370079 1.968504
vt -39.370079 0.000000
vt 0.000000 39.370079
vt 39.370079 0.000000
vt 39.370079 39.370079
vt -39.370079 39.370079
vt 39.370079 1.968504
s 1
usemtl wood.035
f 74/82/73 73/83/74 75/84/75
f 75/84/75 76/85/76 74/82/73
f 75/86/75 73/82/74 77/87/77
f 77/87/77 78/88/78 75/86/75
f 74/82/73 76/86/76 79/89/79
f 79/89/79 80/85/80 74/82/73
f 79/85/79 76/82/76 75/83/75
f 75/83/75 78/84/78 79/85/79
f 74/82/73 80/87/80 77/90/77
f 77/90/77 73/83/74 74/82/73
f 77/83/77 80/82/80 79/87/79
f 79/87/79 78/90/78 77/83/77
o floorFull.010
v 1.002889 0.025599 1.001298
v 1.002889 -0.024401 1.001298
v 1.002889 0.025599 2.001298
v 1.002889 -0.024401 2.001298
v 0.002889 0.025599 1.001298
v 0.002889 0.025599 2.001298
v 0.002889 -0.024401 2.001298
v 0.002889 -0.024401 1.001298
vn 0.5773 -0.5774 -0.5773
vn 0.5774 0.5774 -0.5774
vn 0.5773 0.5774 0.5773
vn 0.5774 -0.5774 0.5774
vn -0.5773 0.5774 -0.5773
vn -0.5774 0.5774 0.5774
vn -0.5773 -0.5774 0.5773
vn -0.5774 -0.5774 -0.5774
vt 0.000000 0.000000
vt 0.000000 1.968504
vt -39.370079 1.968504
vt -39.370079 0.000000
vt 0.000000 39.370079
vt 39.370079 0.000000
vt 39.370079 39.370079
vt -39.370079 39.370079
vt 39.370079 1.968504
s 1
usemtl wood.036
f 82/91/81 81/92/82 83/93/83
f 83/93/83 84/94/84 82/91/81
f 83/95/83 81/91/82 85/96/85
f 85/96/85 86/97/86 83/95/83
f 82/91/81 84/95/84 87/98/87
f 87/98/87 88/94/88 82/91/81
f 87/94/87 84/91/84 83/92/83
f 83/92/83 86/93/86 87/94/87
f 82/91/81 88/96/88 85/99/85
f 85/99/85 81/92/82 82/91/81
f 85/92/85 88/91/88 87/96/87
f 87/96/87 86/99/86 85/92/85
o floorFull.011
v 0.000000 0.025599 1.001298
v 0.000000 -0.024401 1.001298
v 0.000000 0.025599 2.001298
v 0.000000 -0.024401 2.001298
v -1.000000 0.025599 1.001298
v -1.000000 0.025599 2.001298
v -1.000000 -0.024401 2.001298
v -1.000000 -0.024401 1.001298
vn 0.5773 -0.5774 -0.5773
vn 0.5774 0.5774 -0.5774
vn 0.5773 0.5774 0.5773
vn 0.5774 -0.5774 0.5774
vn -0.5773 0.5774 -0.5773
vn -0.5774 0.5774 0.5774
vn -0.5773 -0.5774 0.5773
vn -0.5774 -0.5774 -0.5774
vt 0.000000 0.000000
vt 0.000000 1.968504
vt -39.370079 1.968504
vt -39.370079 0.000000
vt 0.000000 39.370079
vt 39.370079 0.000000
vt 39.370079 39.370079
vt -39.370079 39.370079
vt 39.370079 1.968504
s 1
usemtl wood.037
f 90/100/89 89/101/90 91/102/91
f 91/102/91 92/103/92 90/100/89
f 91/104/91 89/100/90 93/105/93
f 93/105/93 94/106/94 91/104/91
f 90/100/89 92/104/92 95/107/95
f 95/107/95 96/103/96 90/100/89
f 95/103/95 92/100/92 91/101/91
f 91/101/91 94/102/94 95/103/95
f 90/100/89 96/105/96 93/108/93
f 93/108/93 89/101/90 90/100/89
f 93/101/93 96/100/96 95/105/95
f 95/105/95 94/108/94 93/101/93
o floorFull.012
v 3.000538 0.025599 -1.992708
v 3.000538 -0.024401 -1.992708
v 3.000538 0.025599 -0.992708
v 3.000538 -0.024401 -0.992708
v 2.000538 0.025599 -1.992708
v 2.000538 0.025599 -0.992708
v 2.000538 -0.024401 -0.992708
v 2.000538 -0.024401 -1.992708
vn 0.5773 -0.5774 -0.5773
vn 0.5774 0.5774 -0.5774
vn 0.5773 0.5774 0.5773
vn 0.5774 -0.5774 0.5774
vn -0.5773 0.5774 -0.5773
vn -0.5774 0.5774 0.5774
vn -0.5773 -0.5774 0.5773
vn -0.5774 -0.5774 -0.5774
vt 0.000000 0.000000
vt 0.000000 1.968504
vt -39.370079 1.968504
vt -39.370079 0.000000
vt 0.000000 39.370079
vt 39.370079 0.000000
vt 39.370079 39.370079
vt -39.370079 39.370079
vt 39.370079 1.968504
s 1
usemtl wood.038
f 98/109/97 97/110/98 99/111/99
f 99/111/99 100/112/100 98/109/97
f 99/113/99 97/109/98 101/114/101
f 101/114/101 102/115/102 99/113/99
f 98/109/97 100/113/100 103/116/103
f 103/116/103 104/112/104 98/109/97
f 103/112/103 100/109/100 99/110/99
f 99/110/99 102/111/102 103/112/103
f 98/109/97 104/114/104 101/117/101
f 101/117/101 97/110/98 98/109/97
f 101/110/101 104/109/104 103/114/103
f 103/114/103 102/117/102 101/110/101
o floorFull.013
v 2.002642 0.025599 -1.992708
v 2.002642 -0.024401 -1.992708
v 2.002642 0.025599 -0.992708
v 2.002642 -0.024401 -0.992708
v 1.002642 0.025599 -1.992708
v 1.002642 0.025599 -0.992708
v 1.002642 -0.024401 -0.992708
v 1.002642 -0.024401 -1.992708
vn 0.5773 -0.5774 -0.5773
vn 0.5774 0.5774 -0.5774
vn 0.5773 0.5774 0.5773
vn 0.5774 -0.5774 0.5774
vn -0.5773 0.5774 -0.5773
vn -0.5774 0.5774 0.5774
vn -0.5773 -0.5774 0.5773
vn -0.5774 -0.5774 -0.5774
vt 0.000000 0.000000
vt 0.000000 1.968504
vt -39.370079 1.968504
vt -39.370079 0.000000
vt 0.000000 39.370079
vt 39.370079 0.000000
vt 39.370079 39.370079
vt -39.370079 39.370079
vt 39.370079 1.968504
s 1
usemtl wood.039
f 106/118/105 105/119/106 107/120/107
f 107/120/107 108/121/108 106/118/105
f 107/122/107 105/118/106 109/123/109
f 109/123/109 110/124/110 107/122/107
f 106/118/105 108/122/108 111/125/111
f 111/125/111 112/121/112 106/118/105
f 111/121/111 108/118/108 107/119/107
f 107/119/107 110/120/110 111/121/111
f 106/118/105 112/123/112 109/126/109
f 109/126/109 105/119/106 106/118/105
f 109/119/109 112/118/112 111/123/111
f 111/123/111 110/126/110 109/119/109
o floorFull.014
v 1.002889 0.025599 -1.992708
v 1.002889 -0.024401 -1.992708
v 1.002889 0.025599 -0.992708
v 1.002889 -0.024401 -0.992708
v 0.002889 0.025599 -1.992708
v 0.002889 0.025599 -0.992708
v 0.002889 -0.024401 -0.992708
v 0.002889 -0.024401 -1.992708
vn 0.5773 -0.5774 -0.5773
vn 0.5774 0.5774 -0.5774
vn 0.5773 0.5774 0.5773
vn 0.5774 -0.5774 0.5774
vn -0.5773 0.5774 -0.5773
vn -0.5774 0.5774 0.5774
vn -0.5773 -0.5774 0.5773
vn -0.5774 -0.5774 -0.5774
vt 0.000000 0.000000
vt 0.000000 1.968504
vt -39.370079 1.968504
vt -39.370079 0.000000
vt 0.000000 39.370079
vt 39.370079 0.000000
vt 39.370079 39.370079
vt -39.370079 39.370079
vt 39.370079 1.968504
s 1
usemtl wood.040
f 114/127/113 113/128/114 115/129/115
f 115/129/115 116/130/116 114/127/113
f 115/131/115 113/127/114 117/132/117
f 117/132/117 118/133/118 115/131/115
f 114/127/113 116/131/116 119/134/119
f 119/134/119 120/130/120 114/127/113
f 119/130/119 116/127/116 115/128/115
f 115/128/115 118/129/118 119/130/119
f 114/127/113 120/132/120 117/135/117
f 117/135/117 113/128/114 114/127/113
f 117/128/117 120/127/120 119/132/119
f 119/132/119 118/135/118 117/128/117
o floorFull.015
v 0.000000 0.025599 -1.992708
v 0.000000 -0.024401 -1.992708
v 0.000000 0.025599 -0.992708
v 0.000000 -0.024401 -0.992708
v -1.000000 0.025599 -1.992708
v -1.000000 0.025599 -0.992708
v -1.000000 -0.024401 -0.992708
v -1.000000 -0.024401 -1.992708
vn 0.5773 -0.5774 -0.5773
vn 0.5774 0.5774 -0.5774
vn 0.5773 0.5774 0.5773
vn 0.5774 -0.5774 0.5774
vn -0.5773 0.5774 -0.5773
vn -0.5774 0.5774 0.5774
vn -0.5773 -0.5774 0.5773
vn -0.5774 -0.5774 -0.5774
vt 0.000000 0.000000
vt 0.000000 1.968504
vt -39.370079 1.968504
vt -39.370079 0.000000
vt 0.000000 39.370079
vt 39.370079 0.000000
vt 39.370079 39.370079
vt -39.370079 39.370079
vt 39.370079 1.968504
s 1
usemtl wood.041
f 122/136/121 121/137/122 123/138/123
f 123/138/123 124/139/124 122/136/121
f 123/140/123 121/136/122 125/141/125
f 125/141/125 126/142/126 123/140/123
f 122/136/121 124/140/124 127/143/127
f 127/143/127 128/139/128 122/136/121
f 127/139/127 124/136/124 123/137/123
f 123/137/123 126/138/126 127/139/127
f 122/136/121 128/141/128 125/144/125
f 125/144/125 121/137/122 122/136/121
f 125/137/125 128/136/128 127/141/127
f 127/141/127 126/144/126 125/137/125
