# Blender 5.1.1
# www.blender.org
mtllib disco-ball.mtl
o Cylinder
v 0.000000 4.580163 -0.020556
v 0.000000 5.031419 -0.020556
v 0.007867 4.580163 -0.018991
v 0.007867 5.031419 -0.018991
v 0.014535 4.580163 -0.014535
v 0.014535 5.031419 -0.014535
v 0.018991 4.580163 -0.007866
v 0.018991 5.031419 -0.007867
v 0.020556 4.580163 0.000000
v 0.020556 5.031419 -0.000000
v 0.018991 4.580163 0.007867
v 0.018991 5.031419 0.007866
v 0.014535 4.580163 0.014535
v 0.014535 5.031419 0.014535
v 0.007867 4.580163 0.018991
v 0.007867 5.031419 0.018991
v -0.000000 4.580163 0.020556
v -0.000000 5.031419 0.020556
v -0.007867 4.580163 0.018991
v -0.007867 5.031419 0.018991
v -0.014535 4.580163 0.014535
v -0.014535 5.031419 0.014535
v -0.018991 4.580163 0.007867
v -0.018991 5.031419 0.007866
v -0.020556 4.580163 0.000000
v -0.020556 5.031419 -0.000000
v -0.018991 4.580163 -0.007866
v -0.018991 5.031419 -0.007867
v -0.014535 4.580163 -0.014535
v -0.014535 5.031419 -0.014535
v -0.007867 4.580163 -0.018991
v -0.007867 5.031419 -0.018991
v -0.212171 4.012998 0.212171
v -0.212171 4.437340 0.212171
v -0.212171 4.012997 -0.212171
v -0.212171 4.437340 -0.212171
v 0.212171 4.012998 0.212171
v 0.212171 4.437340 0.212171
v 0.212171 4.012997 -0.212171
v 0.212171 4.437340 -0.212171
v -0.227073 3.998096 -0.177736
v -0.243120 3.982049 -0.125881
v -0.254451 3.970718 -0.065094
v -0.258666 3.966503 0.000000
v -0.254451 3.970718 0.065095
v -0.243120 3.982049 0.125881
v -0.227073 3.998096 0.177736
v -0.227073 4.047433 0.227073
v -0.243120 4.099288 0.243120
v -0.254451 4.160074 0.254451
v -0.258666 4.225169 0.258666
v -0.254451 4.290263 0.254451
v -0.243120 4.351050 0.243120
v -0.227073 4.402905 0.227073
v -0.227073 4.452242 0.177736
v -0.243120 4.468288 0.125881
v -0.254451 4.479620 0.065094
v -0.258666 4.483834 0.000000
v -0.254451 4.479620 -0.065094
v -0.243120 4.468288 -0.125881
v -0.227073 4.452242 -0.177736
v -0.227073 4.402905 -0.227073
v -0.243120 4.351050 -0.243120
v -0.254451 4.290263 -0.254451
v -0.258666 4.225169 -0.258665
v -0.254451 4.160074 -0.254451
v -0.243120 4.099288 -0.243120
v -0.227073 4.047433 -0.227073
v 0.177736 3.998096 -0.227073
v 0.125881 3.982049 -0.243120
v 0.065094 3.970718 -0.254451
v 0.000000 3.966503 -0.258665
v -0.065094 3.970718 -0.254451
v -0.125881 3.982049 -0.243120
v -0.177736 3.998096 -0.227073
v -0.177736 4.452242 -0.227073
v -0.125881 4.468288 -0.243120
v -0.065094 4.479620 -0.254451
v -0.000000 4.483834 -0.258666
v 0.065094 4.479620 -0.254451
v 0.125881 4.468288 -0.243120
v 0.177736 4.452242 -0.227073
v 0.227073 4.402905 -0.227073
v 0.243120 4.351050 -0.243120
v 0.254451 4.290263 -0.254451
v 0.258666 4.225169 -0.258666
v 0.254451 4.160074 -0.254451
v 0.243120 4.099288 -0.243120
v 0.227073 4.047433 -0.227073
v 0.227073 3.998096 0.177736
v 0.243120 3.982049 0.125881
v 0.254451 3.970718 0.065095
v 0.258666 3.966503 0.000000
v 0.254451 3.970718 -0.065094
v 0.243120 3.982049 -0.125881
v 0.227073 3.998096 -0.177736
v 0.227073 4.452242 -0.177736
v 0.243120 4.468288 -0.125881
v 0.254451 4.479620 -0.065094
v 0.258666 4.483834 0.000000
v 0.254451 4.479620 0.065094
v 0.243120 4.468288 0.125881
v 0.227073 4.452242 0.177736
v 0.227073 4.402905 0.227073
v 0.243120 4.351050 0.243120
v 0.254451 4.290263 0.254451
v 0.258666 4.225169 0.258666
v 0.254451 4.160074 0.254451
v 0.243120 4.099288 0.243120
v 0.227073 4.047433 0.227073
v -0.177736 3.998096 0.227073
v -0.125881 3.982049 0.243120
v -0.065094 3.970718 0.254451
v -0.000000 3.966503 0.258666
v 0.065094 3.970718 0.254451
v 0.125881 3.982049 0.243120
v 0.177736 3.998096 0.227073
v 0.177736 4.452242 0.227073
v 0.125881 4.468288 0.243120
v 0.065094 4.479620 0.254451
v -0.000000 4.483834 0.258666
v -0.065094 4.479620 0.254451
v -0.125881 4.468288 0.243120
v -0.177736 4.452242 0.227073
v -0.259045 4.041955 0.183214
v -0.281820 4.096601 0.193204
v -0.296202 4.158933 0.201308
v -0.301262 4.225169 0.204528
v -0.296202 4.291405 0.201308
v -0.281820 4.353737 0.193204
v -0.259045 4.408382 0.183214
v -0.281820 4.031965 0.128569
v -0.309341 4.091010 0.134159
v -0.326083 4.156461 0.139214
v -0.331763 4.225169 0.141366
v -0.326083 4.293876 0.139214
v -0.309341 4.359328 0.134159
v -0.281820 4.418373 0.128568
v -0.296202 4.023860 0.066236
v -0.326083 4.085955 0.068708
v -0.344083 4.154057 0.071112
v -0.350109 4.225169 0.072187
v -0.344083 4.296281 0.071112
v -0.326083 4.364383 0.068708
v -0.296202 4.426477 0.066236
v -0.301262 4.020641 0.000000
v -0.331763 4.083803 0.000000
v -0.350109 4.152982 0.000000
v -0.356238 4.225169 0.000000
v -0.350109 4.297356 0.000000
v -0.331763 4.366534 0.000000
v -0.301262 4.429697 0.000000
v -0.296202 4.023860 -0.066236
v -0.326083 4.085955 -0.068708
v -0.344083 4.154057 -0.071112
v -0.350109 4.225169 -0.072187
v -0.344083 4.296281 -0.071112
v -0.326083 4.364383 -0.068708
v -0.296202 4.426477 -0.066236
v -0.281820 4.031965 -0.128568
v -0.309341 4.091010 -0.134159
v -0.326083 4.156461 -0.139214
v -0.331763 4.225169 -0.141366
v -0.326083 4.293876 -0.139214
v -0.309341 4.359327 -0.134159
v -0.281820 4.418373 -0.128568
v -0.259045 4.041955 -0.183213
v -0.281820 4.096600 -0.193204
v -0.296202 4.158933 -0.201308
v -0.301262 4.225169 -0.204528
v -0.296202 4.291405 -0.201308
v -0.281820 4.353737 -0.193204
v -0.259045 4.408382 -0.183214
v -0.183214 4.041955 -0.259044
v -0.193204 4.096600 -0.281820
v -0.201308 4.158933 -0.296202
v -0.204528 4.225169 -0.301261
v -0.201308 4.291405 -0.296202
v -0.193204 4.353737 -0.281820
v -0.183214 4.408382 -0.259045
v -0.128568 4.031964 -0.281820
v -0.134159 4.091010 -0.309341
v -0.139214 4.156461 -0.326083
v -0.141366 4.225169 -0.331763
v -0.139214 4.293876 -0.326083
v -0.134159 4.359327 -0.309341
v -0.128568 4.418373 -0.281820
v -0.066236 4.023860 -0.296202
v -0.068708 4.085955 -0.326083
v -0.071112 4.154057 -0.344083
v -0.072187 4.225169 -0.350109
v -0.071112 4.296281 -0.344083
v -0.068708 4.364383 -0.326083
v -0.066236 4.426477 -0.296202
v 0.000000 4.020641 -0.301261
v 0.000000 4.083803 -0.331763
v 0.000000 4.152982 -0.350109
v 0.000000 4.225169 -0.356238
v 0.000000 4.297356 -0.350109
v -0.000000 4.366534 -0.331763
v -0.000000 4.429697 -0.301261
v 0.066236 4.023860 -0.296202
v 0.068708 4.085955 -0.326083
v 0.071112 4.154057 -0.344083
v 0.072187 4.225169 -0.350109
v 0.071112 4.296281 -0.344083
v 0.068708 4.364383 -0.326083
v 0.066236 4.426477 -0.296202
v 0.128568 4.031964 -0.281820
v 0.134159 4.091010 -0.309341
v 0.139214 4.156461 -0.326083
v 0.141366 4.225169 -0.331763
v 0.139214 4.293876 -0.326083
v 0.134159 4.359327 -0.309341
v 0.128568 4.418373 -0.281820
v 0.183214 4.041955 -0.259044
v 0.193204 4.096600 -0.281820
v 0.201308 4.158933 -0.296202
v 0.204528 4.225169 -0.301261
v 0.201308 4.291405 -0.296202
v 0.193204 4.353737 -0.281820
v 0.183214 4.408382 -0.259044
v 0.259045 4.041955 -0.183214
v 0.281820 4.096600 -0.193204
v 0.296202 4.158933 -0.201308
v 0.301262 4.225169 -0.204528
v 0.296202 4.291405 -0.201308
v 0.281820 4.353737 -0.193204
v 0.259045 4.408382 -0.183214
v 0.281820 4.031965 -0.128568
v 0.309341 4.091010 -0.134159
v 0.326083 4.156461 -0.139214
v 0.331763 4.225169 -0.141366
v 0.326083 4.293876 -0.139214
v 0.309341 4.359327 -0.134159
v 0.281820 4.418373 -0.128568
v 0.296202 4.023860 -0.066236
v 0.326083 4.085955 -0.068707
v 0.344083 4.154057 -0.071112
v 0.350109 4.225169 -0.072187
v 0.344083 4.296281 -0.071112
v 0.326083 4.364383 -0.068708
v 0.296202 4.426477 -0.066236
v 0.301262 4.020641 0.000000
v 0.331763 4.083803 0.000000
v 0.350109 4.152982 0.000000
v 0.356238 4.225169 0.000000
v 0.350109 4.297356 0.000000
v 0.331763 4.366534 0.000000
v 0.301262 4.429697 0.000000
v 0.296202 4.023860 0.066236
v 0.326083 4.085955 0.068708
v 0.344083 4.154057 0.071112
v 0.350109 4.225169 0.072187
v 0.344083 4.296281 0.071112
v 0.326083 4.364383 0.068708
v 0.296202 4.426477 0.066236
v 0.281820 4.031965 0.128569
v 0.309341 4.091010 0.134159
v 0.326083 4.156461 0.139214
v 0.331763 4.225169 0.141366
v 0.326083 4.293876 0.139214
v 0.309341 4.359328 0.134159
v 0.281820 4.418373 0.128568
v 0.259045 4.041955 0.183214
v 0.281820 4.096601 0.193204
v 0.296202 4.158933 0.201308
v 0.301262 4.225169 0.204528
v 0.296202 4.291405 0.201308
v 0.281820 4.353737 0.193204
v 0.259045 4.408382 0.183214
v 0.183214 4.041955 0.259045
v 0.193204 4.096601 0.281820
v 0.201308 4.158933 0.296202
v 0.204528 4.225169 0.301262
v 0.201308 4.291405 0.296202
v 0.193204 4.353737 0.281820
v 0.183214 4.408382 0.259045
v 0.128568 4.031965 0.281820
v 0.134159 4.091010 0.309342
v 0.139214 4.156461 0.326083
v 0.141366 4.225169 0.331763
v 0.139214 4.293876 0.326083
v 0.134159 4.359328 0.309342
v 0.128568 4.418373 0.281820
v 0.066236 4.023860 0.296202
v 0.068708 4.085955 0.326083
v 0.071112 4.154057 0.344083
v 0.072187 4.225169 0.350109
v 0.071112 4.296281 0.344083
v 0.068708 4.364383 0.326083
v 0.066236 4.426477 0.296202
v -0.000000 4.020641 0.301262
v -0.000000 4.083803 0.331763
v -0.000000 4.152982 0.350109
v -0.000000 4.225169 0.356238
v -0.000000 4.297356 0.350109
v 0.000000 4.366534 0.331763
v 0.000000 4.429697 0.301262
v -0.066236 4.023860 0.296202
v -0.068708 4.085955 0.326083
v -0.071112 4.154057 0.344083
v -0.072187 4.225169 0.350109
v -0.071112 4.296281 0.344083
v -0.068708 4.364383 0.326083
v -0.066236 4.426477 0.296202
v -0.128568 4.031965 0.281820
v -0.134159 4.091010 0.309342
v -0.139214 4.156461 0.326083
v -0.141366 4.225169 0.331763
v -0.139214 4.293876 0.326083
v -0.134159 4.359328 0.309341
v -0.128568 4.418373 0.281820
v -0.183214 4.041955 0.259045
v -0.193204 4.096601 0.281820
v -0.201308 4.158933 0.296202
v -0.204528 4.225169 0.301262
v -0.201308 4.291405 0.296202
v -0.193204 4.353737 0.281820
v -0.183214 4.408382 0.259045
v -0.183214 3.966124 -0.183213
v -0.128568 3.943349 -0.193204
v -0.066236 3.928967 -0.201308
v -0.000000 3.923907 -0.204528
v 0.066236 3.928967 -0.201308
v 0.128568 3.943349 -0.193204
v 0.183214 3.966124 -0.183213
v -0.193204 3.943349 -0.128568
v -0.134159 3.915827 -0.134159
v -0.068708 3.899086 -0.139214
v -0.000000 3.893405 -0.141366
v 0.068708 3.899086 -0.139214
v 0.134159 3.915827 -0.134159
v 0.193204 3.943349 -0.128568
v -0.201308 3.928967 -0.066236
v -0.139214 3.899086 -0.068707
v -0.071112 3.881085 -0.071112
v -0.000000 3.875059 -0.072187
v 0.071112 3.881085 -0.071112
v 0.139214 3.899086 -0.068707
v 0.201308 3.928967 -0.066236
v -0.204528 3.923907 0.000000
v -0.141366 3.893405 0.000000
v -0.072187 3.875059 0.000000
v 0.000000 3.868931 0.000000
v 0.072187 3.875059 0.000000
v 0.141366 3.893405 0.000000
v 0.204528 3.923907 0.000000
v -0.201308 3.928967 0.066236
v -0.139214 3.899086 0.068708
v -0.071112 3.881085 0.071112
v 0.000000 3.875059 0.072187
v 0.071112 3.881085 0.071112
v 0.139214 3.899086 0.068708
v 0.201308 3.928967 0.066236
v -0.193204 3.943349 0.128569
v -0.134159 3.915827 0.134159
v -0.068708 3.899086 0.139214
v 0.000000 3.893405 0.141366
v 0.068708 3.899086 0.139214
v 0.134159 3.915827 0.134159
v 0.193204 3.943349 0.128569
v -0.183214 3.966124 0.183214
v -0.128568 3.943349 0.193204
v -0.066236 3.928967 0.201308
v 0.000000 3.923907 0.204528
v 0.066236 3.928967 0.201308
v 0.128568 3.943349 0.193204
v 0.183214 3.966124 0.183214
v 0.183214 4.484213 -0.183214
v 0.128568 4.506989 -0.193204
v 0.066236 4.521371 -0.201308
v 0.000000 4.526430 -0.204528
v -0.066236 4.521371 -0.201308
v -0.128568 4.506989 -0.193204
v -0.183214 4.484213 -0.183214
v 0.193204 4.506989 -0.128568
v 0.134159 4.534510 -0.134159
v 0.068708 4.551251 -0.139214
v 0.000000 4.556932 -0.141366
v -0.068708 4.551251 -0.139214
v -0.134159 4.534510 -0.134159
v -0.193204 4.506989 -0.128568
v 0.201308 4.521371 -0.066236
v 0.139214 4.551251 -0.068708
v 0.071112 4.569252 -0.071112
v 0.000000 4.575278 -0.072187
v -0.071112 4.569252 -0.071112
v -0.139214 4.551251 -0.068708
v -0.201308 4.521371 -0.066236
v 0.204528 4.526430 0.000000
v 0.141366 4.556932 0.000000
v 0.072187 4.575278 0.000000
v -0.072187 4.575278 0.000000
v -0.141366 4.556932 0.000000
v -0.204528 4.526430 0.000000
v 0.201308 4.521371 0.066236
v 0.139214 4.551251 0.068708
v 0.071112 4.569252 0.071112
v -0.000000 4.575278 0.072187
v -0.071112 4.569252 0.071112
v -0.139214 4.551251 0.068708
v -0.201308 4.521371 0.066236
v 0.193204 4.506989 0.128568
v 0.134159 4.534510 0.134159
v 0.068708 4.551251 0.139214
v -0.000000 4.556932 0.141366
v -0.068708 4.551251 0.139214
v -0.134159 4.534510 0.134159
v -0.193204 4.506989 0.128568
v 0.183214 4.484213 0.183214
v 0.128568 4.506989 0.193204
v 0.066236 4.521371 0.201308
v -0.000000 4.526430 0.204528
v -0.066236 4.521371 0.201308
v -0.128568 4.506989 0.193204
v -0.183214 4.484213 0.183214
vn 0.1951 -0.0000 -0.9808
vn 0.5556 -0.0000 -0.8315
vn 0.8315 -0.0000 -0.5556
vn 0.9808 -0.0000 -0.1951
vn 0.9808 -0.0000 0.1951
vn 0.8315 -0.0000 0.5556
vn 0.5556 -0.0000 0.8315
vn 0.1951 -0.0000 0.9808
vn -0.1951 -0.0000 0.9808
vn -0.5556 -0.0000 0.8315
vn -0.8315 -0.0000 0.5556
vn -0.9808 -0.0000 0.1951
vn -0.9808 -0.0000 -0.1951
vn -0.8315 -0.0000 -0.5556
vn -0.0000 1.0000 -0.0000
vn -0.5556 -0.0000 -0.8315
vn -0.1951 -0.0000 -0.9808
vn -0.0000 -1.0000 -0.0000
vn -0.8096 -0.4151 0.4151
vn -0.8671 -0.2552 0.4278
vn -0.8966 -0.0886 0.4340
vn -0.8966 0.0886 0.4340
vn -0.8671 0.2552 0.4278
vn -0.8096 0.4151 0.4151
vn -0.8671 -0.4278 0.2552
vn -0.9318 -0.2567 0.2567
vn -0.9627 -0.0865 0.2564
vn -0.9627 0.0865 0.2564
vn -0.9318 0.2567 0.2567
vn -0.8671 0.4278 0.2552
vn -0.8966 -0.4340 0.0886
vn -0.9627 -0.2564 0.0865
vn -0.9928 -0.0848 0.0848
vn -0.9928 0.0848 0.0848
vn -0.9627 0.2564 0.0865
vn -0.8966 0.4340 0.0886
vn -0.8966 -0.4340 -0.0886
vn -0.9627 -0.2564 -0.0865
vn -0.9928 -0.0848 -0.0848
vn -0.9928 0.0848 -0.0848
vn -0.9627 0.2564 -0.0865
vn -0.8966 0.4340 -0.0886
vn -0.8671 -0.4278 -0.2552
vn -0.9318 -0.2567 -0.2567
vn -0.9627 -0.0865 -0.2564
vn -0.9627 0.0865 -0.2564
vn -0.9318 0.2567 -0.2567
vn -0.8671 0.4278 -0.2552
vn -0.8096 -0.4151 -0.4151
vn -0.8671 -0.2552 -0.4278
vn -0.8966 -0.0886 -0.4340
vn -0.8966 0.0886 -0.4340
vn -0.8671 0.2552 -0.4278
vn -0.8096 0.4151 -0.4151
vn -0.6579 -0.5325 0.5325
vn -0.7146 -0.4007 0.5734
vn -0.7580 -0.2532 0.6011
vn -0.7825 -0.0901 0.6161
vn -0.7825 0.0901 0.6161
vn -0.7580 0.2532 0.6011
vn -0.7146 0.4007 0.5734
vn -0.6579 0.5325 0.5325
vn -0.7146 0.5734 0.4007
vn -0.7580 0.6011 0.2532
vn -0.7825 0.6161 0.0901
vn -0.7825 0.6161 -0.0901
vn -0.7580 0.6011 -0.2532
vn -0.7146 0.5734 -0.4007
vn -0.6579 0.5325 -0.5325
vn -0.7146 0.4007 -0.5734
vn -0.7580 0.2532 -0.6011
vn -0.7825 0.0901 -0.6161
vn -0.7825 -0.0901 -0.6161
vn -0.7580 -0.2532 -0.6011
vn -0.7146 -0.4007 -0.5734
vn -0.6579 -0.5325 -0.5325
vn -0.7146 -0.5734 -0.4007
vn -0.7580 -0.6011 -0.2532
vn -0.7825 -0.6161 -0.0901
vn -0.7825 -0.6161 0.0901
vn -0.7580 -0.6011 0.2532
vn -0.7146 -0.5734 0.4007
vn -0.4151 -0.4151 -0.8096
vn -0.4278 -0.2552 -0.8671
vn -0.4340 -0.0886 -0.8966
vn -0.4340 0.0886 -0.8966
vn -0.4278 0.2552 -0.8671
vn -0.4151 0.4151 -0.8096
vn -0.2552 -0.4278 -0.8671
vn -0.2567 -0.2567 -0.9318
vn -0.2564 -0.0865 -0.9627
vn -0.2564 0.0865 -0.9627
vn -0.2567 0.2567 -0.9318
vn -0.2552 0.4278 -0.8671
vn -0.0886 -0.4340 -0.8966
vn -0.0865 -0.2564 -0.9627
vn -0.0848 -0.0848 -0.9928
vn -0.0848 0.0848 -0.9928
vn -0.0865 0.2564 -0.9627
vn -0.0886 0.4340 -0.8966
vn 0.0886 -0.4340 -0.8966
vn 0.0865 -0.2564 -0.9627
vn 0.0848 -0.0848 -0.9928
vn 0.0848 0.0848 -0.9928
vn 0.0865 0.2564 -0.9627
vn 0.0886 0.4340 -0.8966
vn 0.2552 -0.4278 -0.8671
vn 0.2567 -0.2567 -0.9318
vn 0.2564 -0.0865 -0.9627
vn 0.2564 0.0865 -0.9627
vn 0.2567 0.2567 -0.9318
vn 0.2552 0.4278 -0.8671
vn 0.4151 -0.4151 -0.8096
vn 0.4278 -0.2552 -0.8671
vn 0.4340 -0.0886 -0.8966
vn 0.4340 0.0886 -0.8966
vn 0.4278 0.2552 -0.8671
vn 0.4151 0.4151 -0.8096
vn -0.5325 -0.5325 -0.6579
vn -0.5734 -0.4007 -0.7146
vn -0.6011 -0.2532 -0.7580
vn -0.6161 -0.0901 -0.7825
vn -0.6161 0.0901 -0.7825
vn -0.6011 0.2532 -0.7580
vn -0.5734 0.4007 -0.7146
vn -0.5325 0.5325 -0.6579
vn -0.4007 0.5734 -0.7146
vn -0.2532 0.6011 -0.7580
vn -0.0901 0.6161 -0.7825
vn 0.0901 0.6161 -0.7825
vn 0.2532 0.6011 -0.7580
vn 0.4007 0.5734 -0.7146
vn 0.5325 0.5325 -0.6579
vn 0.5734 0.4007 -0.7146
vn 0.6011 0.2532 -0.7580
vn 0.6161 0.0901 -0.7825
vn 0.6161 -0.0901 -0.7825
vn 0.6011 -0.2532 -0.7580
vn 0.5734 -0.4007 -0.7146
vn 0.5325 -0.5325 -0.6579
vn 0.4007 -0.5734 -0.7146
vn 0.2532 -0.6011 -0.7580
vn 0.0901 -0.6161 -0.7825
vn -0.0901 -0.6161 -0.7825
vn -0.2532 -0.6011 -0.7580
vn -0.4007 -0.5734 -0.7146
vn 0.8096 -0.4151 -0.4151
vn 0.8671 -0.2552 -0.4278
vn 0.8966 -0.0886 -0.4340
vn 0.8966 0.0886 -0.4340
vn 0.8671 0.2552 -0.4278
vn 0.8096 0.4151 -0.4151
vn 0.8671 -0.4278 -0.2552
vn 0.9318 -0.2567 -0.2567
vn 0.9627 -0.0865 -0.2564
vn 0.9627 0.0865 -0.2564
vn 0.9318 0.2567 -0.2567
vn 0.8671 0.4278 -0.2552
vn 0.8966 -0.4340 -0.0886
vn 0.9627 -0.2564 -0.0865
vn 0.9928 -0.0848 -0.0848
vn 0.9928 0.0848 -0.0848
vn 0.9627 0.2564 -0.0865
vn 0.8966 0.4340 -0.0886
vn 0.8966 -0.4340 0.0886
vn 0.9627 -0.2564 0.0865
vn 0.9928 -0.0848 0.0848
vn 0.9928 0.0848 0.0848
vn 0.9627 0.2564 0.0865
vn 0.8966 0.4340 0.0886
vn 0.8671 -0.4278 0.2552
vn 0.9318 -0.2567 0.2567
vn 0.9627 -0.0865 0.2564
vn 0.9627 0.0865 0.2564
vn 0.9318 0.2567 0.2567
vn 0.8671 0.4278 0.2552
vn 0.8096 -0.4151 0.4151
vn 0.8671 -0.2552 0.4278
vn 0.8966 -0.0886 0.4340
vn 0.8966 0.0886 0.4340
vn 0.8671 0.2552 0.4278
vn 0.8096 0.4151 0.4151
vn 0.6579 -0.5325 -0.5325
vn 0.7146 -0.4007 -0.5734
vn 0.7580 -0.2532 -0.6011
vn 0.7825 -0.0901 -0.6161
vn 0.7825 0.0901 -0.6161
vn 0.7580 0.2532 -0.6011
vn 0.7146 0.4007 -0.5734
vn 0.6579 0.5325 -0.5325
vn 0.7146 0.5734 -0.4007
vn 0.7580 0.6011 -0.2532
vn 0.7825 0.6161 -0.0901
vn 0.7825 0.6161 0.0901
vn 0.7580 0.6011 0.2532
vn 0.7146 0.5734 0.4007
vn 0.6579 0.5325 0.5325
vn 0.7146 0.4007 0.5734
vn 0.7580 0.2532 0.6011
vn 0.7825 0.0901 0.6161
vn 0.7825 -0.0901 0.6161
vn 0.7580 -0.2532 0.6011
vn 0.7146 -0.4007 0.5734
vn 0.6579 -0.5325 0.5325
vn 0.7146 -0.5734 0.4007
vn 0.7580 -0.6011 0.2532
vn 0.7825 -0.6161 0.0901
vn 0.7825 -0.6162 -0.0901
vn 0.7580 -0.6011 -0.2532
vn 0.7146 -0.5734 -0.4007
vn 0.4151 -0.4151 0.8096
vn 0.4278 -0.2552 0.8671
vn 0.4340 -0.0886 0.8966
vn 0.4340 0.0886 0.8966
vn 0.4278 0.2552 0.8671
vn 0.4151 0.4151 0.8096
vn 0.2552 -0.4278 0.8671
vn 0.2567 -0.2567 0.9318
vn 0.2564 -0.0865 0.9627
vn 0.2564 0.0865 0.9627
vn 0.2567 0.2567 0.9318
vn 0.2552 0.4278 0.8671
vn 0.0886 -0.4340 0.8966
vn 0.0865 -0.2564 0.9627
vn 0.0848 -0.0848 0.9928
vn 0.0848 0.0848 0.9928
vn 0.0865 0.2564 0.9627
vn 0.0886 0.4340 0.8966
vn -0.0886 -0.4340 0.8966
vn -0.0865 -0.2564 0.9627
vn -0.0848 -0.0848 0.9928
vn -0.0848 0.0848 0.9928
vn -0.0865 0.2564 0.9627
vn -0.0886 0.4340 0.8966
vn -0.2552 -0.4278 0.8671
vn -0.2567 -0.2567 0.9318
vn -0.2564 -0.0865 0.9627
vn -0.2564 0.0865 0.9627
vn -0.2567 0.2567 0.9318
vn -0.2552 0.4278 0.8671
vn -0.4151 -0.4151 0.8096
vn -0.4278 -0.2552 0.8671
vn -0.4340 -0.0886 0.8966
vn -0.4340 0.0886 0.8966
vn -0.4278 0.2552 0.8671
vn -0.4151 0.4151 0.8096
vn 0.5325 -0.5325 0.6579
vn 0.5734 -0.4007 0.7146
vn 0.6011 -0.2532 0.7580
vn 0.6161 -0.0901 0.7825
vn 0.6161 0.0901 0.7825
vn 0.6011 0.2532 0.7580
vn 0.5734 0.4007 0.7146
vn 0.5325 0.5325 0.6579
vn 0.4007 0.5734 0.7146
vn 0.2532 0.6011 0.7580
vn 0.0901 0.6161 0.7825
vn -0.0901 0.6161 0.7825
vn -0.2532 0.6011 0.7580
vn -0.4007 0.5734 0.7146
vn -0.5325 0.5325 0.6579
vn -0.5734 0.4007 0.7146
vn -0.6011 0.2532 0.7580
vn -0.6161 0.0901 0.7825
vn -0.6162 -0.0901 0.7825
vn -0.6011 -0.2532 0.7580
vn -0.5734 -0.4007 0.7146
vn -0.5325 -0.5325 0.6579
vn -0.4007 -0.5734 0.7146
vn -0.2532 -0.6011 0.7580
vn -0.0901 -0.6161 0.7825
vn 0.0901 -0.6161 0.7825
vn 0.2532 -0.6011 0.7580
vn 0.4007 -0.5734 0.7146
vn -0.4151 -0.8096 -0.4151
vn -0.2552 -0.8671 -0.4278
vn -0.0886 -0.8966 -0.4340
vn 0.0886 -0.8966 -0.4340
vn 0.2552 -0.8671 -0.4278
vn 0.4151 -0.8096 -0.4151
vn -0.4278 -0.8671 -0.2552
vn -0.2567 -0.9318 -0.2567
vn -0.0865 -0.9627 -0.2564
vn 0.0865 -0.9627 -0.2564
vn 0.2567 -0.9318 -0.2567
vn 0.4278 -0.8671 -0.2552
vn -0.4340 -0.8966 -0.0886
vn -0.2564 -0.9627 -0.0865
vn -0.0848 -0.9928 -0.0848
vn 0.0848 -0.9928 -0.0848
vn 0.2564 -0.9627 -0.0865
vn 0.4340 -0.8966 -0.0886
vn -0.4340 -0.8966 0.0886
vn -0.2564 -0.9627 0.0865
vn -0.0848 -0.9928 0.0848
vn 0.0848 -0.9928 0.0848
vn 0.2564 -0.9627 0.0865
vn 0.4340 -0.8966 0.0886
vn -0.4278 -0.8671 0.2552
vn -0.2567 -0.9318 0.2567
vn -0.0865 -0.9627 0.2564
vn 0.0865 -0.9627 0.2564
vn 0.2567 -0.9318 0.2567
vn 0.4278 -0.8671 0.2552
vn -0.4151 -0.8096 0.4151
vn -0.2552 -0.8671 0.4278
vn -0.0886 -0.8966 0.4340
vn 0.0886 -0.8966 0.4340
vn 0.2552 -0.8671 0.4278
vn 0.4151 -0.8096 0.4151
vn -0.5325 -0.6579 -0.5325
vn -0.4007 -0.7146 -0.5734
vn -0.2532 -0.7580 -0.6011
vn -0.0901 -0.7825 -0.6161
vn 0.0901 -0.7825 -0.6161
vn 0.2532 -0.7580 -0.6011
vn 0.4007 -0.7146 -0.5734
vn 0.5325 -0.6579 -0.5325
vn 0.5734 -0.7146 -0.4007
vn 0.6011 -0.7580 -0.2532
vn 0.6161 -0.7825 -0.0901
vn 0.6161 -0.7825 0.0901
vn 0.6011 -0.7580 0.2532
vn 0.5734 -0.7146 0.4007
vn 0.5325 -0.6579 0.5325
vn 0.4007 -0.7146 0.5734
vn 0.2532 -0.7580 0.6011
vn 0.0901 -0.7825 0.6161
vn -0.0901 -0.7825 0.6161
vn -0.2532 -0.7580 0.6011
vn -0.4007 -0.7146 0.5734
vn -0.5325 -0.6579 0.5325
vn -0.5734 -0.7146 0.4007
vn -0.6011 -0.7580 0.2532
vn -0.6161 -0.7825 0.0901
vn -0.6162 -0.7825 -0.0901
vn -0.6011 -0.7580 -0.2532
vn -0.5734 -0.7146 -0.4007
vn 0.4151 0.8096 -0.4151
vn 0.2552 0.8671 -0.4278
vn 0.0886 0.8966 -0.4340
vn -0.0886 0.8966 -0.4340
vn -0.2552 0.8671 -0.4278
vn -0.4151 0.8096 -0.4151
vn 0.4278 0.8671 -0.2552
vn 0.2567 0.9318 -0.2567
vn 0.0865 0.9627 -0.2564
vn -0.0865 0.9627 -0.2564
vn -0.2567 0.9318 -0.2567
vn -0.4278 0.8671 -0.2552
vn 0.4340 0.8966 -0.0886
vn 0.2564 0.9627 -0.0865
vn -0.2564 0.9627 -0.0865
vn -0.4340 0.8966 -0.0886
vn 0.4340 0.8966 0.0886
vn 0.2564 0.9627 0.0865
vn -0.2564 0.9627 0.0865
vn -0.4340 0.8966 0.0886
vn 0.4278 0.8671 0.2552
vn 0.2567 0.9318 0.2567
vn 0.0865 0.9627 0.2564
vn -0.0865 0.9627 0.2564
vn -0.2567 0.9318 0.2567
vn -0.4278 0.8671 0.2552
vn 0.4151 0.8096 0.4151
vn 0.2552 0.8671 0.4278
vn 0.0886 0.8966 0.4340
vn -0.0886 0.8966 0.4340
vn -0.2552 0.8671 0.4278
vn -0.4151 0.8096 0.4151
vn 0.5325 0.6579 -0.5325
vn 0.4007 0.7146 -0.5734
vn 0.2532 0.7580 -0.6011
vn 0.0901 0.7825 -0.6161
vn -0.0901 0.7825 -0.6161
vn -0.2532 0.7580 -0.6011
vn -0.4007 0.7146 -0.5734
vn -0.5325 0.6579 -0.5325
vn -0.5734 0.7146 -0.4007
vn -0.6011 0.7580 -0.2532
vn -0.6161 0.7825 -0.0901
vn -0.6161 0.7825 0.0901
vn -0.6011 0.7580 0.2532
vn -0.5734 0.7146 0.4007
vn -0.5325 0.6579 0.5325
vn -0.4007 0.7146 0.5734
vn -0.2532 0.7580 0.6011
vn -0.0901 0.7825 0.6161
vn 0.0901 0.7825 0.6161
vn 0.2532 0.7580 0.6011
vn 0.4007 0.7146 0.5734
vn 0.5325 0.6579 0.5325
vn 0.5734 0.7146 0.4007
vn 0.6011 0.7580 0.2532
vn 0.6161 0.7825 0.0901
vn 0.6161 0.7825 -0.0901
vn 0.6011 0.7580 -0.2532
vn 0.5734 0.7146 -0.4007
vn 0.0787 -0.9914 -0.1043
vn 0.1043 -0.9914 -0.0788
vn 0.1043 -0.9914 0.0788
vn 0.0788 -0.9914 0.1043
vn -0.0788 -0.9914 0.1043
vn -0.1043 -0.9914 0.0788
vn -0.1043 -0.9914 -0.0788
vn -0.0788 -0.9914 -0.1043
vt 1.000000 0.500000
vt 1.000000 1.000000
vt 0.937500 1.000000
vt 0.937500 0.500000
vt 0.875000 1.000000
vt 0.875000 0.500000
vt 0.812500 1.000000
vt 0.812500 0.500000
vt 0.750000 1.000000
vt 0.750000 0.500000
vt 0.687500 1.000000
vt 0.687500 0.500000
vt 0.625000 1.000000
vt 0.625000 0.500000
vt 0.562500 1.000000
vt 0.562500 0.500000
vt 0.500000 1.000000
vt 0.500000 0.500000
vt 0.437500 1.000000
vt 0.437500 0.500000
vt 0.375000 1.000000
vt 0.375000 0.500000
vt 0.312500 1.000000
vt 0.312500 0.500000
vt 0.250000 1.000000
vt 0.250000 0.500000
vt 0.187500 1.000000
vt 0.187500 0.500000
vt 0.125000 1.000000
vt 0.125000 0.500000
vt 0.341844 0.471731
vt 0.250000 0.490000
vt 0.158156 0.471731
vt 0.080294 0.419706
vt 0.028269 0.341844
vt 0.010000 0.250000
vt 0.028269 0.158156
vt 0.080294 0.080294
vt 0.158156 0.028269
vt 0.250000 0.010000
vt 0.341844 0.028269
vt 0.419706 0.080294
vt 0.471731 0.158156
vt 0.490000 0.250000
vt 0.471731 0.341844
vt 0.419706 0.419706
vt 0.062500 1.000000
vt 0.062500 0.500000
vt 0.000000 1.000000
vt 0.000000 0.500000
vt 0.750000 0.490000
vt 0.841844 0.471731
vt 0.919706 0.419706
vt 0.971731 0.341844
vt 0.990000 0.250000
vt 0.971731 0.158156
vt 0.919706 0.080294
vt 0.841844 0.028269
vt 0.750000 0.010000
vt 0.658156 0.028269
vt 0.580294 0.080294
vt 0.528269 0.158156
vt 0.510000 0.250000
vt 0.528269 0.341844
vt 0.580294 0.419706
vt 0.658156 0.471731
vt 0.125000 0.125000
vt 0.250000 0.125000
vt 0.250000 0.250000
vt 0.125000 0.250000
vt 0.375000 0.125000
vt 0.375000 0.250000
vt 0.500000 0.125000
vt 0.500000 0.250000
vt 0.625000 0.125000
vt 0.625000 0.250000
vt 0.750000 0.125000
vt 0.750000 0.250000
vt 0.875000 0.125000
vt 0.875000 0.250000
vt 0.250000 0.375000
vt 0.125000 0.375000
vt 0.375000 0.375000
vt 0.500000 0.375000
vt 0.625000 0.375000
vt 0.750000 0.375000
vt 0.875000 0.375000
vt 0.250000 0.500000
vt 0.125000 0.500000
vt 0.375000 0.500000
vt 0.500000 0.500000
vt 0.625000 0.500000
vt 0.750000 0.500000
vt 0.875000 0.500000
vt 0.250000 0.625000
vt 0.125000 0.625000
vt 0.375000 0.625000
vt 0.500000 0.625000
vt 0.625000 0.625000
vt 0.750000 0.625000
vt 0.875000 0.625000
vt 0.250000 0.750000
vt 0.125000 0.750000
vt 0.375000 0.750000
vt 0.500000 0.750000
vt 0.625000 0.750000
vt 0.750000 0.750000
vt 0.875000 0.750000
vt 0.250000 0.875000
vt 0.125000 0.875000
vt 0.375000 0.875000
vt 0.500000 0.875000
vt 0.625000 0.875000
vt 0.750000 0.875000
vt 0.875000 0.875000
vt 0.000000 0.000000
vt 0.125000 0.000000
vt 0.000000 0.125000
vt 0.250000 0.000000
vt 0.375000 0.000000
vt 0.500000 0.000000
vt 0.625000 0.000000
vt 0.750000 0.000000
vt 0.875000 0.000000
vt 1.000000 0.000000
vt 1.000000 0.125000
vt 1.000000 0.250000
vt 1.000000 0.375000
vt 1.000000 0.500000
vt 1.000000 0.625000
vt 1.000000 0.750000
vt 1.000000 0.875000
vt 1.000000 1.000000
vt 0.875000 1.000000
vt 0.750000 1.000000
vt 0.625000 1.000000
vt 0.500000 1.000000
vt 0.375000 1.000000
vt 0.250000 1.000000
vt 0.125000 1.000000
vt 0.000000 0.875000
vt 0.000000 1.000000
vt 0.000000 0.750000
vt 0.000000 0.625000
vt 0.000000 0.500000
vt 0.000000 0.375000
vt 0.000000 0.250000
s 1
usemtl DiscoBall
f 1/51/18 3/52/18 5/53/18 7/54/18 9/55/18 11/56/18 13/57/18 15/58/18 17/59/18 19/60/18 21/61/18 23/62/18 25/63/18 27/64/18 29/65/18 31/66/18
f 125/67/19 126/68/19 133/69/19 132/70/19
f 126/68/20 127/71/20 134/72/20 133/69/20
f 127/71/21 128/73/21 135/74/21 134/72/21
f 128/73/22 129/75/22 136/76/22 135/74/22
f 129/75/23 130/77/23 137/78/23 136/76/23
f 130/77/24 131/79/24 138/80/24 137/78/24
f 132/70/25 133/69/25 140/81/25 139/82/25
f 133/69/26 134/72/26 141/83/26 140/81/26
f 134/72/27 135/74/27 142/84/27 141/83/27
f 135/74/28 136/76/28 143/85/28 142/84/28
f 136/76/29 137/78/29 144/86/29 143/85/29
f 137/78/30 138/80/30 145/87/30 144/86/30
f 139/82/31 140/81/31 147/88/31 146/89/31
f 140/81/32 141/83/32 148/90/32 147/88/32
f 141/83/33 142/84/33 149/91/33 148/90/33
f 142/84/34 143/85/34 150/92/34 149/91/34
f 143/85/35 144/86/35 151/93/35 150/92/35
f 144/86/36 145/87/36 152/94/36 151/93/36
f 146/89/37 147/88/37 154/95/37 153/96/37
f 147/88/38 148/90/38 155/97/38 154/95/38
f 148/90/39 149/91/39 156/98/39 155/97/39
f 149/91/40 150/92/40 157/99/40 156/98/40
f 150/92/41 151/93/41 158/100/41 157/99/41
f 151/93/42 152/94/42 159/101/42 158/100/42
f 153/96/43 154/95/43 161/102/43 160/103/43
f 154/95/44 155/97/44 162/104/44 161/102/44
f 155/97/45 156/98/45 163/105/45 162/104/45
f 156/98/46 157/99/46 164/106/46 163/105/46
f 157/99/47 158/100/47 165/107/47 164/106/47
f 158/100/48 159/101/48 166/108/48 165/107/48
f 160/103/49 161/102/49 168/109/49 167/110/49
f 161/102/50 162/104/50 169/111/50 168/109/50
f 162/104/51 163/105/51 170/112/51 169/111/51
f 163/105/52 164/106/52 171/113/52 170/112/52
f 164/106/53 165/107/53 172/114/53 171/113/53
f 165/107/54 166/108/54 173/115/54 172/114/54
f 33/116/55 48/117/55 125/67/55 47/118/55
f 48/117/56 49/119/56 126/68/56 125/67/56
f 49/119/57 50/120/57 127/71/57 126/68/57
f 50/120/58 51/121/58 128/73/58 127/71/58
f 51/121/59 52/122/59 129/75/59 128/73/59
f 52/122/60 53/123/60 130/77/60 129/75/60
f 53/123/61 54/124/61 131/79/61 130/77/61
f 54/124/62 34/125/62 55/126/62 131/79/62
f 131/79/63 55/126/63 56/127/63 138/80/63
f 138/80/64 56/127/64 57/128/64 145/87/64
f 145/87/65 57/128/65 58/129/65 152/94/65
f 152/94/66 58/129/66 59/130/66 159/101/66
f 159/101/67 59/130/67 60/131/67 166/108/67
f 166/108/68 60/131/68 61/132/68 173/115/68
f 173/115/69 61/132/69 36/133/69 62/134/69
f 172/114/70 173/115/70 62/134/70 63/135/70
f 171/113/71 172/114/71 63/135/71 64/136/71
f 170/112/72 171/113/72 64/136/72 65/137/72
f 169/111/73 170/112/73 65/137/73 66/138/73
f 168/109/74 169/111/74 66/138/74 67/139/74
f 167/110/75 168/109/75 67/139/75 68/140/75
f 41/141/76 167/110/76 68/140/76 35/142/76
f 42/143/77 160/103/77 167/110/77 41/141/77
f 43/144/78 153/96/78 160/103/78 42/143/78
f 44/145/79 146/89/79 153/96/79 43/144/79
f 45/146/80 139/82/80 146/89/80 44/145/80
f 46/147/81 132/70/81 139/82/81 45/146/81
f 47/118/82 125/67/82 132/70/82 46/147/82
f 174/67/83 175/68/83 182/69/83 181/70/83
f 175/68/84 176/71/84 183/72/84 182/69/84
f 176/71/85 177/73/85 184/74/85 183/72/85
f 177/73/86 178/75/86 185/76/86 184/74/86
f 178/75/87 179/77/87 186/78/87 185/76/87
f 179/77/88 180/79/88 187/80/88 186/78/88
f 181/70/89 182/69/89 189/81/89 188/82/89
f 182/69/90 183/72/90 190/83/90 189/81/90
f 183/72/91 184/74/91 191/84/91 190/83/91
f 184/74/92 185/76/92 192/85/92 191/84/92
f 185/76/93 186/78/93 193/86/93 192/85/93
f 186/78/94 187/80/94 194/87/94 193/86/94
f 188/82/95 189/81/95 196/88/95 195/89/95
f 189/81/96 190/83/96 197/90/96 196/88/96
f 190/83/97 191/84/97 198/91/97 197/90/97
f 191/84/98 192/85/98 199/92/98 198/91/98
f 192/85/99 193/86/99 200/93/99 199/92/99
f 193/86/100 194/87/100 201/94/100 200/93/100
f 195/89/101 196/88/101 203/95/101 202/96/101
f 196/88/102 197/90/102 204/97/102 203/95/102
f 197/90/103 198/91/103 205/98/103 204/97/103
f 198/91/104 199/92/104 206/99/104 205/98/104
f 199/92/105 200/93/105 207/100/105 206/99/105
f 200/93/106 201/94/106 208/101/106 207/100/106
f 202/96/107 203/95/107 210/102/107 209/103/107
f 203/95/108 204/97/108 211/104/108 210/102/108
f 204/97/109 205/98/109 212/105/109 211/104/109
f 205/98/110 206/99/110 213/106/110 212/105/110
f 206/99/111 207/100/111 214/107/111 213/106/111
f 207/100/112 208/101/112 215/108/112 214/107/112
f 209/103/113 210/102/113 217/109/113 216/110/113
f 210/102/114 211/104/114 218/111/114 217/109/114
f 211/104/115 212/105/115 219/112/115 218/111/115
f 212/105/116 213/106/116 220/113/116 219/112/116
f 213/106/117 214/107/117 221/114/117 220/113/117
f 214/107/118 215/108/118 222/115/118 221/114/118
f 35/116/119 68/117/119 174/67/119 75/118/119
f 68/117/120 67/119/120 175/68/120 174/67/120
f 67/119/121 66/120/121 176/71/121 175/68/121
f 66/120/122 65/121/122 177/73/122 176/71/122
f 65/121/123 64/122/123 178/75/123 177/73/123
f 64/122/124 63/123/124 179/77/124 178/75/124
f 63/123/125 62/124/125 180/79/125 179/77/125
f 62/124/126 36/125/126 76/126/126 180/79/126
f 180/79/127 76/126/127 77/127/127 187/80/127
f 187/80/128 77/127/128 78/128/128 194/87/128
f 194/87/129 78/128/129 79/129/129 201/94/129
f 201/94/130 79/129/130 80/130/130 208/101/130
f 208/101/131 80/130/131 81/131/131 215/108/131
f 215/108/132 81/131/132 82/132/132 222/115/132
f 222/115/133 82/132/133 40/133/133 83/134/133
f 221/114/134 222/115/134 83/134/134 84/135/134
f 220/113/135 221/114/135 84/135/135 85/136/135
f 219/112/136 220/113/136 85/136/136 86/137/136
f 218/111/137 219/112/137 86/137/137 87/138/137
f 217/109/138 218/111/138 87/138/138 88/139/138
f 216/110/139 217/109/139 88/139/139 89/140/139
f 69/141/140 216/110/140 89/140/140 39/142/140
f 70/143/141 209/103/141 216/110/141 69/141/141
f 71/144/142 202/96/142 209/103/142 70/143/142
f 72/145/143 195/89/143 202/96/143 71/144/143
f 73/146/144 188/82/144 195/89/144 72/145/144
f 74/147/145 181/70/145 188/82/145 73/146/145
f 75/118/146 174/67/146 181/70/146 74/147/146
f 223/67/147 224/68/147 231/69/147 230/70/147
f 224/68/148 225/71/148 232/72/148 231/69/148
f 225/71/149 226/73/149 233/74/149 232/72/149
f 226/73/150 227/75/150 234/76/150 233/74/150
f 227/75/151 228/77/151 235/78/151 234/76/151
f 228/77/152 229/79/152 236/80/152 235/78/152
f 230/70/153 231/69/153 238/81/153 237/82/153
f 231/69/154 232/72/154 239/83/154 238/81/154
f 232/72/155 233/74/155 240/84/155 239/83/155
f 233/74/156 234/76/156 241/85/156 240/84/156
f 234/76/157 235/78/157 242/86/157 241/85/157
f 235/78/158 236/80/158 243/87/158 242/86/158
f 237/82/159 238/81/159 245/88/159 244/89/159
f 238/81/160 239/83/160 246/90/160 245/88/160
f 239/83/161 240/84/161 247/91/161 246/90/161
f 240/84/162 241/85/162 248/92/162 247/91/162
f 241/85/163 242/86/163 249/93/163 248/92/163
f 242/86/164 243/87/164 250/94/164 249/93/164
f 244/89/165 245/88/165 252/95/165 251/96/165
f 245/88/166 246/90/166 253/97/166 252/95/166
f 246/90/167 247/91/167 254/98/167 253/97/167
f 247/91/168 248/92/168 255/99/168 254/98/168
f 248/92/169 249/93/169 256/100/169 255/99/169
f 249/93/170 250/94/170 257/101/170 256/100/170
f 251/96/171 252/95/171 259/102/171 258/103/171
f 252/95/172 253/97/172 260/104/172 259/102/172
f 253/97/173 254/98/173 261/105/173 260/104/173
f 254/98/174 255/99/174 262/106/174 261/105/174
f 255/99/175 256/100/175 263/107/175 262/106/175
f 256/100/176 257/101/176 264/108/176 263/107/176
f 258/103/177 259/102/177 266/109/177 265/110/177
f 259/102/178 260/104/178 267/111/178 266/109/178
f 260/104/179 261/105/179 268/112/179 267/111/179
f 261/105/180 262/106/180 269/113/180 268/112/180
f 262/106/181 263/107/181 270/114/181 269/113/181
f 263/107/182 264/108/182 271/115/182 270/114/182
f 39/116/183 89/117/183 223/67/183 96/118/183
f 89/117/184 88/119/184 224/68/184 223/67/184
f 88/119/185 87/120/185 225/71/185 224/68/185
f 87/120/186 86/121/186 226/73/186 225/71/186
f 86/121/187 85/122/187 227/75/187 226/73/187
f 85/122/188 84/123/188 228/77/188 227/75/188
f 84/123/189 83/124/189 229/79/189 228/77/189
f 83/124/190 40/125/190 97/126/190 229/79/190
f 229/79/191 97/126/191 98/127/191 236/80/191
f 236/80/192 98/127/192 99/128/192 243/87/192
f 243/87/193 99/128/193 100/129/193 250/94/193
f 250/94/194 100/129/194 101/130/194 257/101/194
f 257/101/195 101/130/195 102/131/195 264/108/195
f 264/108/196 102/131/196 103/132/196 271/115/196
f 271/115/197 103/132/197 38/133/197 104/134/197
f 270/114/198 271/115/198 104/134/198 105/135/198
f 269/113/199 270/114/199 105/135/199 106/136/199
f 268/112/200 269/113/200 106/136/200 107/137/200
f 267/111/201 268/112/201 107/137/201 108/138/201
f 266/109/202 267/111/202 108/138/202 109/139/202
f 265/110/203 266/109/203 109/139/203 110/140/203
f 90/141/204 265/110/204 110/140/204 37/142/204
f 91/143/205 258/103/205 265/110/205 90/141/205
f 92/144/206 251/96/206 258/103/206 91/143/206
f 93/145/207 244/89/207 251/96/207 92/144/207
f 94/146/208 237/82/208 244/89/208 93/145/208
f 95/147/209 230/70/209 237/82/209 94/146/209
f 96/118/210 223/67/210 230/70/210 95/147/210
f 272/67/211 273/68/211 280/69/211 279/70/211
f 273/68/212 274/71/212 281/72/212 280/69/212
f 274/71/213 275/73/213 282/74/213 281/72/213
f 275/73/214 276/75/214 283/76/214 282/74/214
f 276/75/215 277/77/215 284/78/215 283/76/215
f 277/77/216 278/79/216 285/80/216 284/78/216
f 279/70/217 280/69/217 287/81/217 286/82/217
f 280/69/218 281/72/218 288/83/218 287/81/218
f 281/72/219 282/74/219 289/84/219 288/83/219
f 282/74/220 283/76/220 290/85/220 289/84/220
f 283/76/221 284/78/221 291/86/221 290/85/221
f 284/78/222 285/80/222 292/87/222 291/86/222
f 286/82/223 287/81/223 294/88/223 293/89/223
f 287/81/224 288/83/224 295/90/224 294/88/224
f 288/83/225 289/84/225 296/91/225 295/90/225
f 289/84/226 290/85/226 297/92/226 296/91/226
f 290/85/227 291/86/227 298/93/227 297/92/227
f 291/86/228 292/87/228 299/94/228 298/93/228
f 293/89/229 294/88/229 301/95/229 300/96/229
f 294/88/230 295/90/230 302/97/230 301/95/230
f 295/90/231 296/91/231 303/98/231 302/97/231
f 296/91/232 297/92/232 304/99/232 303/98/232
f 297/92/233 298/93/233 305/100/233 304/99/233
f 298/93/234 299/94/234 306/101/234 305/100/234
f 300/96/235 301/95/235 308/102/235 307/103/235
f 301/95/236 302/97/236 309/104/236 308/102/236
f 302/97/237 303/98/237 310/105/237 309/104/237
f 303/98/238 304/99/238 311/106/238 310/105/238
f 304/99/239 305/100/239 312/107/239 311/106/239
f 305/100/240 306/101/240 313/108/240 312/107/240
f 307/103/241 308/102/241 315/109/241 314/110/241
f 308/102/242 309/104/242 316/111/242 315/109/242
f 309/104/243 310/105/243 317/112/243 316/111/243
f 310/105/244 311/106/244 318/113/244 317/112/244
f 311/106/245 312/107/245 319/114/245 318/113/245
f 312/107/246 313/108/246 320/115/246 319/114/246
f 37/116/247 110/117/247 272/67/247 117/118/247
f 110/117/248 109/119/248 273/68/248 272/67/248
f 109/119/249 108/120/249 274/71/249 273/68/249
f 108/120/250 107/121/250 275/73/250 274/71/250
f 107/121/251 106/122/251 276/75/251 275/73/251
f 106/122/252 105/123/252 277/77/252 276/75/252
f 105/123/253 104/124/253 278/79/253 277/77/253
f 104/124/254 38/125/254 118/126/254 278/79/254
f 278/79/255 118/126/255 119/127/255 285/80/255
f 285/80/256 119/127/256 120/128/256 292/87/256
f 292/87/257 120/128/257 121/129/257 299/94/257
f 299/94/258 121/129/258 122/130/258 306/101/258
f 306/101/259 122/130/259 123/131/259 313/108/259
f 313/108/260 123/131/260 124/132/260 320/115/260
f 320/115/261 124/132/261 34/133/261 54/134/261
f 319/114/262 320/115/262 54/134/262 53/135/262
f 318/113/263 319/114/263 53/135/263 52/136/263
f 317/112/264 318/113/264 52/136/264 51/137/264
f 316/111/265 317/112/265 51/137/265 50/138/265
f 315/109/266 316/111/266 50/138/266 49/139/266
f 314/110/267 315/109/267 49/139/267 48/140/267
f 111/141/268 314/110/268 48/140/268 33/142/268
f 112/143/269 307/103/269 314/110/269 111/141/269
f 113/144/270 300/96/270 307/103/270 112/143/270
f 114/145/271 293/89/271 300/96/271 113/144/271
f 115/146/272 286/82/272 293/89/272 114/145/272
f 116/147/273 279/70/273 286/82/273 115/146/273
f 117/118/274 272/67/274 279/70/274 116/147/274
f 321/67/275 322/68/275 329/69/275 328/70/275
f 322/68/276 323/71/276 330/72/276 329/69/276
f 323/71/277 324/73/277 331/74/277 330/72/277
f 324/73/278 325/75/278 332/76/278 331/74/278
f 325/75/279 326/77/279 333/78/279 332/76/279
f 326/77/280 327/79/280 334/80/280 333/78/280
f 328/70/281 329/69/281 336/81/281 335/82/281
f 329/69/282 330/72/282 337/83/282 336/81/282
f 330/72/283 331/74/283 338/84/283 337/83/283
f 331/74/284 332/76/284 339/85/284 338/84/284
f 332/76/285 333/78/285 340/86/285 339/85/285
f 333/78/286 334/80/286 341/87/286 340/86/286
f 335/82/287 336/81/287 343/88/287 342/89/287
f 336/81/288 337/83/288 344/90/288 343/88/288
f 337/83/289 338/84/289 345/91/289 344/90/289
f 338/84/290 339/85/290 346/92/290 345/91/290
f 339/85/291 340/86/291 347/93/291 346/92/291
f 340/86/292 341/87/292 348/94/292 347/93/292
f 342/89/293 343/88/293 350/95/293 349/96/293
f 343/88/294 344/90/294 351/97/294 350/95/294
f 344/90/295 345/91/295 352/98/295 351/97/295
f 345/91/296 346/92/296 353/99/296 352/98/296
f 346/92/297 347/93/297 354/100/297 353/99/297
f 347/93/298 348/94/298 355/101/298 354/100/298
f 349/96/299 350/95/299 357/102/299 356/103/299
f 350/95/300 351/97/300 358/104/300 357/102/300
f 351/97/301 352/98/301 359/105/301 358/104/301
f 352/98/302 353/99/302 360/106/302 359/105/302
f 353/99/303 354/100/303 361/107/303 360/106/303
f 354/100/304 355/101/304 362/108/304 361/107/304
f 356/103/305 357/102/305 364/109/305 363/110/305
f 357/102/306 358/104/306 365/111/306 364/109/306
f 358/104/307 359/105/307 366/112/307 365/111/307
f 359/105/308 360/106/308 367/113/308 366/112/308
f 360/106/309 361/107/309 368/114/309 367/113/309
f 361/107/310 362/108/310 369/115/310 368/114/310
f 35/116/311 75/117/311 321/67/311 41/118/311
f 75/117/312 74/119/312 322/68/312 321/67/312
f 74/119/313 73/120/313 323/71/313 322/68/313
f 73/120/314 72/121/314 324/73/314 323/71/314
f 72/121/315 71/122/315 325/75/315 324/73/315
f 71/122/316 70/123/316 326/77/316 325/75/316
f 70/123/317 69/124/317 327/79/317 326/77/317
f 69/124/318 39/125/318 96/126/318 327/79/318
f 327/79/319 96/126/319 95/127/319 334/80/319
f 334/80/320 95/127/320 94/128/320 341/87/320
f 341/87/321 94/128/321 93/129/321 348/94/321
f 348/94/322 93/129/322 92/130/322 355/101/322
f 355/101/323 92/130/323 91/131/323 362/108/323
f 362/108/324 91/131/324 90/132/324 369/115/324
f 369/115/325 90/132/325 37/133/325 117/134/325
f 368/114/326 369/115/326 117/134/326 116/135/326
f 367/113/327 368/114/327 116/135/327 115/136/327
f 366/112/328 367/113/328 115/136/328 114/137/328
f 365/111/329 366/112/329 114/137/329 113/138/329
f 364/109/330 365/111/330 113/138/330 112/139/330
f 363/110/331 364/109/331 112/139/331 111/140/331
f 47/141/332 363/110/332 111/140/332 33/142/332
f 46/143/333 356/103/333 363/110/333 47/141/333
f 45/144/334 349/96/334 356/103/334 46/143/334
f 44/145/335 342/89/335 349/96/335 45/144/335
f 43/146/336 335/82/336 342/89/336 44/145/336
f 42/147/337 328/70/337 335/82/337 43/146/337
f 41/118/338 321/67/338 328/70/338 42/147/338
f 370/67/339 371/68/339 378/69/339 377/70/339
f 371/68/340 372/71/340 379/72/340 378/69/340
f 372/71/341 373/73/341 380/74/341 379/72/341
f 373/73/342 374/75/342 381/76/342 380/74/342
f 374/75/343 375/77/343 382/78/343 381/76/343
f 375/77/344 376/79/344 383/80/344 382/78/344
f 377/70/345 378/69/345 385/81/345 384/82/345
f 378/69/346 379/72/346 386/83/346 385/81/346
f 379/72/347 380/74/347 387/84/347 386/83/347
f 380/74/348 381/76/348 388/85/348 387/84/348
f 381/76/349 382/78/349 389/86/349 388/85/349
f 382/78/350 383/80/350 390/87/350 389/86/350
f 384/82/351 385/81/351 392/88/351 391/89/351
f 385/81/352 386/83/352 393/90/352 392/88/352
f 388/85/353 389/86/353 395/93/353 394/92/353
f 389/86/354 390/87/354 396/94/354 395/93/354
f 391/89/355 392/88/355 398/95/355 397/96/355
f 392/88/356 393/90/356 399/97/356 398/95/356
f 394/92/357 395/93/357 402/100/357 401/99/357
f 395/93/358 396/94/358 403/101/358 402/100/358
f 397/96/359 398/95/359 405/102/359 404/103/359
f 398/95/360 399/97/360 406/104/360 405/102/360
f 399/97/361 400/98/361 407/105/361 406/104/361
f 400/98/362 401/99/362 408/106/362 407/105/362
f 401/99/363 402/100/363 409/107/363 408/106/363
f 402/100/364 403/101/364 410/108/364 409/107/364
f 404/103/365 405/102/365 412/109/365 411/110/365
f 405/102/366 406/104/366 413/111/366 412/109/366
f 406/104/367 407/105/367 414/112/367 413/111/367
f 407/105/368 408/106/368 415/113/368 414/112/368
f 408/106/369 409/107/369 416/114/369 415/113/369
f 409/107/370 410/108/370 417/115/370 416/114/370
f 40/116/371 82/117/371 370/67/371 97/118/371
f 82/117/372 81/119/372 371/68/372 370/67/372
f 81/119/373 80/120/373 372/71/373 371/68/373
f 80/120/374 79/121/374 373/73/374 372/71/374
f 79/121/375 78/122/375 374/75/375 373/73/375
f 78/122/376 77/123/376 375/77/376 374/75/376
f 77/123/377 76/124/377 376/79/377 375/77/377
f 76/124/378 36/125/378 61/126/378 376/79/378
f 376/79/379 61/126/379 60/127/379 383/80/379
f 383/80/380 60/127/380 59/128/380 390/87/380
f 390/87/381 59/128/381 58/129/381 396/94/381
f 396/94/382 58/129/382 57/130/382 403/101/382
f 403/101/383 57/130/383 56/131/383 410/108/383
f 410/108/384 56/131/384 55/132/384 417/115/384
f 417/115/385 55/132/385 34/133/385 124/134/385
f 416/114/386 417/115/386 124/134/386 123/135/386
f 415/113/387 416/114/387 123/135/387 122/136/387
f 414/112/388 415/113/388 122/136/388 121/137/388
f 413/111/389 414/112/389 121/137/389 120/138/389
f 412/109/390 413/111/390 120/138/390 119/139/390
f 411/110/391 412/109/391 119/139/391 118/140/391
f 103/141/392 411/110/392 118/140/392 38/142/392
f 102/143/393 404/103/393 411/110/393 103/141/393
f 101/144/394 397/96/394 404/103/394 102/143/394
f 100/145/395 391/89/395 397/96/395 101/144/395
f 99/146/396 384/82/396 391/89/396 100/145/396
f 98/147/397 377/70/397 384/82/397 99/146/397
f 97/118/398 370/67/398 377/70/398 98/147/398
f 17/116/399 400/116/399 401/116/399 21/116/399 19/116/399
f 21/116/400 401/116/400 394/116/400 25/116/400 23/116/400
f 25/116/401 394/116/401 388/116/401 29/116/401 27/116/401
f 29/116/402 388/116/402 387/116/402 1/116/402 31/116/402
f 1/116/403 387/116/403 386/116/403 5/116/403 3/116/403
f 5/116/404 386/116/404 393/116/404 9/116/404 7/116/404
f 9/116/405 393/116/405 399/116/405 13/116/405 11/116/405
f 13/116/406 399/116/406 400/116/406 17/116/406 15/116/406
usemtl DiscoRod
f 1/1/1 2/2/1 4/3/1 3/4/1
f 3/4/2 4/3/2 6/5/2 5/6/2
f 5/6/3 6/5/3 8/7/3 7/8/3
f 7/8/4 8/7/4 10/9/4 9/10/4
f 9/10/5 10/9/5 12/11/5 11/12/5
f 11/12/6 12/11/6 14/13/6 13/14/6
f 13/14/7 14/13/7 16/15/7 15/16/7
f 15/16/8 16/15/8 18/17/8 17/18/8
f 17/18/9 18/17/9 20/19/9 19/20/9
f 19/20/10 20/19/10 22/21/10 21/22/10
f 21/22/11 22/21/11 24/23/11 23/24/11
f 23/24/12 24/23/12 26/25/12 25/26/12
f 25/26/13 26/25/13 28/27/13 27/28/13
f 27/28/14 28/27/14 30/29/14 29/30/14
f 4/31/15 2/32/15 32/33/15 30/34/15 28/35/15 26/36/15 24/37/15 22/38/15 20/39/15 18/40/15 16/41/15 14/42/15 12/43/15 10/44/15 8/45/15 6/46/15
f 29/30/16 30/29/16 32/47/16 31/48/16
f 31/48/17 32/47/17 2/49/17 1/50/17
