# Blender 5.1.1
# www.blender.org
mtllib dj-desk.mtl
o cabinetTelevision
v 6.756322 0.990311 0.758079
v 6.756322 0.990311 0.683915
v 6.756322 1.064475 0.758079
v 6.756322 1.064475 0.683915
v 6.830486 0.990311 0.683915
v 6.830486 1.064475 0.683915
v 6.830486 0.990311 0.758079
v 6.366961 0.990311 0.758079
v 6.441125 0.990311 0.758079
v 6.366961 0.990311 0.683915
v 6.441125 0.990311 0.683915
v 6.441125 1.064475 0.683915
v 6.366961 1.064475 0.683915
v 6.441125 1.490918 0.683915
v 6.830486 1.490918 0.683915
v 6.441125 1.490918 -0.651037
v 6.737782 1.490918 0.034980
v 6.737782 1.490918 -0.002102
v 6.774863 1.490918 -0.002102
v 6.774863 1.490918 0.034980
v 6.830486 1.490918 -0.651037
v 6.441125 1.138639 0.683915
v 6.774863 1.138639 0.034980
v 6.830486 1.138639 0.683915
v 6.830486 1.138639 -0.651037
v 6.774863 1.138639 -0.002102
v 6.737782 1.138639 -0.002102
v 6.737782 1.138639 0.034980
v 6.441125 1.138639 -0.651037
v 6.441125 1.064475 0.758079
v 6.756322 0.990311 -0.651037
v 6.830486 0.990311 -0.651037
v 6.756322 0.990311 -0.725201
v 6.830486 0.990311 -0.725201
v 6.756322 1.064475 -0.651037
v 6.756322 1.064475 -0.725201
v 6.441125 1.064475 -0.651037
v 6.441125 0.990311 -0.651037
v 6.366961 1.064475 -0.651037
v 6.366961 0.990311 -0.651037
v 6.441125 0.990311 -0.725201
v 6.441125 1.064475 -0.725201
v 6.366961 0.990311 -0.725201
v 6.830486 1.565082 0.758079
v 6.366961 1.565082 0.758079
v 6.830486 1.565082 -0.725201
v 6.366961 1.565082 -0.725201
v 6.830486 1.064475 -0.651037
v 6.441125 1.296237 0.683915
v 6.774863 1.296237 0.683915
v 6.441125 1.296237 -0.651037
v 6.737782 1.296237 0.034980
v 6.737782 1.296237 -0.002102
v 6.774863 1.296237 -0.002102
v 6.774863 1.296237 -0.651037
v 6.774863 1.296237 0.034980
v 6.774863 1.333319 -0.002102
v 6.737782 1.333319 -0.002102
v 6.774863 1.333319 -0.651037
v 6.441125 1.333319 -0.651037
v 6.737782 1.333319 0.034980
v 6.441125 1.333319 0.683915
v 6.774863 1.333319 0.034980
v 6.774863 1.333319 0.683915
vn -0.5774 -0.5774 -0.5774
vn -0.5774 -0.5774 0.5774
vn -0.3015 -0.3015 0.9045
vn -0.3015 -0.9045 -0.3015
vn 0.9045 -0.3015 -0.3015
vn 0.5774 -0.5774 -0.5774
vn 0.5774 -0.5774 0.5773
vn -0.5773 -0.5774 -0.5773
vn 0.5773 -0.5773 -0.5774
vn -0.9045 -0.3015 -0.3015
vn 0.3015 -0.9045 -0.3015
vn 0.5774 -0.5774 -0.5773
vn 0.5774 -0.5773 0.5773
vn -0.3015 -0.9045 0.3015
vn -0.0000 -0.9487 -0.3162
vn -0.0000 -0.9487 0.3162
vn 0.9045 -0.3015 0.3015
vn -0.0000 0.9487 0.3162
vn 0.5774 0.5773 -0.5773
vn 0.9045 0.3015 -0.3015
vn 0.9045 0.3015 0.3015
vn -0.0000 0.9487 -0.3162
vn -0.3015 0.9045 -0.3015
vn -0.3015 0.9045 0.3015
vn 0.5774 0.5773 0.5773
vn 0.3015 -0.3015 0.9045
vn 0.5773 -0.5774 0.5774
vn -0.5774 -0.5774 -0.5773
vn -0.5774 -0.5773 0.5774
vn -0.3015 -0.3015 -0.9045
vn 0.5774 -0.5774 0.5774
vn -0.9045 -0.3015 0.3015
vn 0.3015 -0.3015 -0.9045
vn -0.5773 0.5773 0.5774
vn 0.5774 0.5773 -0.5774
vn -0.5773 0.5774 -0.5773
vn -0.0000 -0.3162 -0.9487
vn 0.5774 -0.5773 0.5774
vn -0.0000 -0.7071 -0.7071
vn -0.0000 -0.3162 0.9487
vn -0.0000 -0.7071 0.7071
vn -0.0000 0.7071 -0.7071
vn -0.0000 0.3162 0.9487
vn 0.5774 0.5773 0.5774
vn -0.0000 0.7071 0.7071
vn -0.0000 0.3162 -0.9487
vn -0.0000 -1.0000 -0.0000
vn -0.0000 -0.0000 -0.0000
vn -1.0000 -0.0000 -0.0000
vt -1.574803 -0.000000
vt 0.000000 -0.000000
vt 0.000000 1.574803
vt -1.574803 1.574803
vt 0.000000 0.000000
vt 1.574803 0.000000
vt 1.574803 1.574803
vt -1.574803 0.000000
vt 0.000000 8.267716
vt 0.000000 9.842520
vt -1.574803 9.842520
vt -1.574803 8.267716
vt 9.842520 1.574803
vt 8.267716 1.574803
vt 8.267716 0.000000
vt 9.842520 0.000000
vt -29.921261 8.267716
vt -15.354330 1.968504
vt -16.141729 1.968504
vt -16.141729 1.181102
vt -15.354330 1.181102
vt -29.921261 0.000000
vt 15.354330 1.181102
vt 1.574803 8.267716
vt 1.574803 0.000000
vt 29.921261 0.000000
vt 16.141729 1.181102
vt 16.141729 1.968504
vt 15.354330 1.968504
vt 29.921261 8.267716
vt 0.000000 0.000000
vt 1.574803 0.000000
vt -29.921261 0.000000
vt -29.921261 1.574803
vt -31.496059 1.574803
vt -31.496059 0.000000
vt -31.496059 0.000000
vt -29.921261 0.000000
vt -8.267716 0.000000
vt -8.267716 1.574803
vt -9.842520 1.574803
vt -9.842520 0.000000
vt 29.921261 0.000000
vt 31.496059 0.000000
vt 31.496059 1.574803
vt 29.921261 1.574803
vt -29.921261 9.842520
vt -31.496059 9.842520
vt -31.496059 8.267716
vt 31.496059 0.000000
vt 31.496059 9.842520
vt 0.000000 12.204720
vt -9.842520 12.204720
vt -8.267716 0.000000
vt -9.842520 0.000000
vt -1.574803 0.000000
vt -1.574803 0.000000
vt 0.000000 0.000000
vt -31.496059 12.204720
vt -31.496059 0.000000
vt -29.921261 0.000000
vt 0.000000 0.000000
vt 1.574803 0.000000
vt 9.842520 12.204720
vt 8.267716 0.000000
vt 9.842520 0.000000
vt 29.921261 0.000000
vt 31.496059 0.000000
vt 31.496059 12.204720
vt 29.921261 3.149606
vt 29.921261 10.629920
vt 1.574803 10.629920
vt 1.574803 3.149606
vt 1.574803 0.000000
vt -1.574803 1.181102
vt -29.921261 1.181102
vt 29.921261 1.181102
vt 1.574803 1.181102
vt 1.574803 7.283464
vt 29.921261 7.283464
vt 29.921261 6.496063
vt 1.574803 6.496063
vt -29.921261 -0.000000
vt -1.574803 -0.000000
vt -0.000000 1.574803
vt -0.000000 8.267716
vt -0.000000 0.000000
vt -1.574803 0.000000
vt -16.141729 7.283464
vt -15.354330 7.283464
vt -15.354330 10.629920
vt -16.141729 10.629920
vt -29.921261 7.283464
vt -1.574803 7.283464
vt -29.921261 6.496063
vt -16.141729 6.496063
vt -15.354330 6.496063
vt -1.574803 6.496063
vt -15.354330 3.149606
vt -16.141729 3.149606
vt 1.181102 6.496063
vt 0.000000 10.629920
vt 0.000000 3.149606
vt 8.267716 3.149606
vt 8.267716 6.496063
vt 1.181102 7.283464
vt 8.267716 10.629920
vt 8.267716 7.283464
vt -1.181102 7.283464
vt -8.267716 10.629920
vt -8.267716 7.283464
vt -1.181102 6.496063
vt -8.267716 3.149606
vt -8.267716 6.496063
vt 1.181102 10.629920
vt 1.968504 7.283464
vt 1.968504 10.629920
vt -1.181102 10.629920
vt -1.968504 10.629920
vt -1.968504 7.283464
vt -1.181102 3.149606
vt -1.968504 6.496063
vt -1.968504 3.149606
vt 1.181102 3.149606
vt 1.968504 3.149606
vt 1.968504 6.496063
s 1
usemtl wood.016
f 2/1/1 1/2/2 3/3/3
f 3/3/3 4/4/4 2/1/1
f 6/3/5 5/5/6 2/6/1
f 2/6/1 4/7/4 6/3/5
f 7/5/7 1/3/2 2/4/1
f 2/4/1 5/8/6 7/5/7
f 9/9/7 8/10/2 10/11/8
f 10/11/8 11/12/9 9/9/7
f 13/13/10 12/14/11 11/15/9
f 11/15/9 10/16/8 13/13/10
f 15/8/5 14/12/12 16/17/13
f 16/17/13 17/18/14 15/8/5
f 16/17/13 18/19/4 17/18/14
f 16/17/13 19/20/15 18/19/4
f 15/8/5 17/18/14 20/21/16
f 20/21/16 21/22/17 15/8/5
f 20/21/16 19/20/15 21/22/17
f 19/20/15 16/17/13 21/22/17
f 23/23/18 22/24/19 24/25/20
f 24/25/20 25/26/21 23/23/18
f 25/26/21 26/27/22 23/23/18
f 25/26/21 27/28/23 26/27/22
f 22/24/19 23/23/18 28/29/24
f 28/29/24 29/30/25 22/24/19
f 28/29/24 27/28/23 29/30/25
f 27/28/23 25/26/21 29/30/25
f 9/31/7 11/32/9 12/7/11
f 12/7/11 30/3/26 9/31/7
f 32/33/27 31/34/2 33/35/28
f 33/35/28 34/36/9 32/33/27
f 33/37/28 31/38/2 35/34/29
f 35/34/29 36/35/30 33/37/28
f 38/39/31 37/40/31 39/41/32
f 39/41/32 40/42/2 38/39/31
f 38/43/31 41/44/9 42/45/33
f 42/45/33 37/46/31 38/43/31
f 38/17/31 40/47/2 43/48/28
f 43/48/28 41/49/9 38/17/31
f 45/10/34 44/5/25 46/50/35
f 46/50/35 47/51/36 45/10/34
f 7/5/7 44/52/25 45/53/34
f 45/53/34 3/4/3 7/5/7
f 45/53/34 30/40/26 3/4/3
f 45/53/34 9/54/7 30/40/26
f 45/53/34 8/55/2 9/54/7
f 7/5/7 3/4/3 1/56/2
f 10/57/8 8/58/2 45/52/34
f 45/52/34 13/4/10 10/57/8
f 45/52/34 39/34/32 13/4/10
f 39/34/32 45/52/34 47/59/36
f 39/34/32 47/59/36 43/60/28
f 43/60/28 40/61/2 39/34/32
f 36/7/30 34/62/9 33/63/28
f 34/62/9 36/7/30 47/64/36
f 47/64/36 46/52/35 34/62/9
f 36/7/30 42/14/33 47/64/36
f 42/14/33 41/65/9 47/64/36
f 41/65/9 43/66/28 47/64/36
f 32/67/27 34/68/9 46/69/35
f 46/69/35 48/46/17 32/67/27
f 46/69/35 25/70/21 48/46/17
f 25/70/21 6/7/5 48/46/17
f 46/69/35 21/71/17 25/70/21
f 46/69/35 15/72/5 21/71/17
f 6/7/5 25/70/21 24/73/20
f 6/7/5 24/73/20 44/52/25
f 24/73/20 15/72/5 44/52/25
f 15/72/5 46/69/35 44/52/25
f 6/7/5 44/52/25 7/5/7
f 7/5/7 5/74/6 6/7/5
f 50/75/37 49/12/6 51/17/38
f 51/17/38 52/18/14 50/75/37
f 51/17/38 53/19/4 52/18/14
f 51/17/38 54/20/39 53/19/4
f 51/17/38 55/76/40 54/20/39
f 50/75/37 52/18/14 56/21/41
f 58/28/23 57/27/42 59/77/43
f 58/28/23 59/77/43 60/30/44
f 61/29/24 58/28/23 60/30/44
f 61/29/24 60/30/44 62/24/35
f 63/23/45 61/29/24 62/24/35
f 62/24/35 64/78/46 63/23/45
f 62/79/35 60/80/44 16/71/13
f 16/71/13 14/72/12 62/79/35
f 22/73/19 29/70/25 51/81/38
f 51/81/38 49/82/6 22/73/19
f 35/34/29 37/17/31 42/49/33
f 42/49/33 36/35/30 35/34/29
s 0
f 37/17/47 35/34/47 48/83/47
f 39/47/48 37/17/48 48/83/48
s 1
f 39/47/32 48/83/17 6/84/5
f 39/47/32 6/84/5 4/4/4
f 39/47/32 4/4/4 12/12/11
f 12/12/11 13/11/10 39/47/32
f 12/12/11 4/4/4 3/85/3
f 3/85/3 30/86/26 12/12/11
f 32/87/27 48/3/17 35/4/29
f 35/4/29 31/88/2 32/87/27
f 57/89/49 63/90/49 20/91/49
f 20/91/49 19/92/49 57/89/49
s 0
f 63/90/49 57/89/49 59/93/49
f 64/94/49 63/90/49 59/93/49
s 1
f 64/94/49 59/93/49 55/95/49
f 64/94/49 55/95/49 54/96/49
f 64/94/49 54/96/49 56/97/49
f 56/97/49 50/98/49 64/94/49
f 23/99/49 56/97/49 54/96/49
f 54/96/49 26/100/49 23/99/49
f 50/101/37 15/102/5 24/103/20
f 24/103/20 22/104/19 50/101/37
f 22/104/19 49/105/6 50/101/37
f 15/102/5 50/101/37 64/106/46
f 64/106/46 14/107/12 15/102/5
f 64/106/46 62/108/35 14/107/12
f 59/109/43 25/103/21 21/102/17
f 21/102/17 16/110/13 59/109/43
f 16/110/13 60/111/44 59/109/43
f 25/103/21 59/109/43 55/112/40
f 55/112/40 29/113/25 25/103/21
f 55/112/40 51/114/38 29/113/25
f 58/89/23 61/90/24 17/91/14
f 17/91/14 18/92/4 58/89/23
f 19/115/15 57/106/42 58/116/23
f 58/116/23 18/117/4 19/115/15
f 63/109/45 20/118/16 17/119/14
f 17/119/14 61/120/24 63/109/45
f 53/96/4 27/100/23 28/99/24
f 28/99/24 52/97/14 53/96/4
f 23/121/18 56/112/41 52/122/14
f 52/122/14 28/123/24 23/121/18
f 54/101/39 26/124/22 27/125/23
f 27/125/23 53/126/4 54/101/39
