# Blender 5.1.1
# www.blender.org
mtllib door.mtl
o doorway
v -10.006994 1.503312 0.701186
v -10.006994 0.000000 0.701186
v -9.870481 1.503312 0.701186
v -9.870481 0.000000 0.701186
v -9.870481 0.000000 -0.000000
v -9.870481 0.000000 0.043436
v -9.870481 1.546749 -0.000000
v -9.870481 1.503312 0.043436
v -9.870481 1.546749 0.744622
v -9.870481 0.000000 0.744622
v -10.006994 0.000000 0.043436
v -10.006994 1.503312 0.043436
v -10.006994 1.546749 0.000000
v -10.006994 0.000000 0.000000
v -10.006994 0.000000 0.744622
v -10.006994 1.546749 0.744622
v -9.969763 0.493781 0.167540
v -9.969763 0.493781 0.577082
v -9.951148 0.477779 0.188017
v -9.951148 0.477779 0.556605
v -9.969763 0.124104 0.167540
v -9.951148 0.140106 0.188017
v -9.926327 0.683254 0.188017
v -9.926327 0.683254 0.556605
v -9.926327 1.344865 0.188017
v -9.926327 1.344865 0.556605
v -9.907711 0.493781 0.167540
v -9.926327 0.477779 0.188017
v -9.907711 0.493781 0.577082
v -9.926327 0.477779 0.556605
v -9.907711 0.124104 0.577082
v -9.926327 0.140106 0.556605
v -9.969763 0.648911 0.577082
v -9.969763 0.648911 0.167540
v -9.951148 0.683254 0.556605
v -9.951148 0.683254 0.188017
v -9.951148 1.344865 0.556605
v -9.951148 1.344865 0.188017
v -9.969763 1.379208 0.577082
v -9.969763 1.379208 0.167540
v -9.969763 0.124104 0.577082
v -9.951148 0.140106 0.556605
v -9.907711 0.124104 0.167540
v -9.926327 0.140106 0.188017
v -9.907711 0.648911 0.167540
v -9.907711 1.379208 0.167540
v -9.907711 1.379208 0.577082
v -9.969763 0.000000 0.701186
v -9.969763 0.617885 0.667812
v -9.969763 1.503312 0.701186
v -9.969763 0.804040 0.667812
v -9.969763 0.804040 0.605760
v -9.969763 0.000000 0.043436
v -9.969763 1.503312 0.043436
v -9.969763 0.617885 0.605760
v -9.907711 0.648911 0.577082
v -9.907711 1.503312 0.043436
v -9.907711 0.000000 0.043436
v -9.907711 1.503312 0.701186
v -9.907711 0.804040 0.605054
v -9.907711 0.617885 0.605054
v -9.907711 0.804040 0.667105
v -9.907711 0.000000 0.701186
v -9.907711 0.617885 0.667105
v -9.982174 0.636500 0.661607
v -9.982174 0.785425 0.661607
v -9.895301 0.785425 0.611259
v -9.895301 0.636500 0.611259
v -9.851865 0.754399 0.530591
v -9.851865 0.754399 0.648490
v -9.870481 0.754399 0.530591
v -9.876685 0.754399 0.623669
v -9.895301 0.754399 0.623669
v -9.895301 0.754399 0.648490
v -9.895301 0.636500 0.660900
v -9.982174 0.636500 0.611965
v -9.982174 0.785425 0.611965
v -9.851865 0.729578 0.623669
v -9.851865 0.729578 0.648490
v -9.851865 0.741989 0.530591
v -10.000789 0.754399 0.624376
v -10.000789 0.729578 0.624376
v -9.982174 0.754399 0.624376
v -9.982174 0.729578 0.624376
v -9.870481 0.741989 0.530591
v -10.025610 0.729578 0.649197
v -10.025610 0.754399 0.649197
v -9.982174 0.729578 0.649197
v -9.982174 0.754399 0.649197
v -10.025610 0.729578 0.624376
v -9.895301 0.785425 0.660900
v -10.006994 0.754399 0.531298
v -10.025610 0.754399 0.531298
v -9.876685 0.729578 0.623669
v -10.025610 0.741989 0.531298
v -10.006994 0.741989 0.531298
v -9.895301 0.729578 0.648490
v -9.895301 0.729578 0.623669
vn -0.5774 -0.5773 -0.5774
vn -0.9045 -0.3015 -0.3015
vn 0.9045 -0.3015 -0.3015
vn 0.5774 -0.5773 -0.5773
vn 0.5774 -0.5773 0.5774
vn 0.5774 -0.5774 -0.5774
vn 0.5774 0.5773 -0.5774
vn 0.9045 -0.3015 0.3015
vn 0.5774 0.5773 0.5773
vn -0.9045 -0.3015 0.3015
vn -0.5774 -0.5773 0.5773
vn -0.5774 0.5773 -0.5773
vn -0.5774 -0.5774 0.5774
vn -0.5774 0.5773 0.5774
vn -0.6519 -0.7583 -0.0000
vn -0.7399 -0.0000 0.6727
vn 1.0000 -0.0000 -0.0000
vn 0.6519 -0.7583 -0.0000
vn 0.7399 -0.0000 -0.6727
vn -0.8792 0.4765 -0.0000
vn -0.8792 -0.4765 -0.0000
vn -0.7399 -0.0000 -0.6727
vn -0.6519 0.7583 -0.0000
vn -1.0000 -0.0000 -0.0000
vn 0.7399 -0.0000 0.6727
vn 0.6519 0.7583 -0.0000
vn 0.8792 -0.4765 -0.0000
vn 0.8792 0.4765 -0.0000
vn -0.0000 -0.0000 -1.0000
vn -0.0000 1.0000 -0.0000
vn -0.0000 -1.0000 -0.0000
vn -0.0000 -0.0000 1.0000
vn -0.4472 -0.0000 0.8944
vn 0.4472 -0.0000 -0.8944
vn 0.8321 -0.5547 -0.0000
vn 0.8320 -0.5547 -0.0000
vn -0.8321 -0.5547 -0.0000
vn -0.4472 -0.0000 -0.8944
vn -0.8321 0.5547 -0.0000
vn -0.8320 0.5547 -0.0000
vn 0.4472 -0.0000 0.8944
vn -0.9978 -0.0000 -0.0665
vn 0.8321 0.5547 -0.0000
vn 0.8320 0.5547 -0.0000
vn -0.0000 -0.9912 -0.1322
vn 0.9978 -0.0000 -0.0665
vt 0.000000 0.000000
vt 0.000000 38.629200
vt -3.507874 38.629200
vt -3.507874 0.000000
vt -1.116142 0.000000
vt 0.000000 0.000000
vt 0.000000 39.745350
vt -1.116142 38.629200
vt -18.017719 38.629200
vt -19.133860 39.745350
vt -18.017719 0.000000
vt -19.133860 0.000000
vt 0.000000 38.629200
vt 0.000000 0.000000
vt 3.507874 0.000000
vt 3.507874 38.629200
vt 0.000000 0.000000
vt -3.507874 39.745350
vt -3.507874 0.000000
vt -18.017719 -0.000000
vt -18.017719 3.507874
vt -19.133860 3.507874
vt -19.133860 -0.000000
vt -0.000000 39.745350
vt -0.000000 0.000000
vt 3.507874 -0.000000
vt 3.507874 39.745350
vt -1.116142 0.000000
vt -1.116142 3.507874
vt -18.017719 0.000000
vt 0.000000 3.507874
vt 0.000000 -0.000000
vt 19.133860 -0.000000
vt 19.133860 3.507874
vt -0.000000 3.507874
vt -1.116142 0.000000
vt 18.017719 0.000000
vt 19.133860 0.000000
vt 19.133860 39.745350
vt 18.017719 38.629200
vt 1.116142 38.629200
vt 1.116142 0.000000
vt 13.712600 8.875554
vt 3.188976 8.875554
vt 3.715158 8.244771
vt 13.186420 8.244771
vt 1.823367 12.688230
vt 1.823367 3.188976
vt 2.534480 3.600160
vt 2.534480 12.277050
vt -13.186420 17.556931
vt -3.715158 17.556931
vt -3.715158 34.557739
vt -13.186420 34.557739
vt -3.715158 8.244771
vt -3.188976 8.875554
vt -13.712600 8.875554
vt -13.186420 8.244771
vt -10.682790 12.688230
vt -10.682790 3.188976
vt -9.971672 3.600160
vt -9.971672 12.277050
vt 3.188976 14.279460
vt 13.712600 14.279460
vt 13.186420 15.283240
vt 3.715158 15.283240
vt 3.715158 30.533480
vt 13.186420 30.533480
vt 13.712600 31.537260
vt 3.188976 31.537260
vt 9.971672 17.556931
vt 10.682790 16.674450
vt 10.682790 35.440231
vt 9.971672 34.557739
vt 9.971672 3.600160
vt 10.682790 3.188976
vt 10.682790 12.688230
vt 9.971672 12.277050
vt 3.715158 2.104975
vt 3.188976 1.474192
vt 13.712600 1.474192
vt 13.186420 2.104975
vt 3.715158 12.277050
vt 3.715158 3.600160
vt 13.186420 3.600160
vt 13.186420 12.277050
vt -2.534480 3.600160
vt -1.823367 3.188976
vt -1.823367 12.688230
vt -2.534480 12.277050
vt -13.186420 3.600160
vt -3.715158 3.600160
vt -3.715158 12.277050
vt -13.186420 12.277050
vt -13.712600 1.474192
vt -3.188976 1.474192
vt -3.715158 2.104975
vt -13.186420 2.104975
vt -2.534480 17.556931
vt -1.823367 16.674450
vt -1.823367 35.440231
vt -2.534480 34.557739
vt 1.823367 35.440231
vt 1.823367 16.674450
vt 2.534480 17.556931
vt 2.534480 34.557739
vt -13.186420 30.533480
vt -3.715158 30.533480
vt -3.188976 31.537260
vt -13.712600 31.537260
vt 13.712600 3.188976
vt 3.188976 3.188976
vt 16.901581 0.000000
vt 16.044001 15.877210
vt 16.901581 38.629200
vt 13.712600 12.688230
vt 3.188976 12.688230
vt 16.044001 20.660669
vt 14.449510 20.660669
vt 13.712600 35.440231
vt 3.188976 35.440231
vt -0.000000 0.000000
vt -0.000000 38.629200
vt 3.188976 16.674450
vt 14.449510 15.877210
vt 13.712600 16.674450
vt -13.712600 14.279460
vt -3.188976 14.279460
vt -3.715158 15.283240
vt -13.186420 15.283240
vt 0.797244 0.000000
vt 0.797244 38.629200
vt -0.797244 38.629200
vt -0.797244 0.000000
vt 16.901581 0.797244
vt -0.000000 0.797244
vt 0.000000 -0.797244
vt 16.901581 -0.797244
vt 3.715158 17.556931
vt 13.186420 17.556931
vt 13.186420 34.557739
vt 3.715158 34.557739
vt -13.712600 16.674450
vt -14.431360 20.660669
vt -14.431360 15.877210
vt -3.188976 16.674450
vt -13.712600 35.440231
vt -16.025841 20.660669
vt -13.712600 12.688230
vt -3.188976 12.688230
vt -0.000000 38.629200
vt -3.188976 3.188976
vt -0.000000 0.000000
vt -16.901581 0.000000
vt -3.188976 35.440231
vt -13.712600 3.188976
vt -16.025841 15.877210
vt -16.901581 38.629200
vt -0.000000 -0.797244
vt 0.000000 0.797244
vt -16.901581 0.797244
vt -16.901581 -0.797244
vt -0.797244 0.000000
vt 0.797244 0.000000
vt -10.682790 35.440231
vt -10.682790 16.674450
vt -9.971672 17.556931
vt -9.971672 34.557739
vt 6.105480 20.182329
vt 6.105480 16.355551
vt 6.462018 15.877210
vt 6.462018 20.660669
vt -7.166975 15.877210
vt -7.166975 20.660669
vt -7.523513 20.182329
vt -7.523513 16.355551
vt 15.547500 2.232283
vt 12.517970 2.232283
vt 12.517970 1.753937
vt 14.909700 1.594488
vt 14.909700 1.116142
vt 15.547500 1.116142
vt -16.025841 13.652870
vt -14.431360 13.652870
vt -14.590800 14.227770
vt -15.866390 14.227770
vt 14.449510 13.652870
vt 16.044001 13.652870
vt 15.884550 14.227770
vt 14.608960 14.227770
vt 7.531633 16.355551
vt 7.531633 20.182329
vt 7.175095 20.660669
vt 7.175095 15.877210
vt 14.608960 16.173590
vt 15.884550 16.173590
vt 16.044001 16.748489
vt 14.449510 16.748489
vt -15.547500 18.747290
vt -14.909700 18.747290
vt -12.517970 19.066179
vt -15.547500 19.385080
vt -12.517970 19.385080
vt 1.594488 18.747290
vt 1.594488 19.385080
vt 1.116142 19.385080
vt 1.116142 18.747290
vt -1.753937 19.066179
vt -1.753937 19.385080
vt -2.232283 19.385080
vt -2.232283 19.066179
vt -2.232283 18.747290
vt -1.116142 18.747290
vt -1.116142 19.385080
vt -14.927860 -1.594488
vt -14.927860 -1.116142
vt -15.565650 -1.116142
vt -14.927860 -2.232283
vt -15.565650 -2.232283
vt 15.565650 18.747290
vt 14.608960 16.355551
vt 15.884550 16.355551
vt 15.884550 20.182329
vt 15.565650 19.385080
vt 14.927860 19.385080
vt 14.927860 18.747290
vt 14.608960 20.182329
vt -6.453898 20.660669
vt -6.453898 15.877210
vt -6.097360 16.355551
vt -6.097360 20.182329
vt 14.927860 -1.594488
vt 12.536130 -1.753937
vt 12.536130 -2.232283
vt 15.565650 -2.232283
vt 15.565650 -1.116142
vt 14.927860 -1.116142
vt 12.373570 19.066179
vt 14.770610 18.747290
vt 14.770610 19.385080
vt 12.373570 19.385080
vt 12.536130 19.066179
vt 12.536130 19.385080
vt -15.866390 16.173590
vt -14.590800 16.173590
vt -14.431360 16.748489
vt -16.025841 16.748489
vt 2.232283 19.066179
vt 2.232283 19.385080
vt 1.753937 19.385080
vt 1.753937 19.066179
vt 2.232283 18.747290
vt -1.753937 -9.888303
vt -2.232283 -9.888303
vt -2.232283 -12.301200
vt -1.594488 -12.301200
vt -15.866390 16.355551
vt -14.590800 16.355551
vt -14.590800 20.182329
vt -14.909700 19.385080
vt -15.866390 20.182329
vt -1.594488 19.385080
vt -1.594488 18.747290
vt -14.909700 1.594488
vt -14.909700 2.232283
vt -15.547500 2.232283
vt -14.909700 1.116142
vt -15.547500 1.116142
vt 2.232283 -9.906301
vt 1.753937 -9.906301
vt 1.594488 -12.319200
vt 2.232283 -12.319200
vt -14.788730 19.385080
vt -14.788730 18.747290
vt -12.391690 19.066179
vt -12.391690 19.385080
s 1
usemtl wood.023
f 2/1/1 1/2/2 3/3/3
f 3/3/3 4/4/4 2/1/1
f 6/5/5 5/6/6 7/7/7
f 7/7/7 8/8/8 6/5/5
f 7/7/7 3/9/3 8/8/8
f 3/9/3 7/7/7 9/10/9
f 4/11/4 3/9/3 9/10/9
f 9/10/9 10/12/5 4/11/4
f 12/13/10 11/14/11 6/15/5
f 6/15/5 8/16/8 12/13/10
f 14/17/1 13/7/12 7/18/7
f 7/18/7 5/19/6 14/17/1
f 2/20/1 4/21/4 10/22/5
f 10/22/5 15/23/13 2/20/1
f 16/24/14 15/25/13 10/26/5
f 10/26/5 9/27/9 16/24/14
f 12/28/10 8/29/8 3/21/3
f 3/21/3 1/30/2 12/28/10
f 7/31/7 13/32/12 16/33/14
f 16/33/14 9/34/9 7/31/7
f 14/17/1 5/35/6 6/29/5
f 6/29/5 11/36/11 14/17/1
f 2/37/1 15/38/13 16/39/14
f 16/39/14 1/40/2 2/37/1
f 16/39/14 12/41/10 1/40/2
f 12/41/10 16/39/14 13/7/12
f 11/42/11 12/41/10 13/7/12
f 13/7/12 14/17/1 11/42/11
f 18/43/15 17/44/15 19/45/15
f 19/45/15 20/46/15 18/43/15
f 17/47/16 21/48/16 22/49/16
f 22/49/16 19/50/16 17/47/16
f 24/51/17 23/52/17 25/53/17
f 25/53/17 26/54/17 24/51/17
f 28/55/18 27/56/18 29/57/18
f 29/57/18 30/58/18 28/55/18
f 29/59/19 31/60/19 32/61/19
f 32/61/19 30/62/19 29/59/19
f 34/63/20 33/64/20 35/65/20
f 35/65/20 36/66/20 34/63/20
f 38/67/21 37/68/21 39/69/21
f 39/69/21 40/70/21 38/67/21
f 35/71/22 33/72/22 39/73/22
f 39/73/22 37/74/22 35/71/22
f 42/75/22 41/76/22 18/77/22
f 18/77/22 20/78/22 42/75/22
f 22/79/23 21/80/23 41/81/23
f 41/81/23 42/82/23 22/79/23
f 19/83/24 22/84/24 42/85/24
f 42/85/24 20/86/24 19/83/24
f 44/87/25 43/88/25 27/89/25
f 27/89/25 28/90/25 44/87/25
f 32/91/17 44/92/17 28/93/17
f 28/93/17 30/94/17 32/91/17
f 31/95/26 43/96/26 44/97/26
f 44/97/26 32/98/26 31/95/26
f 23/99/25 45/100/25 46/101/25
f 46/101/25 25/102/25 23/99/25
f 40/103/16 34/104/16 36/105/16
f 36/105/16 38/106/16 40/103/16
f 26/107/27 25/108/27 46/109/27
f 46/109/27 47/110/27 26/107/27
f 41/111/24 21/112/24 48/113/24
f 48/113/24 49/114/24 41/111/24
f 48/113/24 50/115/24 49/114/24
f 49/114/24 18/116/24 41/111/24
f 49/114/24 17/117/24 18/116/24
f 50/115/24 51/118/24 49/114/24
f 50/115/24 52/119/24 51/118/24
f 50/115/24 39/120/24 52/119/24
f 50/115/24 40/121/24 39/120/24
f 53/122/24 48/113/24 21/112/24
f 21/112/24 54/123/24 53/122/24
f 21/112/24 17/117/24 54/123/24
f 40/121/24 50/115/24 54/123/24
f 17/117/24 34/124/24 54/123/24
f 34/124/24 40/121/24 54/123/24
f 17/117/24 55/125/24 34/124/24
f 17/117/24 49/114/24 55/125/24
f 55/125/24 33/126/24 34/124/24
f 33/126/24 55/125/24 52/119/24
f 52/119/24 39/120/24 33/126/24
f 56/127/28 45/128/28 23/129/28
f 23/129/28 24/130/28 56/127/28
f 53/131/29 54/132/29 57/133/29
f 57/133/29 58/134/29 53/131/29
f 59/135/30 57/136/30 54/137/30
f 54/137/30 50/138/30 59/135/30
f 36/139/24 35/140/24 37/141/24
f 37/141/24 38/142/24 36/139/24
f 56/143/17 60/144/17 61/145/17
f 61/145/17 45/146/17 56/143/17
f 56/143/17 47/147/17 60/144/17
f 47/147/17 62/148/17 60/144/17
f 45/146/17 61/145/17 29/149/17
f 45/146/17 29/149/17 27/150/17
f 57/151/17 45/146/17 27/150/17
f 57/151/17 27/150/17 43/152/17
f 58/153/17 57/151/17 43/152/17
f 43/152/17 63/154/17 58/153/17
f 57/151/17 46/155/17 45/146/17
f 57/151/17 47/147/17 46/155/17
f 63/154/17 43/152/17 31/156/17
f 63/154/17 31/156/17 64/157/17
f 31/156/17 29/149/17 64/157/17
f 29/149/17 61/145/17 64/157/17
f 64/157/17 59/158/17 63/154/17
f 64/157/17 62/148/17 59/158/17
f 62/148/17 47/147/17 59/158/17
f 47/147/17 57/151/17 59/158/17
f 53/159/31 58/160/31 63/161/31
f 63/161/31 48/162/31 53/159/31
f 50/133/32 48/163/32 63/164/32
f 63/164/32 59/132/32 50/133/32
f 47/165/19 56/166/19 24/167/19
f 24/167/19 26/168/19 47/165/19
usemtl metal.001
f 66/169/33 65/170/33 49/171/33
f 49/171/33 51/172/33 66/169/33
f 61/173/34 60/174/34 67/175/34
f 67/175/34 68/176/34 61/173/34
f 70/177/30 69/178/30 71/179/30
f 71/179/30 72/180/30 70/177/30
f 72/180/30 73/181/30 70/177/30
f 73/181/30 74/182/30 70/177/30
f 64/183/35 61/184/35 68/185/35
f 68/185/35 75/186/36 64/183/35
f 55/187/37 49/188/37 65/189/37
f 65/189/37 76/190/37 55/187/37
f 76/191/38 77/192/38 52/193/38
f 52/193/38 55/194/38 76/191/38
f 77/195/39 66/196/40 51/197/39
f 51/197/39 52/198/39 77/195/39
f 79/199/17 78/200/17 80/201/17
f 80/201/17 70/202/17 79/199/17
f 80/201/17 69/203/17 70/202/17
f 82/204/29 81/205/29 83/206/29
f 83/206/29 84/207/29 82/204/29
f 85/208/29 71/209/29 69/210/29
f 69/210/29 80/211/29 85/208/29
f 87/210/32 86/212/32 88/213/32
f 88/213/32 89/214/32 87/210/32
f 82/215/31 84/216/31 88/217/31
f 88/217/31 90/218/31 82/215/31
f 88/217/31 86/219/31 90/218/31
f 88/220/24 76/221/24 65/222/24
f 65/222/24 66/223/24 88/220/24
f 66/223/24 89/224/24 88/220/24
f 66/223/24 83/225/24 89/224/24
f 76/221/24 88/220/24 84/226/24
f 84/226/24 77/227/24 76/221/24
f 84/226/24 83/225/24 77/227/24
f 83/225/24 66/223/24 77/227/24
f 62/228/41 64/229/41 75/230/41
f 75/230/41 91/231/41 62/228/41
f 81/232/30 92/233/30 93/234/30
f 93/234/30 87/235/30 81/232/30
f 87/235/30 89/236/30 81/232/30
f 83/237/30 81/232/30 89/236/30
f 85/238/42 94/239/42 72/240/42
f 72/240/42 71/241/42 85/238/42
f 90/226/24 86/220/24 87/224/24
f 87/224/24 95/242/24 90/226/24
f 87/224/24 93/243/24 95/242/24
f 91/244/43 67/245/44 60/246/44
f 60/246/44 62/247/43 91/244/43
f 95/248/29 93/249/29 92/250/29
f 92/250/29 96/251/29 95/248/29
f 74/206/32 97/207/32 79/252/32
f 79/252/32 70/249/32 74/206/32
f 85/253/45 80/254/45 78/255/45
f 78/255/45 94/256/45 85/253/45
f 98/200/17 75/257/17 68/258/17
f 68/258/17 67/259/17 98/200/17
f 67/259/17 73/260/17 98/200/17
f 67/259/17 74/202/17 73/260/17
f 75/257/17 98/200/17 97/199/17
f 97/199/17 91/261/17 75/257/17
f 97/199/17 74/202/17 91/261/17
f 74/202/17 67/259/17 91/261/17
f 98/213/29 73/214/29 72/262/29
f 72/262/29 94/263/29 98/213/29
f 94/264/31 78/265/31 79/266/31
f 79/266/31 98/267/31 94/264/31
f 79/266/31 97/268/31 98/267/31
f 95/269/45 96/270/45 82/271/45
f 82/271/45 90/272/45 95/269/45
f 81/273/46 82/274/46 96/275/46
f 96/275/46 92/276/46 81/273/46
