# Blender 4.3.2
# www.blender.org
mtllib lightCone.mtl
o Circle
v 0.000000 -14.606782 -5.637408
v -2.818704 -14.606782 -4.882139
v -4.882139 -14.606782 -2.818704
v -5.637408 -14.606782 0.000000
v -4.882139 -14.606782 2.818704
v -2.818704 -14.606782 4.882139
v 0.000000 -14.606782 5.637408
v 2.818704 -14.606782 4.882139
v 4.882139 -14.606782 2.818704
v 5.637408 -14.606782 0.000000
v 4.882139 -14.606782 -2.818704
v 2.818704 -14.606782 -4.882139
v 0.082291 -0.414660 -0.313535
v -0.085501 -0.414660 -0.312675
v -0.230383 -0.414660 -0.228034
v -0.313534 -0.414660 -0.082292
v -0.312674 -0.414660 0.085500
v -0.228033 -0.414660 0.230382
v -0.082291 -0.414660 0.313533
v 0.085501 -0.414660 0.312673
v 0.230383 -0.414660 0.228032
v 0.313535 -0.414660 0.082290
v 0.312674 -0.414660 -0.085502
v 0.228033 -0.414660 -0.230384
vn 0.2435 -0.3394 0.9086
vn -0.6651 -0.3394 -0.6651
vn 0.6651 -0.3394 -0.6651
vn -0.2435 -0.3394 0.9086
vn 0.6651 -0.3394 0.6651
vn -0.9086 -0.3394 -0.2435
vn 0.2435 -0.3394 -0.9086
vn 0.9086 -0.3394 0.2435
vn -0.9086 -0.3394 0.2435
vn -0.2435 -0.3394 -0.9086
vn 0.9086 -0.3394 -0.2435
vn -0.6651 -0.3394 0.6651
vn 0.0048 -0.3512 0.9363
vn -0.4723 -0.3512 -0.8084
vn 0.8084 -0.3512 -0.4723
vn -0.4640 -0.3513 0.8132
vn 0.4723 -0.3512 0.8084
vn -0.8132 -0.3513 -0.4640
vn 0.4640 -0.3513 -0.8132
vn 0.8132 -0.3512 0.4640
vn -0.9363 -0.3512 0.0048
vn -0.0048 -0.3512 -0.9363
vn 0.9363 -0.3512 -0.0048
vn -0.8084 -0.3512 0.4723
vt 0.000000 0.000000
s 1
f 1/1/1 14/1/1 2/1/1
f 8/1/2 21/1/2 9/1/2
f 5/1/3 18/1/3 6/1/3
f 12/1/4 13/1/4 1/1/4
f 2/1/5 15/1/5 3/1/5
f 9/1/6 22/1/6 10/1/6
f 6/1/7 19/1/7 7/1/7
f 3/1/8 16/1/8 4/1/8
f 10/1/9 23/1/9 11/1/9
f 7/1/10 20/1/10 8/1/10
f 4/1/11 17/1/11 5/1/11
f 11/1/12 24/1/12 12/1/12
f 1/1/13 13/1/13 14/1/13
f 8/1/14 20/1/14 21/1/14
f 5/1/15 17/1/15 18/1/15
f 12/1/16 24/1/16 13/1/16
f 2/1/17 14/1/17 15/1/17
f 9/1/18 21/1/18 22/1/18
f 6/1/19 18/1/19 19/1/19
f 3/1/20 15/1/20 16/1/20
f 10/1/21 22/1/21 23/1/21
f 7/1/22 19/1/22 20/1/22
f 4/1/23 16/1/23 17/1/23
f 11/1/24 23/1/24 24/1/24
