# Blender 4.3.2
# www.blender.org
mtllib lightCone-narrow.mtl
o Circle
v 0.000000 -14.606782 -4.517066
v -2.258533 -14.606782 -3.911895
v -3.911895 -14.606782 -2.258533
v -4.517066 -14.606782 0.000000
v -3.911895 -14.606782 2.258533
v -2.258533 -14.606782 3.911895
v 0.000000 -14.606782 4.517066
v 2.258533 -14.606782 3.911895
v 3.911895 -14.606782 2.258533
v 4.517066 -14.606782 0.000000
v 3.911895 -14.606782 -2.258533
v 2.258533 -14.606782 -3.911895
v 0.035347 -0.414660 -0.134676
v -0.036726 -0.414660 -0.134307
v -0.098958 -0.414660 -0.097950
v -0.134675 -0.414660 -0.035348
v -0.134305 -0.414660 0.036725
v -0.097949 -0.414660 0.098957
v -0.035347 -0.414660 0.134674
v 0.036726 -0.414660 0.134304
v 0.098958 -0.414660 0.097948
v 0.134675 -0.414660 0.035346
v 0.134305 -0.414660 -0.036727
v 0.097949 -0.414660 -0.098959
vn 0.2481 -0.2853 0.9258
vn -0.6777 -0.2853 -0.6777
vn 0.6777 -0.2853 -0.6777
vn -0.2481 -0.2853 0.9258
vn 0.6777 -0.2853 0.6777
vn -0.9258 -0.2853 -0.2481
vn 0.2481 -0.2853 -0.9258
vn 0.9258 -0.2853 0.2481
vn -0.9258 -0.2853 0.2481
vn -0.2481 -0.2853 -0.9258
vn 0.9258 -0.2853 -0.2481
vn -0.6777 -0.2853 0.6777
vn 0.0049 -0.2951 0.9555
vn -0.4820 -0.2951 -0.8250
vn 0.8250 -0.2951 -0.4820
vn -0.4735 -0.2951 0.8299
vn 0.4820 -0.2951 0.8250
vn -0.8299 -0.2951 -0.4735
vn 0.4735 -0.2951 -0.8299
vn 0.8299 -0.2951 0.4735
vn -0.9555 -0.2951 0.0049
vn -0.0049 -0.2951 -0.9555
vn 0.9555 -0.2951 -0.0049
vn -0.8250 -0.2951 0.4820
vt 0.735611 0.921940
vt 0.510269 0.532470
vt 0.494707 0.983764
vt 0.505262 0.024400
vt 0.511582 0.450877
vt 0.744043 0.091092
vt 0.020328 0.497985
vt 0.459374 0.479902
vt 0.087581 0.259064
vt 0.913125 0.747886
vt 0.529381 0.521841
vt 0.488402 0.532117
vt 0.255226 0.916647
vt 0.530339 0.462111
vt 0.917693 0.268190
vt 0.470613 0.461148
vt 0.265077 0.085830
vt 0.469643 0.520878
vt 0.081594 0.738729
vt 0.540967 0.481218
vt 0.979678 0.508541
vt 0.489722 0.450524
vt 0.459018 0.501765
vt 0.540617 0.503081
s 1
f 1/1/1 14/2/1 2/3/1
f 8/4/2 21/5/2 9/6/2
f 5/7/3 18/8/3 6/9/3
f 12/10/4 13/11/4 1/1/4
f 2/3/5 15/12/5 3/13/5
f 9/6/6 22/14/6 10/15/6
f 6/9/7 19/16/7 7/17/7
f 3/13/8 16/18/8 4/19/8
f 10/15/9 23/20/9 11/21/9
f 7/17/10 20/22/10 8/4/10
f 4/19/11 17/23/11 5/7/11
f 11/21/12 24/24/12 12/10/12
f 1/1/13 13/11/13 14/2/13
f 8/4/14 20/22/14 21/5/14
f 5/7/15 17/23/15 18/8/15
f 12/10/16 24/24/16 13/11/16
f 2/3/17 14/2/17 15/12/17
f 9/6/18 21/5/18 22/14/18
f 6/9/19 18/8/19 19/16/19
f 3/13/20 15/12/20 16/18/20
f 10/15/21 22/14/21 23/20/21
f 7/17/22 19/16/22 20/22/22
f 4/19/23 16/18/23 17/23/23
f 11/21/24 23/20/24 24/24/24
