# Blender 5.1.1
# www.blender.org
mtllib sofa.mtl
o loungeDesignSofaCorner
v -9.288170 0.079449 -4.285700
v -9.832412 0.079449 -4.210240
v -9.288170 0.079449 -3.046843
v -9.911860 0.079449 -4.210240
v -9.832412 0.079449 -4.289689
v -8.049313 0.079449 -4.317480
v -8.049313 0.079449 -4.285700
v -9.319950 0.079449 -3.046843
v -9.347741 0.079449 -2.899574
v -9.427191 0.079449 -2.899574
v -9.832412 0.079449 -2.899574
v -9.911860 0.079449 -2.899574
v -9.939650 0.079449 -4.937180
v -9.911860 0.079449 -2.820125
v -9.939650 0.079449 -2.792334
v -9.319950 0.079449 -2.792334
v -9.911860 0.079449 -4.289689
v -9.911860 0.079449 -4.829942
v -7.902044 0.079449 -4.345271
v -7.822595 0.079449 -4.345271
v -7.902044 0.079449 -4.424721
v -7.822595 0.079449 -4.829942
v -7.902044 0.079449 -4.829942
v -9.212709 0.079449 -4.829942
v -7.902044 0.079449 -4.909390
v -9.212709 0.079449 -4.909390
v -9.911860 0.079449 -4.909390
v -9.832412 0.079449 -4.909390
v -9.292158 0.079449 -4.909390
v -7.794804 0.079449 -4.937180
v -7.794804 0.079449 -4.317480
v -7.822595 0.079449 -4.424719
v -7.822595 0.079449 -4.909390
v -9.292158 0.079449 -4.829942
v -9.832412 0.079449 -4.829942
v -9.347741 0.079449 -2.820125
v -9.832412 0.079449 -2.820125
v -9.427191 0.079449 -2.820125
v -7.794804 0.524363 -4.937180
v -7.794804 0.524363 -4.317480
v -8.049313 0.524363 -4.317480
v -8.049313 0.365465 -4.317480
v -8.049313 0.635591 -4.793900
v -8.049313 0.524363 -4.768536
v -9.796371 0.635591 -4.793900
v -8.049313 0.365465 -4.732301
v -9.734771 0.365465 -4.732301
v -8.049313 0.365465 -4.285700
v -9.288170 0.365465 -4.285700
v -8.049313 0.524363 -4.937180
v -8.049313 0.635591 -4.937180
v -9.939650 0.635591 -4.937180
v -9.939650 0.524363 -2.792334
v -9.939650 0.524363 -3.046843
v -9.939650 0.635591 -3.046843
v -9.288170 0.365465 -3.046843
v -9.319950 0.365465 -3.046843
v -9.796371 0.635591 -3.046843
v -9.319950 0.524363 -2.792334
v -9.319950 0.524363 -3.046843
v -9.734771 0.365465 -3.046843
v -9.771006 0.524363 -3.046843
v -7.834528 0.000000 -4.897457
v -7.834528 0.000000 -4.841873
v -7.890111 0.000000 -4.841873
v -7.890111 0.000000 -4.897457
v -7.834528 0.000000 -4.412787
v -7.890111 0.000000 -4.412787
v -9.280226 0.000000 -4.841875
v -9.280226 0.000000 -4.897457
v -7.834528 0.000000 -4.357204
v -7.890111 0.000000 -4.357204
v -9.224643 0.000000 -4.897457
v -9.224643 0.000000 -4.841875
v -9.415257 0.000000 -2.832058
v -9.415257 0.000000 -2.887641
v -9.359674 0.000000 -2.832058
v -9.359674 0.000000 -2.887641
v -9.899927 0.000000 -2.832058
v -9.899927 0.000000 -2.887641
v -9.844345 0.000000 -2.887641
v -9.844345 0.000000 -2.832058
v -9.844345 0.000000 -4.841875
v -9.899927 0.000000 -4.841875
v -9.899927 0.000000 -4.897457
v -9.844345 0.000000 -4.897457
v -9.844345 0.000000 -4.222173
v -9.899927 0.000000 -4.222173
v -9.844345 0.000000 -4.277755
v -9.899927 0.000000 -4.277755
vn 0.2556 -0.9324 0.2556
vn 0.3015 -0.9045 0.3015
vn 0.5773 -0.5773 0.5774
vn -0.2648 -0.9506 0.1622
vn 0.2556 -0.9324 -0.2556
vn 0.5774 -0.5774 0.5773
vn -0.2556 -0.9324 -0.2556
vn -0.5774 -0.5774 -0.5773
vn -0.2556 -0.9324 0.2556
vn -0.5773 -0.5774 0.5773
vn 0.5773 -0.5774 0.5774
vn -0.0000 -1.0000 -0.0000
vn -0.0000 -0.0000 -0.0000
vn -0.4996 -0.7076 0.4996
vn 0.4996 -0.7076 0.4996
vn 0.5774 -0.5773 -0.5774
vn 0.5774 0.5774 -0.5773
vn 0.5774 0.5774 0.5774
vn -0.5773 0.5773 0.5774
vn -0.0000 -0.0000 1.0000
vn -0.0000 0.7818 0.6236
vn 0.5901 0.6312 0.5034
vn 0.2341 0.9436 0.2341
vn -0.5901 0.6312 0.5034
vn 0.5103 0.6922 0.5103
vn 0.3015 0.9045 0.3015
vn 0.3015 0.3015 -0.9045
vn -0.5773 0.5774 -0.5773
vn -0.9045 0.3015 0.3015
vn -0.5773 0.5774 0.5773
vn 0.7071 0.7071 -0.0000
vn 0.5034 0.6312 0.5901
vn 0.5774 0.5773 0.5773
vn 0.5774 0.5773 -0.5773
vn 0.5034 0.6312 -0.5901
vn 0.9750 0.2223 -0.0000
vn -0.0000 1.0000 -0.0000
vn 0.5345 -0.6547 0.5345
vn 0.5345 -0.6547 -0.5345
vn -0.5345 -0.6547 0.5345
vn -0.5345 -0.6547 -0.5345
vn -0.0000 -0.1485 0.9889
vn -0.0000 -0.1485 -0.9889
vn 0.9889 -0.1485 -0.0000
vn -0.9889 -0.1485 -0.0000
vt -35.131439 50.485771
vt -37.001129 37.001129
vt -6.305962 37.001129
vt -35.131439 52.454269
vt -37.099949 50.485771
vt -37.788521 6.305963
vt -37.001129 6.305963
vt -6.305962 37.788521
vt -2.657087 38.477112
vt -2.657087 40.445610
vt -2.657087 50.485771
vt -2.657087 52.454269
vt -53.142860 53.142860
vt -0.688583 52.454269
vt -0.000000 53.142860
vt -0.000000 37.788521
vt -37.099949 52.454269
vt -50.485771 52.454269
vt -38.477112 2.657087
vt -38.477112 0.688583
vt -40.445610 2.657087
vt -50.485771 0.688583
vt -50.485771 2.657087
vt -50.485771 35.131439
vt -52.454269 2.657087
vt -52.454269 35.131439
vt -52.454269 52.454269
vt -52.454269 50.485771
vt -52.454269 37.099949
vt -53.142860 -0.000000
vt -37.788521 0.000000
vt -40.445610 0.688583
vt -52.454269 0.688583
vt -50.485771 37.099949
vt -50.485771 50.485771
vt -0.688583 38.477112
vt -0.688583 50.485771
vt -0.688583 40.445610
vt 37.788521 1.968504
vt 53.142860 1.968504
vt 53.142860 12.992130
vt 37.788521 12.992130
vt -0.000001 1.968504
vt -0.000001 12.992130
vt -6.305963 12.992130
vt -6.305963 1.968504
vt -6.305963 9.055119
vt -6.305963 23.553289
vt -6.305963 26.379940
vt -49.592800 26.379940
vt -6.305963 19.515209
vt -48.066551 19.515209
vt -37.001129 9.055119
vt -37.001129 1.968504
vt 37.001129 1.968504
vt 37.788521 9.055119
vt 37.001129 9.055119
vt 49.592800 15.748030
vt 48.964340 12.992130
vt 53.142860 15.748030
vt 37.788521 6.305963
vt 37.788521 0.000000
vt 53.142860 0.000000
vt 48.964340 6.305962
vt 53.142860 6.305962
vt -48.066551 9.055119
vt -37.788521 9.055119
vt -37.788521 12.992130
vt -48.964340 12.992130
vt 0.000001 12.992130
vt 0.000001 1.968504
vt 6.305963 12.992130
vt 6.305963 15.748030
vt -53.142860 1.968504
vt 0.000000 1.968504
vt 0.000000 12.992130
vt -6.305962 12.992130
vt -53.142860 15.748030
vt -6.305962 15.748030
vt 6.305962 1.968504
vt 6.305962 9.055119
vt -37.788521 1.968504
vt 49.592800 49.592800
vt 49.592800 6.305962
vt 53.142860 53.142860
vt 6.305962 53.142860
vt 6.305962 49.592800
vt -53.142860 12.992130
vt 0.000000 12.992130
vt 0.000000 1.968504
vt 6.305962 12.992130
vt 37.001129 37.001129
vt 37.001129 6.305963
vt 48.066551 48.066551
vt 6.305962 48.066551
vt 6.305962 37.788521
vt 6.305962 37.001129
vt 48.066551 6.305962
vt 6.305962 19.515209
vt 48.066551 19.515209
vt 49.592800 26.379940
vt 6.305962 23.553289
vt 6.305962 26.379940
vt 0.000000 53.142860
vt 0.000000 37.788521
vt 6.305962 48.964340
vt 48.066551 9.055119
vt -49.592800 15.748030
vt 50.781441 -0.146195
vt 52.158600 -0.146195
vt 52.454269 1.844390
vt 50.485771 1.844390
vt -52.158600 0.984252
vt -50.781441 0.984252
vt -50.781441 2.361417
vt -52.158600 2.361417
vt -0.984253 -7.542764
vt -0.688584 -5.552179
vt -2.657088 -5.552179
vt -2.361418 -7.542764
vt 2.657088 7.954212
vt 0.688584 7.954212
vt 0.984253 5.963627
vt 2.361418 5.963627
vt 2.657088 9.737905
vt 0.688584 9.737905
vt 0.984253 7.747320
vt 2.361418 7.747320
vt -52.158600 5.466682
vt -50.781441 5.466682
vt -50.485771 7.457267
vt -52.454269 7.457267
vt -40.149940 0.984252
vt -38.772781 0.984252
vt -38.772781 2.361418
vt -40.149940 2.361418
vt 50.781441 -5.262126
vt 52.158600 -5.262126
vt 52.454269 -3.271541
vt 50.485771 -3.271541
vt -52.158600 0.350751
vt -50.781441 0.350751
vt -50.485771 2.341336
vt -52.454269 2.341336
vt -52.158600 35.427109
vt -50.781441 35.427109
vt -50.781441 36.804279
vt -52.158600 36.804279
vt -0.984253 -5.759071
vt -0.688584 -3.768486
vt -2.657088 -3.768486
vt -2.361418 -5.759071
vt -35.427109 -7.542764
vt -35.131439 -5.552179
vt -37.099949 -5.552179
vt -36.804279 -7.542764
vt -40.149940 0.350751
vt -38.772781 0.350751
vt -38.477112 2.341336
vt -40.445610 2.341336
vt 38.772781 -0.146195
vt 40.149940 -0.146195
vt 40.445610 1.844390
vt 38.477112 1.844390
vt 37.099949 9.737905
vt 35.131439 9.737905
vt 35.427109 7.747320
vt 36.804279 7.747320
vt -2.361417 5.963627
vt -0.984252 5.963627
vt -0.688583 7.954212
vt -2.657087 7.954212
vt -0.984252 38.772781
vt -0.984252 40.149940
vt -2.361417 40.149940
vt -2.361417 38.772781
vt -2.361417 7.747320
vt -0.984252 7.747320
vt -0.688583 9.737905
vt -2.657087 9.737905
vt 40.445610 2.341335
vt 38.477112 2.341335
vt 38.772781 0.350751
vt 40.149940 0.350751
vt 0.984252 -7.542764
vt 2.361417 -7.542764
vt 2.657087 -5.552179
vt 0.688583 -5.552179
vt -0.984252 50.781441
vt -0.984252 52.158600
vt -2.361417 52.158600
vt -2.361417 50.781441
vt -50.781441 -0.146195
vt -50.485771 1.844390
vt -52.454269 1.844390
vt -52.158600 -0.146195
vt 52.454269 2.341335
vt 50.485771 2.341335
vt 50.781441 0.350751
vt 52.158600 0.350751
vt -38.772781 -0.146195
vt -38.477112 1.844390
vt -40.445610 1.844390
vt -40.149940 -0.146195
vt 0.984252 -5.759071
vt 2.361417 -5.759071
vt 2.657087 -3.768486
vt 0.688583 -3.768486
vt -50.781441 -7.542764
vt -50.485771 -5.552179
vt -52.454269 -5.552179
vt -52.158600 -7.542764
vt -52.158600 7.747320
vt -50.781441 7.747320
vt -50.485771 9.737905
vt -52.454269 9.737905
vt 50.781441 -7.542764
vt 52.158600 -7.542764
vt 52.454269 -5.552179
vt 50.485771 -5.552179
vt 52.454269 9.737905
vt 50.485771 9.737905
vt 50.781441 7.747320
vt 52.158600 7.747320
vt -50.781441 50.781441
vt -50.781441 52.158600
vt -52.158600 52.158600
vt -52.158600 50.781441
vt 0.295669 1.698195
vt 0.000000 -0.292390
vt 1.968504 -0.292390
vt 1.672835 1.698195
vt -1.968504 -0.000000
vt 0.000000 -0.000000
vt -0.295669 1.990585
vt -1.672835 1.990585
vt 1.968504 -0.000000
vt 1.672835 1.990585
vt 0.295669 1.990585
vt -1.968504 -0.292390
vt 0.000000 -0.292390
vt -0.295669 1.698195
vt -1.672835 1.698195
vt 0.295669 1.672835
vt 0.295669 0.295669
vt 1.672835 0.295669
vt 1.672835 1.672835
s 1
usemtl carpetBlue
f 2/1/1 1/2/2 3/3/3
f 3/3/3 4/4/4 2/1/1
f 2/1/1 5/5/5 1/2/2
f 1/2/2 5/5/5 6/6/2
f 6/6/2 7/7/6 1/2/2
f 4/4/4 3/3/3 8/8/2
f 4/4/4 8/8/2 9/9/5
f 4/4/4 9/9/5 10/10/7
f 4/4/4 10/10/7 11/11/5
f 4/4/4 11/11/5 12/12/7
f 13/13/8 4/4/4 12/12/7
f 13/13/8 12/12/7 14/14/9
f 15/15/10 13/13/8 14/14/9
f 14/14/9 16/16/11 15/15/10
f 13/13/8 17/17/7 4/4/4
f 13/13/8 5/5/5 17/17/7
f 13/13/8 18/18/9 5/5/5
f 18/18/9 6/6/2 5/5/5
f 18/18/9 19/19/9 6/6/2
f 19/19/9 20/20/1 6/6/2
f 18/18/9 21/21/7 19/19/9
f 18/18/9 22/22/1 21/21/7
s 0
f 18/18/12 23/23/12 22/22/12
f 18/18/13 24/24/13 23/23/13
s 1
f 25/25/7 23/23/14 24/24/15
f 24/24/15 26/26/5 25/25/7
f 13/13/8 27/27/7 18/18/9
f 13/13/8 28/28/5 27/27/7
f 13/13/8 29/29/7 28/28/5
f 13/13/8 30/30/16 29/29/7
f 21/21/7 22/22/1 30/30/16
f 25/25/7 26/26/5 30/30/16
f 26/26/5 29/29/7 30/30/16
f 20/20/1 30/30/16 31/31/6
f 31/31/6 6/6/2 20/20/1
f 20/20/1 32/32/5 30/30/16
f 32/32/5 21/21/7 30/30/16
f 22/22/1 33/33/5 30/30/16
f 33/33/5 25/25/7 30/30/16
f 28/28/5 29/29/7 34/34/14
s 0
f 35/35/12 34/34/12 24/24/12
s 1
f 35/35/15 28/28/5 34/34/14
s 0
f 24/24/12 18/18/12 35/35/12
s 1
f 36/36/1 8/8/2 16/16/11
f 16/16/11 14/14/9 36/36/1
s 0
f 14/14/13 37/37/13 36/36/13
f 37/37/12 38/38/12 36/36/12
s 1
f 36/36/1 9/9/5 8/8/2
f 38/38/14 37/37/15 11/11/5
f 11/11/5 10/10/7 38/38/14
f 31/39/6 30/40/16 39/41/17
f 39/41/17 40/42/18 31/39/6
f 31/43/6 40/44/18 41/45/19
f 41/45/19 6/46/2 31/43/6
s 0
f 41/45/20 42/47/20 6/46/20
s 1
f 44/48/21 43/49/22 45/50/23
f 45/50/23 46/51/24 44/48/21
f 45/50/23 47/52/25 46/51/24
f 7/46/6 48/47/18 49/53/26
f 49/53/26 1/54/2 7/46/6
f 7/55/6 6/39/2 42/56/13
f 42/56/13 48/57/18 7/55/6
f 43/58/22 44/59/21 50/41/27
f 50/41/27 51/60/17 43/58/22
f 41/61/19 40/62/18 39/63/17
f 39/63/17 44/64/21 41/61/19
f 39/63/17 50/65/27 44/64/21
f 46/66/24 42/67/13 41/68/19
f 41/68/19 44/69/21 46/66/24
f 39/70/17 30/71/16 13/40/8
f 13/40/8 50/72/27 39/70/17
f 13/40/8 51/73/17 50/72/27
f 13/40/8 52/60/28 51/73/17
f 13/74/8 15/75/10 53/76/19
f 53/76/19 54/77/29 13/74/8
f 54/77/29 52/78/28 13/74/8
f 54/77/29 55/79/30 52/78/28
f 3/80/3 1/55/2 49/57/26
f 49/57/26 56/81/18 3/80/3
f 3/54/3 56/53/18 57/67/31
f 57/67/31 8/82/2 3/54/3
f 45/83/23 43/84/22 51/65/17
f 45/83/23 51/65/17 52/85/28
f 45/83/23 52/85/28 55/86/30
f 55/86/30 58/87/32 45/83/23
f 16/82/11 59/68/33 53/88/19
f 53/88/19 15/74/10 16/82/11
f 59/89/33 16/90/11 8/80/2
f 8/80/2 57/81/31 59/89/33
f 57/81/31 60/91/34 59/89/33
f 49/92/26 48/93/18 42/61/13
f 49/92/26 42/61/13 47/94/25
f 49/92/26 47/94/25 61/95/35
f 49/92/26 61/95/35 57/96/31
f 57/96/31 56/97/18 49/92/26
f 42/61/13 46/98/24 47/94/25
f 61/99/35 47/100/25 45/101/23
f 45/101/23 62/102/36 61/99/35
f 45/101/23 58/103/32 62/102/36
f 53/104/19 59/105/33 60/96/34
f 60/96/34 54/86/29 53/104/19
s 0
f 60/96/37 62/106/37 54/86/37
s 1
f 60/42/34 57/56/31 61/107/35
f 61/107/35 62/59/36 60/42/34
f 54/88/29 62/69/36 58/108/32
f 58/108/32 55/78/30 54/88/29
usemtl metal.004
f 64/109/38 63/110/39 33/111/5
f 33/111/5 22/112/1 64/109/38
f 63/113/39 64/114/38 65/115/40
f 65/115/40 66/116/41 63/113/39
f 64/117/38 22/118/1 23/119/14
f 23/119/14 65/120/40 64/117/38
f 21/121/7 32/122/5 67/123/39
f 67/123/39 68/124/41 21/121/7
f 25/125/7 33/126/5 63/127/39
f 63/127/39 66/128/41 25/125/7
f 70/129/41 69/130/40 34/131/14
f 34/131/14 29/132/7 70/129/41
f 67/133/39 71/134/38 72/135/40
f 72/135/40 68/136/41 67/133/39
f 74/137/38 73/138/39 26/139/5
f 26/139/5 24/140/15 74/137/38
f 66/141/41 65/142/40 23/143/14
f 23/143/14 25/144/7 66/141/41
f 73/145/39 74/146/38 69/147/40
f 69/147/40 70/148/41 73/145/39
f 71/149/38 20/150/1 19/151/9
f 19/151/9 72/152/40 71/149/38
f 74/153/38 24/154/15 34/155/14
f 34/155/14 69/156/40 74/153/38
f 68/157/41 72/158/40 19/159/9
f 19/159/9 21/160/7 68/157/41
f 71/161/38 67/162/39 32/163/5
f 32/163/5 20/164/1 71/161/38
f 29/165/7 26/166/5 73/167/39
f 73/167/39 70/168/41 29/165/7
f 76/169/41 75/170/40 38/171/14
f 38/171/14 10/172/7 76/169/41
f 77/173/38 75/174/40 76/175/41
f 76/175/41 78/176/39 77/173/38
f 80/177/41 79/178/40 14/179/9
f 14/179/9 12/180/7 80/177/41
f 10/181/7 9/182/5 78/183/39
f 78/183/39 76/184/41 10/181/7
f 82/185/38 81/186/39 11/187/5
f 11/187/5 37/188/15 82/185/38
f 82/189/38 79/190/40 80/191/41
f 80/191/41 81/192/39 82/189/38
f 82/193/38 37/194/15 14/195/9
f 14/195/9 79/196/40 82/193/38
f 12/197/7 11/198/5 81/199/39
f 81/199/39 80/200/41 12/197/7
f 77/201/38 36/202/1 38/203/14
f 38/203/14 75/204/40 77/201/38
f 77/205/38 78/206/39 9/207/5
f 9/207/5 36/208/1 77/205/38
f 83/209/38 35/210/15 18/211/9
f 18/211/9 84/212/40 83/209/38
f 85/213/41 84/214/40 18/215/9
f 18/215/9 27/216/7 85/213/41
f 83/217/38 86/218/39 28/219/5
f 28/219/5 35/220/15 83/217/38
f 27/221/7 28/222/5 86/223/39
f 86/223/39 85/224/41 27/221/7
f 83/225/38 84/226/40 85/227/41
f 85/227/41 86/228/39 83/225/38
f 87/229/42 2/230/1 4/231/4
f 4/231/42 88/232/42 87/229/42
f 17/233/7 5/234/5 89/235/43
f 89/235/43 90/236/43 17/233/7
f 5/234/5 2/237/1 87/238/44
f 87/238/44 89/239/44 5/234/5
f 4/240/4 17/241/7 90/242/45
f 90/242/45 88/243/45 4/240/4
f 90/244/12 89/245/12 87/246/12
f 87/246/12 88/247/12 90/244/12
