# Blender 5.1.1
# www.blender.org
mtllib speaker-right.mtl
o speaker
v 6.007677 0.000000 -3.691253
v 6.007677 0.090892 -3.905155
v 6.007677 0.000000 -3.996047
v 6.007677 1.310614 -3.996047
v 6.007677 0.373740 -3.905155
v 6.007677 0.373740 -3.782145
v 6.007677 0.090892 -3.782145
v 6.007677 1.310614 -3.691253
v 5.702883 0.000000 -3.691253
v 5.702883 0.491007 -3.691253
v 5.733363 0.491007 -3.691253
v 5.733363 1.310614 -3.691253
v 5.733363 1.310614 -3.996047
v 5.733363 0.491007 -3.996047
v 5.702883 0.000000 -3.996047
v 5.702883 0.491007 -3.996047
v 5.733363 0.760634 -3.889369
v 5.733363 0.769769 -3.867316
v 5.794322 0.721040 -3.866509
v 5.794322 0.725607 -3.855483
v 5.733363 0.681446 -3.935088
v 5.733363 0.705112 -3.931972
v 5.794322 0.681446 -3.889369
v 5.794322 0.693279 -3.887811
v 5.733363 0.635727 -3.922837
v 5.733363 0.657780 -3.931972
v 5.794322 0.658586 -3.883244
v 5.794322 0.669613 -3.887811
v 5.794322 0.641852 -3.820790
v 5.794322 0.649118 -3.811321
v 5.733363 0.602258 -3.797930
v 5.733363 0.616790 -3.778993
v 5.733363 0.727165 -3.922837
v 5.733363 0.746103 -3.908306
v 5.794322 0.704305 -3.883244
v 5.794322 0.713774 -3.875978
v 5.794322 0.637285 -3.831817
v 5.733363 0.593123 -3.819984
v 5.733363 0.681446 -3.752212
v 5.733363 0.657780 -3.755327
v 5.794322 0.681446 -3.797930
v 5.794322 0.669613 -3.799488
v 5.733363 0.635727 -3.764462
v 5.794322 0.658586 -3.804056
v 5.733363 0.590008 -3.843650
v 5.733363 0.705112 -3.755327
v 5.733363 0.727165 -3.764462
v 5.733363 0.746103 -3.778993
v 5.733363 1.017004 -3.740607
v 5.733363 0.760634 -3.797930
v 5.733363 0.769769 -3.819984
v 5.733363 0.991276 -3.751264
v 5.733363 0.772884 -3.843650
v 5.733363 0.969182 -3.768217
v 5.733363 0.952229 -3.790311
v 5.733363 0.941572 -3.816039
v 5.733363 0.937937 -3.843650
v 5.733363 1.044615 -3.736972
v 5.733363 1.072225 -3.740607
v 5.733363 1.097954 -3.751264
v 5.733363 1.120047 -3.768217
v 5.733363 1.137000 -3.790311
v 5.733363 1.147657 -3.816039
v 5.733363 1.151292 -3.843650
v 5.733363 0.941572 -3.871260
v 5.733363 0.952229 -3.896989
v 5.733363 0.969182 -3.919082
v 5.733363 0.991276 -3.936035
v 5.733363 1.147657 -3.871260
v 5.733363 1.137000 -3.896989
v 5.733363 1.120047 -3.919082
v 5.733363 1.097954 -3.936035
v 5.733363 1.072225 -3.946692
v 5.733363 1.044615 -3.950327
v 5.733363 1.017004 -3.946692
v 5.733363 0.616790 -3.908306
v 5.733363 0.602258 -3.889369
v 5.733363 0.593123 -3.867316
v 5.794322 0.976341 -3.843650
v 5.794322 0.978667 -3.861320
v 5.794322 0.978667 -3.825979
v 5.794322 0.985488 -3.809513
v 5.794322 0.985488 -3.877787
v 5.794322 0.996338 -3.795373
v 5.794322 0.996338 -3.891927
v 5.794322 1.010478 -3.784523
v 5.794322 1.010478 -3.902776
v 5.794322 1.026944 -3.777702
v 5.794322 1.026944 -3.909597
v 5.794322 1.044615 -3.911923
v 5.794322 1.044615 -3.775376
v 5.794322 1.062285 -3.777702
v 5.794322 1.062285 -3.909597
v 5.794322 1.078752 -3.784523
v 5.794322 1.078752 -3.902776
v 5.794322 1.092892 -3.795373
v 5.794322 1.092892 -3.891927
v 5.794322 1.103742 -3.809513
v 5.794322 1.103742 -3.877787
v 5.794322 1.110562 -3.861320
v 5.794322 1.110562 -3.825979
v 5.794322 1.112888 -3.843650
v 5.794322 0.635727 -3.843650
v 5.794322 0.637285 -3.855483
v 5.794322 0.641852 -3.866509
v 5.794322 0.649118 -3.875978
v 5.794322 0.693279 -3.799488
v 5.794322 0.704305 -3.804056
v 5.794322 0.713774 -3.811321
v 5.794322 0.721040 -3.820790
v 5.794322 0.725607 -3.831817
v 5.794322 0.727165 -3.843650
v 5.977198 0.090892 -3.905155
v 5.977198 0.090892 -3.782145
v 5.977198 0.373740 -3.905155
v 5.977198 0.373740 -3.782145
vn 0.9045 0.3015 0.3015
vn 0.5773 -0.5774 0.5773
vn 0.5774 -0.5773 -0.5773
vn 0.5773 0.5774 -0.5773
vn 0.9045 -0.3015 0.3015
vn 0.9045 -0.3015 -0.3015
vn 0.9045 0.3015 -0.3015
vn 0.5774 0.5773 0.5773
vn -0.5773 0.5774 0.5773
vn -0.5774 -0.5774 0.5774
vn -0.3015 0.3015 0.9045
vn -0.5773 0.5774 -0.5774
vn -0.3015 0.3015 -0.9045
vn -0.5773 -0.5774 -0.5773
vn -0.5774 0.5774 -0.5774
vn -0.9043 -0.4239 0.0499
vn -0.8763 -0.4172 0.2409
vn -0.8972 -0.3926 0.2022
vn -0.8919 -0.4464 0.0725
vn -0.9034 -0.1776 0.3904
vn -0.8834 -0.0000 0.4686
vn -0.8943 -0.0128 0.4473
vn -0.8919 -0.1467 0.4277
vn -0.9033 0.0407 0.4271
vn -0.8765 0.2407 0.4169
vn -0.8947 0.2119 0.3933
vn -0.8913 0.0752 0.4471
vn -0.8887 0.3021 -0.3448
vn -0.8927 0.4057 -0.1960
vn -0.8831 0.4113 -0.2257
vn -0.8763 0.3407 -0.3407
vn -0.9044 -0.3414 0.2557
vn -0.8769 -0.2403 0.4162
vn -0.8964 -0.2389 0.3734
vn -0.8924 -0.3410 0.2955
vn -0.8785 0.4714 -0.0779
vn -0.8732 0.4742 -0.1128
vn -0.9033 0.1783 -0.3903
vn -0.8834 -0.0000 -0.4686
vn -0.8974 0.0313 -0.4401
vn -0.8914 0.1394 -0.4312
vn -0.8765 0.2407 -0.4169
vn -0.8976 0.2473 -0.3649
vn -0.9220 0.3823 -0.0616
vn -0.9034 -0.1776 -0.3904
vn -0.9033 -0.2733 -0.3308
vn -0.9058 -0.3312 -0.2643
vn -0.8937 0.0727 -0.4427
vn -0.9031 -0.4028 -0.1488
vn -0.9043 -0.4239 -0.0499
vn -0.8963 0.1673 -0.4108
vn -0.9067 -0.4201 0.0365
vn -0.9025 0.2507 -0.3503
vn -0.9122 0.3218 -0.2536
vn -0.9245 0.3559 -0.1366
vn -0.9250 0.3800 -0.0000
vn -0.8860 -0.0743 -0.4577
vn -0.8859 -0.1914 -0.4226
vn -0.8857 -0.2952 -0.3582
vn -0.8874 -0.3672 -0.2789
vn -0.8856 -0.4354 -0.1617
vn -0.8843 -0.4657 -0.0340
vn -0.8872 -0.4569 0.0642
vn -0.9211 0.3655 0.1343
vn -0.9122 0.3218 0.2536
vn -0.9009 0.2644 0.3442
vn -0.8938 0.1690 0.4154
vn -0.8856 -0.4223 0.1933
vn -0.8856 -0.3577 0.2962
vn -0.8856 -0.2691 0.3785
vn -0.8857 -0.1627 0.4348
vn -0.8859 -0.0456 0.4617
vn -0.8860 0.0744 0.4577
vn -0.8892 0.1607 0.4284
vn -0.9046 0.3400 0.2569
vn -0.9031 0.4028 0.1488
vn -0.9032 0.4274 0.0400
vn -0.8501 0.4952 0.1791
vn -0.8424 0.5352 0.0631
vn -0.8819 0.4524 -0.1326
vn -0.8691 0.4067 -0.2816
vn -0.8504 0.4323 0.2998
vn -0.8637 0.3244 -0.3858
vn -0.8545 0.3306 0.4006
vn -0.8578 0.2180 -0.4654
vn -0.8394 0.2499 0.4827
vn -0.8508 0.1035 -0.5152
vn -0.8327 0.1214 0.5403
vn -0.8442 -0.0240 0.5355
vn -0.8431 -0.0449 -0.5359
vn -0.8408 -0.1665 -0.5151
vn -0.8395 -0.1643 0.5179
vn -0.8371 -0.2880 -0.4650
vn -0.8392 -0.2934 0.4579
vn -0.8383 -0.3613 -0.4082
vn -0.8387 -0.4029 0.3665
vn -0.8440 -0.4495 -0.2928
vn -0.8316 -0.4923 0.2571
vn -0.8377 -0.5339 0.1151
vn -0.8330 -0.5372 -0.1326
vn -0.8217 -0.5697 -0.0127
vn -0.8717 0.4605 0.1677
vn -0.8644 0.4992 0.0601
vn -0.8719 0.4017 0.2800
vn -0.8749 0.3003 0.3799
vn -0.8634 -0.1559 -0.4798
vn -0.8602 -0.2689 -0.4332
vn -0.8612 -0.3364 -0.3811
vn -0.8635 -0.4207 -0.2781
vn -0.8671 -0.4698 -0.1655
vn -0.8542 -0.5187 0.0368
vn 0.5773 0.5773 -0.5774
vn 0.5774 0.5774 0.5774
vn 0.5773 -0.5773 0.5774
vn 0.5774 -0.5774 -0.5774
vt -1.737586 1.737586
vt -5.826772 0.000000
vt 0.000000 0.000000
vt 0.000000 25.055120
vt -1.737586 7.144814
vt -4.089186 7.144814
vt -4.089186 1.737586
vt -5.826772 25.055120
vt 0.000000 9.386627
vt 0.000000 0.000000
vt 5.826772 0.000000
vt 0.582677 9.386627
vt 0.582677 25.055120
vt 5.826772 25.055120
vt -0.000000 5.826772
vt -0.000000 0.582677
vt 5.826772 0.582677
vt 5.826772 5.826772
vt -0.582677 9.386627
vt -0.582677 25.055120
vt -0.000000 0.000000
vt -0.000000 9.386627
vt -0.000000 0.000000
vt 5.826772 9.386627
vt -0.000000 9.386627
vt 2.454816 10.326300
vt 2.079955 10.066080
vt 3.001792 8.938177
vt 3.189223 9.068287
vt 1.201092 13.471570
vt 1.165354 13.016640
vt 2.622047 13.016640
vt 2.639916 13.244100
vt 1.221936 11.786390
vt 1.331428 11.343390
vt 2.713851 11.802580
vt 2.659105 12.024080
vt 1.625156 11.854830
vt 1.485093 11.674720
vt 2.561454 10.693190
vt 2.841580 11.053410
vt 1.572185 12.848770
vt 1.382215 12.433870
vt 2.750103 11.933030
vt 2.845088 12.140480
vt 2.179122 10.523400
vt 1.991692 10.393290
vt 2.726099 9.135273
vt 3.100960 9.395492
vt 2.294971 12.927900
vt 2.330709 13.382830
vt 0.874016 13.382830
vt 0.856147 13.155360
vt 2.412456 11.962160
vt 2.602426 12.377060
vt 1.234538 12.877900
vt 1.139553 12.670440
vt 2.321933 12.737330
vt 2.431424 13.180320
vt 0.994256 13.418020
vt 0.939510 13.196520
vt 3.787402 11.513430
vt 4.149431 11.791220
vt 4.427226 12.153250
vt 4.601855 12.574840
vt 4.661417 13.027270
vt 3.365810 11.338800
vt 2.913386 11.279230
vt 4.601855 13.479690
vt 4.427226 13.901280
vt 4.149431 14.263310
vt 4.883266 19.442169
vt 3.787402 14.541110
vt 3.365810 14.715730
vt 4.679532 18.950310
vt 2.913386 14.775300
vt 4.355438 18.527941
vt 3.933071 18.203850
vt 3.441214 18.000111
vt 2.913386 17.930620
vt 4.952756 19.969990
vt 4.883266 20.497820
vt 4.679532 20.989679
vt 4.355438 21.412050
vt 3.933071 21.736139
vt 3.441214 21.939871
vt 2.913386 22.009359
vt 2.385558 18.000111
vt 1.893701 18.203850
vt 1.471333 18.527941
vt 1.147240 18.950310
vt -0.000000 25.055120
vt 2.385558 21.939871
vt 1.893701 21.736139
vt 1.471333 21.412050
vt 1.147240 20.989679
vt 0.943506 20.497820
vt 0.874016 19.969990
vt 0.943506 19.442169
vt 1.677341 14.263310
vt 1.399546 13.901280
vt 1.224917 13.479690
vt 1.165354 13.027270
vt 1.224917 12.574840
vt 1.399546 12.153250
vt 1.677341 11.791220
vt 2.039370 11.513430
vt 2.460962 11.338800
vt 2.039370 14.541110
vt 2.460962 14.715730
vt -0.000000 0.000000
vt 5.826772 0.000000
vt 2.575576 18.709270
vt 2.913386 18.664801
vt 3.251196 18.709270
vt 3.565984 18.839661
vt 2.260787 18.839661
vt 3.836299 19.047079
vt 1.990472 19.047079
vt 4.043719 19.317390
vt 1.783052 19.317390
vt 4.174109 19.632179
vt 1.652663 19.632179
vt 1.608189 19.969990
vt 4.218583 19.969990
vt 4.174109 20.307800
vt 1.652663 20.307800
vt 4.043719 20.622589
vt 1.783052 20.622589
vt 3.836299 20.892910
vt 1.990472 20.892910
vt 3.565984 21.100330
vt 2.260787 21.100330
vt 2.575576 21.230721
vt 3.251196 21.230721
vt 2.913386 21.275190
vt 2.687174 12.183030
vt 2.913386 12.153250
vt 3.139598 12.183030
vt 3.350394 12.270350
vt 2.476378 12.270350
vt 3.531408 12.409240
vt 2.295363 12.409240
vt 2.156466 12.590260
vt 3.670306 12.590260
vt 3.757620 12.801050
vt 2.069151 12.801050
vt 2.039370 13.027270
vt 3.787402 13.027270
vt 3.757620 13.253480
vt 2.069151 13.253480
vt 3.670306 13.464270
vt 2.156466 13.464270
vt 3.531408 13.645290
vt 2.295363 13.645290
vt 3.350394 13.784190
vt 2.476378 13.784190
vt 3.139598 13.871500
vt 2.687174 13.871500
vt 2.913386 13.901280
vt 1.125261 20.055870
vt 1.011153 19.535860
vt 2.373761 19.334970
vt 2.446791 19.667780
vt 1.367973 18.747980
vt 1.167491 18.254789
vt 2.476432 17.826151
vt 2.604741 18.141790
vt 2.629878 11.832870
vt 1.859046 10.691440
vt 2.127463 10.481560
vt 3.049278 11.504950
vt 2.970972 11.933090
vt 2.454305 11.804690
vt 2.878683 10.494360
vt 3.209349 10.576540
vt 2.338539 14.218130
vt 1.919138 13.890210
vt 2.840954 12.866820
vt 3.109370 13.076690
vt 0.995922 20.425819
vt 0.958881 19.894730
vt 2.336220 19.894730
vt 2.359926 20.234619
vt 2.840954 11.947250
vt 1.919138 10.923870
vt 2.338539 10.595940
vt 3.109370 11.737380
vt 0.000000 0.000000
vt 0.000000 5.826772
vt -5.826772 5.826772
vt -5.826772 0.000000
vt 0.958881 19.799761
vt 0.995922 19.268669
vt 2.359926 19.459860
vt 2.336220 19.799761
vt 1.167491 15.949670
vt 1.367973 15.456480
vt 2.604741 16.062670
vt 2.476432 16.378309
vt 1.011153 18.241819
vt 1.125261 17.721809
vt 2.446791 18.109900
vt 2.373761 18.442711
vt 2.645506 13.997620
vt 1.460359 13.295840
vt 1.762830 12.857730
vt 2.839088 13.717230
vt 1.762830 16.687929
vt 1.460359 16.249821
vt 2.645506 15.548050
vt 2.839088 15.828440
vt 2.127463 14.332510
vt 1.859046 14.122640
vt 2.629878 12.981200
vt 3.049278 13.309120
vt 2.494217 12.041420
vt 2.732595 10.684870
vt 3.249262 10.813270
vt 2.824884 12.123600
vt 2.768771 8.093871
vt 2.567289 6.651179
vt 2.790095 6.602021
vt 3.214382 7.995554
vt 2.236430 17.820271
vt 2.436912 18.313459
vt 1.127971 18.742100
vt 0.999662 18.426460
vt 1.382215 10.300240
vt 1.572185 9.885334
vt 2.845088 10.593620
vt 2.750103 10.801070
vt 2.109967 19.814440
vt 2.147007 20.345539
vt 0.769669 20.345539
vt 0.745963 20.005640
vt 2.878683 11.121350
vt 2.454305 9.811022
vt 2.970972 9.682624
vt 3.209349 11.039180
vt 1.527243 16.734131
vt 1.333662 16.453739
vt 2.409919 15.594250
vt 2.712390 16.032360
vt 2.431424 11.615260
vt 2.321933 12.058260
vt 0.939510 11.599070
vt 0.994256 11.377570
vt 2.883402 9.504941
vt 1.666979 8.703525
vt 1.947105 8.343296
vt 3.023465 9.324826
vt 2.436912 15.891000
vt 2.236430 16.384190
vt 0.999662 15.778000
vt 1.127971 15.462360
vt 2.409919 13.951420
vt 1.333662 13.091920
vt 1.527243 12.811530
vt 2.712390 13.513310
vt 2.330709 12.528390
vt 2.294971 12.983320
vt 0.856147 12.755850
vt 0.874016 12.528390
vt 3.001792 8.546620
vt 2.079955 7.418715
vt 2.454816 7.158496
vt 3.189223 8.416511
vt 2.138218 19.288549
vt 2.252326 19.808559
vt 0.889717 20.009451
vt 0.816688 19.676649
vt 3.249262 10.802440
vt 2.732595 10.930840
vt 2.494217 9.574288
vt 2.824884 9.492113
vt 2.147007 19.348949
vt 2.109967 19.880039
vt 0.745963 19.688850
vt 0.769669 19.348949
vt 2.252326 17.969120
vt 2.138218 18.489130
vt 0.816688 18.101030
vt 0.889717 17.768230
vt 2.726099 8.349524
vt 1.991692 7.091510
vt 2.179122 6.961401
vt 3.100960 8.089306
vt 2.948929 8.380919
vt 2.524642 6.987386
vt 2.970253 6.889069
vt 3.171735 8.331760
vt 2.970253 8.895365
vt 2.524642 8.797048
vt 2.948929 7.403515
vt 3.171735 7.452673
vt 1.331428 13.452200
vt 1.221936 13.009200
vt 2.659105 12.771510
vt 2.713851 12.993000
vt 2.561454 9.399098
vt 1.485093 8.417568
vt 1.625156 8.237453
vt 2.841580 9.038870
vt 2.567289 9.133254
vt 2.768771 7.690563
vt 3.214382 7.788880
vt 2.790095 9.182413
vt 1.947105 11.748990
vt 1.666979 11.388760
vt 2.883402 10.587340
vt 3.023465 10.767460
vt 1.165354 12.894580
vt 1.201092 12.439650
vt 2.639916 12.667110
vt 2.622047 12.894580
vt 2.602426 10.357040
vt 2.412456 10.771950
vt 1.139553 10.063660
vt 1.234538 9.856209
vt -1.737586 5.244094
vt -1.737586 5.826772
vt -4.089186 5.826772
vt -4.089186 5.244094
vt -5.244094 1.737586
vt -5.244094 7.144814
vt -5.826772 7.144814
vt -5.826772 1.737586
vt 1.737586 5.826772
vt 1.737586 5.244094
vt 4.089186 5.244094
vt 4.089186 5.826772
vt 5.244094 7.144814
vt 5.244094 1.737586
vt 5.826772 1.737586
vt 5.826772 7.144814
s 1
usemtl wood.019
f 2/1/1 1/2/2 3/3/3
f 3/3/3 4/4/4 2/1/1
f 4/4/4 5/5/5 2/1/1
f 4/4/4 6/6/6 5/5/5
f 1/2/2 2/1/1 7/7/7
f 7/7/7 8/8/8 1/2/2
f 7/7/7 6/6/6 8/8/8
f 6/6/6 4/4/4 8/8/8
f 10/9/9 9/10/10 1/11/2
f 1/11/2 11/12/11 10/9/9
f 1/11/2 12/13/9 11/12/11
f 1/11/2 8/14/8 12/13/9
f 4/15/4 13/16/12 12/17/9
f 12/17/9 8/18/8 4/15/4
f 14/19/13 13/20/12 4/8/4
f 14/19/13 4/8/4 3/2/3
f 14/19/13 3/2/3 15/21/14
f 15/21/14 16/22/15 14/19/13
f 15/23/14 9/11/10 10/24/9
f 10/24/9 16/25/15 15/23/14
usemtl metalMedium.003
f 18/26/16 17/27/17 19/28/18
f 19/28/18 20/29/19 18/26/16
f 22/30/20 21/31/21 23/32/22
f 23/32/22 24/33/23 22/30/20
f 26/34/24 25/35/25 27/36/26
f 27/36/26 28/37/27 26/34/24
f 30/38/28 29/39/29 31/40/30
f 31/40/30 32/41/31 30/38/28
f 34/42/32 33/43/33 35/44/34
f 35/44/34 36/45/35 34/42/32
f 29/46/29 37/47/36 38/48/37
f 38/48/37 31/49/30 29/46/29
f 40/50/38 39/51/39 41/52/40
f 41/52/40 42/53/41 40/50/38
f 32/54/31 43/55/42 44/56/43
f 44/56/43 30/57/28 32/54/31
f 43/58/42 40/59/38 42/60/41
f 42/60/41 44/61/43 43/58/42
f 31/62/30 14/25/13 11/24/11
f 11/24/11 32/63/31 31/62/30
f 11/24/11 43/64/42 32/63/31
f 11/24/11 40/65/38 43/64/42
f 11/24/11 39/66/39 40/65/38
f 11/24/11 12/14/9 39/66/39
f 31/62/30 38/67/37 14/25/13
f 38/67/37 45/68/44 14/25/13
f 12/14/9 46/69/45 39/66/39
f 12/14/9 47/70/46 46/69/45
f 12/14/9 48/71/47 47/70/46
f 12/14/9 49/72/48 48/71/47
f 49/72/48 50/73/49 48/71/47
f 49/72/48 51/74/50 50/73/49
f 49/72/48 52/75/51 51/74/50
f 52/75/51 53/76/52 51/74/50
f 52/75/51 54/77/53 53/76/52
f 54/77/53 55/78/54 53/76/52
f 55/78/54 56/79/55 53/76/52
f 56/79/55 57/80/56 53/76/52
f 12/14/9 58/81/57 49/72/48
f 12/14/9 59/82/58 58/81/57
f 12/14/9 60/83/59 59/82/58
f 12/14/9 61/84/60 60/83/59
f 12/14/9 62/85/61 61/84/60
f 12/14/9 63/86/62 62/85/61
f 12/14/9 64/87/63 63/86/62
f 53/76/52 57/80/56 65/88/64
f 53/76/52 65/88/64 66/89/65
f 53/76/52 66/89/65 67/90/66
f 53/76/52 67/90/66 68/91/67
f 64/87/63 12/14/9 13/92/12
f 69/93/68 64/87/63 13/92/12
f 70/94/69 69/93/68 13/92/12
f 71/95/70 70/94/69 13/92/12
f 72/96/71 71/95/70 13/92/12
f 73/97/72 72/96/71 13/92/12
f 74/98/73 73/97/72 13/92/12
f 75/99/74 74/98/73 13/92/12
f 34/100/32 75/99/74 13/92/12
f 33/101/33 34/100/32 13/92/12
f 22/102/20 33/101/33 13/92/12
f 21/103/21 22/102/20 13/92/12
f 21/103/21 13/92/12 14/25/13
f 14/25/13 26/104/24 21/103/21
f 14/25/13 25/105/25 26/104/24
f 14/25/13 76/106/75 25/105/25
f 14/25/13 77/107/76 76/106/75
f 14/25/13 78/108/77 77/107/76
f 14/25/13 45/68/44 78/108/77
f 34/100/32 17/109/17 75/99/74
f 17/109/17 18/110/16 75/99/74
f 18/110/16 68/91/67 75/99/74
f 18/110/16 53/76/52 68/91/67
f 14/16/13 16/111/15 10/112/9
f 10/112/9 11/17/11 14/16/13
f 80/113/78 79/114/79 81/115/80
f 81/115/80 82/116/81 80/113/78
f 82/116/81 83/117/82 80/113/78
f 82/116/81 84/118/83 83/117/82
f 84/118/83 85/119/84 83/117/82
f 84/118/83 86/120/85 85/119/84
f 86/120/85 87/121/86 85/119/84
f 86/120/85 88/122/87 87/121/86
f 88/122/87 89/123/88 87/121/86
f 88/122/87 90/124/89 89/123/88
f 88/122/87 91/125/90 90/124/89
f 91/125/90 92/126/91 90/124/89
f 92/126/91 93/127/92 90/124/89
f 92/126/91 94/128/93 93/127/92
f 94/128/93 95/129/94 93/127/92
f 94/128/93 96/130/95 95/129/94
f 96/130/95 97/131/96 95/129/94
f 96/130/95 98/132/97 97/131/96
f 98/132/97 99/133/98 97/131/96
f 98/132/97 100/134/99 99/133/98
f 98/132/97 101/135/100 100/134/99
f 101/135/100 102/136/101 100/134/99
f 104/137/102 103/138/103 37/139/36
f 37/139/36 29/140/29 104/137/102
f 29/140/29 105/141/104 104/137/102
f 29/140/29 30/142/28 105/141/104
f 30/142/28 106/143/105 105/141/104
f 30/142/28 27/144/26 106/143/105
f 30/142/28 44/145/43 27/144/26
f 44/145/43 42/146/41 27/144/26
f 42/146/41 28/147/27 27/144/26
f 42/146/41 23/148/22 28/147/27
f 42/146/41 41/149/40 23/148/22
f 41/149/40 107/150/106 23/148/22
f 107/150/106 24/151/23 23/148/22
f 107/150/106 108/152/107 24/151/23
f 108/152/107 35/153/34 24/151/23
f 108/152/107 109/154/108 35/153/34
f 109/154/108 36/155/35 35/153/34
f 109/154/108 110/156/109 36/155/35
f 110/156/109 19/157/18 36/155/35
f 110/156/109 111/158/110 19/157/18
f 111/158/110 20/159/19 19/157/18
f 111/158/110 112/160/111 20/159/19
f 72/161/71 73/162/72 93/163/92
f 93/163/92 95/164/94 72/161/71
f 71/165/70 72/166/71 95/167/94
f 95/167/94 97/168/96 71/165/70
f 63/169/62 101/170/100 98/171/97
f 98/171/97 62/172/61 63/169/62
f 64/173/63 69/174/68 100/175/99
f 100/175/99 102/176/101 64/173/63
f 69/177/68 70/178/69 99/179/98
f 99/179/98 100/180/99 69/177/68
f 73/181/72 74/182/73 90/183/89
f 90/183/89 93/184/92 73/181/72
f 83/185/82 66/186/65 65/187/64
f 65/187/64 80/188/78 83/185/82
f 15/189/14 3/190/3 1/191/2
f 1/191/2 9/192/10 15/189/14
f 74/193/73 75/194/74 89/195/88
f 89/195/88 90/196/89 74/193/73
f 68/197/67 67/198/66 85/199/84
f 85/199/84 87/200/86 68/197/67
f 75/201/74 68/202/67 87/203/86
f 87/203/86 89/204/88 75/201/74
f 85/205/84 67/206/66 66/207/65
f 66/207/65 83/208/82 85/205/84
f 70/209/69 71/210/70 97/211/96
f 97/211/96 99/212/98 70/209/69
f 82/213/81 81/214/80 56/215/55
f 56/215/55 55/216/54 82/213/81
f 79/217/79 57/218/56 56/219/55
f 56/219/55 81/220/80 79/217/79
f 53/221/52 112/222/111 111/223/110
f 111/223/110 51/224/50 53/221/52
f 54/225/53 52/226/51 86/227/85
f 86/227/85 84/228/83 54/225/53
f 25/229/25 76/230/75 106/231/105
f 106/231/105 27/232/26 25/229/25
f 49/233/48 58/234/57 91/235/90
f 91/235/90 88/236/87 49/233/48
f 80/237/78 65/238/64 57/239/56
f 57/239/56 79/240/79 80/237/78
f 84/241/83 82/242/81 55/243/54
f 55/243/54 54/244/53 84/241/83
f 46/245/45 47/246/46 108/247/107
f 108/247/107 107/248/106 46/245/45
f 106/249/105 76/250/75 77/251/76
f 77/251/76 105/252/104 106/249/105
f 60/253/59 61/254/60 96/255/95
f 96/255/95 94/256/93 60/253/59
f 62/257/61 98/258/97 96/259/95
f 96/259/95 61/260/60 62/257/61
f 39/261/39 46/262/45 107/263/106
f 107/263/106 41/264/40 39/261/39
f 105/265/104 77/266/76 78/267/77
f 78/267/77 104/268/102 105/265/104
f 52/269/51 49/270/48 88/271/87
f 88/271/87 86/272/85 52/269/51
f 63/273/62 64/274/63 102/275/101
f 102/275/101 101/276/100 63/273/62
f 58/277/57 59/278/58 92/279/91
f 92/279/91 91/280/90 58/277/57
f 59/281/58 60/282/59 94/283/93
f 94/283/93 92/284/91 59/281/58
f 51/285/50 111/286/110 110/287/109
f 110/287/109 50/288/49 51/285/50
f 104/289/102 78/290/77 45/291/44
f 45/291/44 103/292/103 104/289/102
f 53/293/52 18/294/16 20/295/19
f 20/295/19 112/296/111 53/293/52
f 33/297/33 22/298/20 24/299/23
f 24/299/23 35/300/34 33/297/33
f 50/301/49 110/302/109 109/303/108
f 109/303/108 48/304/47 50/301/49
f 103/305/103 45/306/44 38/307/37
f 38/307/37 37/308/36 103/305/103
f 17/309/17 34/310/32 36/311/35
f 36/311/35 19/312/18 17/309/17
f 21/313/21 26/314/24 28/315/27
f 28/315/27 23/316/22 21/313/21
f 47/317/46 48/318/47 109/319/108
f 109/319/108 108/320/107 47/317/46
f 114/7/112 113/1/113 115/5/114
f 115/5/114 116/6/115 114/7/112
f 115/321/114 5/322/5 6/323/6
f 6/323/6 116/324/115 115/321/114
f 114/325/112 116/326/115 6/327/6
f 6/327/6 7/328/7 114/325/112
f 2/329/1 113/330/113 114/331/112
f 114/331/112 7/332/7 2/329/1
f 115/333/114 113/334/113 2/335/1
f 2/335/1 5/336/5 115/333/114
