# Blender 5.1.1
# www.blender.org
mtllib speaker-right-back.mtl
o speaker.003
v 9.812986 1.000000 -4.584006
v 9.739827 1.090892 -4.785009
v 9.708740 1.000000 -4.870419
v 9.708740 2.310614 -4.870419
v 9.739827 1.373740 -4.785009
v 9.781899 1.373740 -4.669417
v 9.781899 1.090892 -4.669417
v 9.812986 2.310614 -4.584006
v 9.526573 1.000000 -4.479761
v 9.526573 1.491007 -4.479761
v 9.555215 1.491007 -4.490185
v 9.555215 2.310614 -4.490185
v 9.450969 2.310614 -4.776598
v 9.450969 1.491007 -4.776598
v 9.422328 1.000000 -4.766173
v 9.422328 1.491007 -4.766173
v 9.487455 1.760634 -4.676353
v 9.494998 1.769769 -4.655630
v 9.552556 1.721040 -4.675722
v 9.556328 1.725607 -4.665360
v 9.471818 1.681446 -4.719316
v 9.472884 1.705112 -4.716388
v 9.544738 1.681446 -4.697203
v 9.545271 1.693279 -4.695739
v 9.476008 1.635727 -4.707804
v 9.472884 1.657780 -4.716388
v 9.546833 1.658587 -4.691447
v 9.545271 1.669613 -4.695739
v 9.568193 1.641852 -4.632760
v 9.571431 1.649118 -4.623862
v 9.518729 1.602258 -4.590430
v 9.525206 1.616790 -4.572634
v 9.476008 1.727165 -4.707804
v 9.480978 1.746103 -4.694149
v 9.546833 1.704305 -4.691447
v 9.549317 1.713774 -4.684619
v 9.564422 1.637285 -4.643121
v 9.511187 1.593123 -4.611153
v 9.534366 1.681446 -4.547468
v 9.533300 1.657780 -4.550395
v 9.576012 1.681446 -4.611279
v 9.575479 1.669613 -4.612743
v 9.530176 1.635727 -4.558980
v 9.573916 1.658587 -4.617035
v 9.503092 1.590008 -4.633392
v 9.533300 1.705112 -4.550395
v 9.530176 1.727165 -4.558980
v 9.525206 1.746103 -4.572634
v 9.538335 2.017004 -4.536563
v 9.518729 1.760634 -4.590430
v 9.511187 1.769769 -4.611153
v 9.534690 1.991276 -4.546577
v 9.503092 1.772884 -4.633392
v 9.528892 1.969182 -4.562508
v 9.521335 1.952229 -4.583270
v 9.512535 1.941572 -4.607447
v 9.503092 1.937937 -4.633392
v 9.539577 2.044615 -4.533147
v 9.538335 2.072225 -4.536563
v 9.534690 2.097954 -4.546577
v 9.528892 2.120047 -4.562508
v 9.521335 2.137000 -4.583270
v 9.512535 2.147657 -4.607447
v 9.503092 2.151292 -4.633392
v 9.493649 1.941572 -4.659337
v 9.484849 1.952229 -4.683514
v 9.477292 1.969182 -4.704275
v 9.471495 1.991276 -4.720206
v 9.493649 2.147657 -4.659337
v 9.484849 2.137000 -4.683514
v 9.477292 2.120047 -4.704275
v 9.471495 2.097954 -4.720206
v 9.467849 2.072225 -4.730220
v 9.466606 2.044615 -4.733636
v 9.467849 2.017004 -4.730220
v 9.480978 1.616790 -4.694149
v 9.487455 1.602258 -4.676353
v 9.494998 1.593123 -4.655631
v 9.560374 1.976341 -4.654241
v 9.554331 1.978667 -4.670846
v 9.566419 1.978667 -4.637636
v 9.572050 1.985488 -4.622162
v 9.548699 1.985488 -4.686319
v 9.576886 1.996338 -4.608875
v 9.543863 1.996338 -4.699606
v 9.580597 2.010478 -4.598680
v 9.540152 2.010478 -4.709802
v 9.582930 2.026944 -4.592270
v 9.537819 2.026944 -4.716211
v 9.537024 2.044615 -4.718397
v 9.583726 2.044615 -4.590085
v 9.582930 2.062285 -4.592270
v 9.537819 2.062285 -4.716211
v 9.580597 2.078752 -4.598680
v 9.540152 2.078752 -4.709802
v 9.576886 2.092892 -4.608875
v 9.543863 2.092892 -4.699606
v 9.572050 2.103742 -4.622162
v 9.548699 2.103742 -4.686319
v 9.554331 2.110562 -4.670846
v 9.566419 2.110562 -4.637636
v 9.560374 2.112888 -4.654241
v 9.560374 1.635727 -4.654241
v 9.556328 1.637285 -4.665360
v 9.552556 1.641852 -4.675722
v 9.549317 1.649118 -4.684619
v 9.575479 1.693279 -4.612743
v 9.573916 1.704305 -4.617035
v 9.571431 1.713774 -4.623862
v 9.568192 1.721040 -4.632760
v 9.564422 1.725607 -4.643121
v 9.560374 1.727165 -4.654241
v 9.711186 1.090892 -4.774584
v 9.753258 1.090892 -4.658992
v 9.711186 1.373740 -4.774584
v 9.753258 1.373740 -4.658992
vn 0.9531 0.3015 -0.0260
vn 0.7400 -0.5774 0.3450
vn 0.3451 -0.5773 -0.7400
vn 0.3451 0.5774 -0.7400
vn 0.9531 -0.3015 -0.0260
vn 0.7469 -0.3015 -0.5927
vn 0.7469 0.3015 -0.5927
vn 0.7400 0.5773 0.3451
vn -0.3451 0.5774 0.7400
vn -0.3451 -0.5774 0.7400
vn 0.0261 0.3015 0.9531
vn -0.3450 0.5774 0.7400
vn -0.7400 0.5774 -0.3451
vn -0.5927 0.3015 -0.7469
vn -0.7400 -0.5774 -0.3451
vn -0.8328 -0.4239 0.3561
vn -0.7411 -0.4172 0.5261
vn -0.7739 -0.3926 0.4969
vn -0.8133 -0.4464 0.3731
vn -0.7154 -0.1776 0.6758
vn -0.6699 -0.0000 0.7425
vn -0.6874 -0.0128 0.7262
vn -0.6919 -0.1467 0.7070
vn -0.7027 0.0407 0.7103
vn -0.6811 0.2407 0.6915
vn -0.7062 0.2119 0.6755
vn -0.6846 0.0752 0.7250
vn -0.9531 0.3021 -0.0201
vn -0.9059 0.4057 0.1211
vn -0.9071 0.4113 0.0899
vn -0.9400 0.3407 -0.0204
vn -0.7624 -0.3414 0.5497
vn -0.6817 -0.2403 0.6911
vn -0.7146 -0.2389 0.6575
vn -0.7375 -0.3410 0.5829
vn -0.8521 0.4714 0.2273
vn -0.8591 0.4742 0.1926
vn -0.9823 0.1783 -0.0578
vn -0.9904 -0.0000 -0.1382
vn -0.9938 0.0313 -0.1067
vn -0.9851 0.1394 -0.1003
vn -0.9662 0.2407 -0.0920
vn -0.9683 0.2473 -0.0359
vn -0.8875 0.3823 0.2574
vn -0.9824 -0.1776 -0.0579
vn -0.9619 -0.2733 -0.0019
vn -0.9415 -0.3312 0.0614
vn -0.9912 0.0727 -0.1103
vn -0.8996 -0.4028 0.1690
vn -0.8669 -0.4239 0.2625
vn -0.9827 0.1673 -0.0795
vn -0.8395 -0.4201 0.3445
vn -0.9679 0.2507 -0.0205
vn -0.9439 0.3218 0.0736
vn -0.9155 0.3559 0.1878
vn -0.8692 0.3800 0.3164
vn -0.9891 -0.0743 -0.1271
vn -0.9770 -0.1914 -0.0942
vn -0.9548 -0.2952 -0.0337
vn -0.9292 -0.3672 0.0414
vn -0.8875 -0.4354 0.1510
vn -0.8426 -0.4657 0.2705
vn -0.8117 -0.4569 0.3638
vn -0.8196 0.3655 0.4412
vn -0.7704 0.3218 0.5503
vn -0.7288 0.2644 0.6316
vn -0.6978 0.1690 0.6960
vn -0.7661 -0.4223 0.4845
vn -0.7309 -0.3577 0.5813
vn -0.7028 -0.2691 0.6586
vn -0.6836 -0.1627 0.7115
vn -0.6745 -0.0456 0.7368
vn -0.6760 0.0744 0.7331
vn -0.6891 0.1607 0.7067
vn -0.7622 0.3400 0.5508
vn -0.7978 0.4028 0.4487
vn -0.8350 0.4274 0.3465
vn -0.7376 0.4952 0.4591
vn -0.7700 0.5352 0.3474
vn -0.8740 0.4524 0.1770
vn -0.9130 0.4067 0.0326
vn -0.6966 0.4323 0.5726
vn -0.9435 0.3244 -0.0671
vn -0.6660 0.3306 0.6687
vn -0.9653 0.2180 -0.1440
vn -0.6237 0.2499 0.7406
vn -0.9757 0.1035 -0.1932
vn -0.5977 0.1214 0.7925
vn -0.6101 -0.0240 0.7919
vn -0.9755 -0.0449 -0.2152
vn -0.9663 -0.1665 -0.1965
vn -0.6118 -0.1643 0.7738
vn -0.9457 -0.2880 -0.1507
vn -0.6320 -0.2934 0.7173
vn -0.9274 -0.3613 -0.0969
vn -0.6628 -0.4029 0.6312
vn -0.8932 -0.4495 0.0135
vn -0.6935 -0.4923 0.5260
vn -0.7478 -0.5339 0.3947
vn -0.8281 -0.5372 0.1603
vn -0.7765 -0.5697 0.2692
vn -0.7617 0.4605 0.4557
vn -0.7917 0.4992 0.3521
vn -0.7236 0.4017 0.5613
vn -0.6922 0.3003 0.6562
vn -0.9755 -0.1559 -0.1556
vn -0.9565 -0.2689 -0.1129
vn -0.9396 -0.3364 -0.0636
vn -0.9066 -0.4207 0.0340
vn -0.8715 -0.4698 0.1410
vn -0.7901 -0.5187 0.3267
vn 0.3450 0.5773 -0.7400
vn 0.7400 0.5774 0.3451
vn 0.7400 -0.5773 0.3451
vn 0.3451 -0.5774 -0.7400
vt -1.737586 1.737586
vt -5.826772 0.000000
vt 0.000000 0.000000
vt 0.000000 25.055120
vt -1.737586 7.144814
vt -4.089186 7.144814
vt -4.089186 1.737586
vt -5.826772 25.055120
vt 0.000000 9.386627
vt 0.000000 0.000000
vt 5.826772 0.000000
vt 0.582677 9.386627
vt 0.582677 25.055120
vt 5.826772 25.055120
vt -0.000000 5.826772
vt -0.000000 0.582677
vt 5.826772 0.582677
vt 5.826772 5.826772
vt -0.582677 9.386627
vt -0.582677 25.055120
vt -0.000000 0.000000
vt -0.000000 9.386627
vt -0.000000 0.000000
vt 5.826772 9.386627
vt -0.000000 9.386627
vt 2.454816 10.326300
vt 2.079955 10.066080
vt 3.001792 8.938177
vt 3.189223 9.068287
vt 1.201092 13.471570
vt 1.165354 13.016640
vt 2.622047 13.016640
vt 2.639916 13.244100
vt 1.221936 11.786390
vt 1.331428 11.343390
vt 2.713851 11.802580
vt 2.659105 12.024080
vt 1.625156 11.854830
vt 1.485093 11.674720
vt 2.561454 10.693190
vt 2.841580 11.053410
vt 1.572185 12.848770
vt 1.382215 12.433870
vt 2.750103 11.933030
vt 2.845088 12.140480
vt 2.179122 10.523400
vt 1.991692 10.393290
vt 2.726099 9.135273
vt 3.100960 9.395492
vt 2.294971 12.927900
vt 2.330709 13.382830
vt 0.874016 13.382830
vt 0.856147 13.155360
vt 2.412456 11.962160
vt 2.602426 12.377060
vt 1.234538 12.877900
vt 1.139553 12.670440
vt 2.321933 12.737330
vt 2.431424 13.180320
vt 0.994256 13.418020
vt 0.939510 13.196520
vt 3.787402 11.513430
vt 4.149431 11.791220
vt 4.427226 12.153250
vt 4.601855 12.574840
vt 4.661417 13.027270
vt 3.365810 11.338800
vt 2.913386 11.279230
vt 4.601855 13.479690
vt 4.427226 13.901280
vt 4.149431 14.263310
vt 4.883266 19.442169
vt 3.787402 14.541110
vt 3.365810 14.715730
vt 4.679532 18.950310
vt 2.913386 14.775300
vt 4.355438 18.527941
vt 3.933071 18.203850
vt 3.441214 18.000111
vt 2.913386 17.930620
vt 4.952756 19.969990
vt 4.883266 20.497820
vt 4.679532 20.989679
vt 4.355438 21.412050
vt 3.933071 21.736139
vt 3.441214 21.939871
vt 2.913386 22.009359
vt 2.385558 18.000111
vt 1.893701 18.203850
vt 1.471333 18.527941
vt 1.147240 18.950310
vt -0.000000 25.055120
vt 2.385558 21.939871
vt 1.893701 21.736139
vt 1.471333 21.412050
vt 1.147240 20.989679
vt 0.943506 20.497820
vt 0.874016 19.969990
vt 0.943506 19.442169
vt 1.677341 14.263310
vt 1.399546 13.901280
vt 1.224917 13.479690
vt 1.165354 13.027270
vt 1.224917 12.574840
vt 1.399546 12.153250
vt 1.677341 11.791220
vt 2.039370 11.513430
vt 2.460962 11.338800
vt 2.039370 14.541110
vt 2.460962 14.715730
vt -0.000000 0.000000
vt 5.826772 0.000000
vt 2.575576 18.709270
vt 2.913386 18.664801
vt 3.251196 18.709270
vt 3.565984 18.839661
vt 2.260787 18.839661
vt 3.836299 19.047079
vt 1.990472 19.047079
vt 4.043719 19.317390
vt 1.783052 19.317390
vt 4.174109 19.632179
vt 1.652663 19.632179
vt 1.608189 19.969990
vt 4.218583 19.969990
vt 4.174109 20.307800
vt 1.652663 20.307800
vt 4.043719 20.622589
vt 1.783052 20.622589
vt 3.836299 20.892910
vt 1.990472 20.892910
vt 3.565984 21.100330
vt 2.260787 21.100330
vt 2.575576 21.230721
vt 3.251196 21.230721
vt 2.913386 21.275190
vt 2.687174 12.183030
vt 2.913386 12.153250
vt 3.139598 12.183030
vt 3.350394 12.270350
vt 2.476378 12.270350
vt 3.531408 12.409240
vt 2.295363 12.409240
vt 2.156466 12.590260
vt 3.670306 12.590260
vt 3.757620 12.801050
vt 2.069151 12.801050
vt 2.039370 13.027270
vt 3.787402 13.027270
vt 3.757620 13.253480
vt 2.069151 13.253480
vt 3.670306 13.464270
vt 2.156466 13.464270
vt 3.531408 13.645290
vt 2.295363 13.645290
vt 3.350394 13.784190
vt 2.476378 13.784190
vt 3.139598 13.871500
vt 2.687174 13.871500
vt 2.913386 13.901280
vt 1.125261 20.055870
vt 1.011153 19.535860
vt 2.373761 19.334970
vt 2.446791 19.667780
vt 1.367973 18.747980
vt 1.167491 18.254789
vt 2.476432 17.826151
vt 2.604741 18.141790
vt 2.629878 11.832870
vt 1.859046 10.691440
vt 2.127463 10.481560
vt 3.049278 11.504950
vt 2.970972 11.933090
vt 2.454305 11.804690
vt 2.878683 10.494360
vt 3.209349 10.576540
vt 2.338539 14.218130
vt 1.919138 13.890210
vt 2.840954 12.866820
vt 3.109370 13.076690
vt 0.995922 20.425819
vt 0.958881 19.894730
vt 2.336220 19.894730
vt 2.359926 20.234619
vt 2.840954 11.947250
vt 1.919138 10.923870
vt 2.338539 10.595940
vt 3.109370 11.737380
vt 0.000000 0.000000
vt 0.000000 5.826772
vt -5.826772 5.826772
vt -5.826772 0.000000
vt 0.958881 19.799761
vt 0.995922 19.268669
vt 2.359926 19.459860
vt 2.336220 19.799761
vt 1.167491 15.949670
vt 1.367973 15.456480
vt 2.604741 16.062670
vt 2.476432 16.378309
vt 1.011153 18.241819
vt 1.125261 17.721809
vt 2.446791 18.109900
vt 2.373761 18.442711
vt 2.645506 13.997620
vt 1.460359 13.295840
vt 1.762830 12.857730
vt 2.839088 13.717230
vt 1.762830 16.687929
vt 1.460359 16.249821
vt 2.645506 15.548050
vt 2.839088 15.828440
vt 2.127463 14.332510
vt 1.859046 14.122640
vt 2.629878 12.981200
vt 3.049278 13.309120
vt 2.494217 12.041420
vt 2.732595 10.684870
vt 3.249262 10.813270
vt 2.824884 12.123600
vt 2.768771 8.093871
vt 2.567289 6.651179
vt 2.790095 6.602021
vt 3.214382 7.995554
vt 2.236430 17.820271
vt 2.436912 18.313459
vt 1.127971 18.742100
vt 0.999662 18.426460
vt 1.382215 10.300240
vt 1.572185 9.885334
vt 2.845088 10.593620
vt 2.750103 10.801070
vt 2.109967 19.814440
vt 2.147007 20.345539
vt 0.769669 20.345539
vt 0.745963 20.005640
vt 2.878683 11.121350
vt 2.454305 9.811022
vt 2.970972 9.682624
vt 3.209349 11.039180
vt 1.527243 16.734131
vt 1.333662 16.453739
vt 2.409919 15.594250
vt 2.712390 16.032360
vt 2.431424 11.615260
vt 2.321933 12.058260
vt 0.939510 11.599070
vt 0.994256 11.377570
vt 2.883402 9.504941
vt 1.666979 8.703525
vt 1.947105 8.343296
vt 3.023465 9.324826
vt 2.436912 15.891000
vt 2.236430 16.384190
vt 0.999662 15.778000
vt 1.127971 15.462360
vt 2.409919 13.951420
vt 1.333662 13.091920
vt 1.527243 12.811530
vt 2.712390 13.513310
vt 2.330709 12.528390
vt 2.294971 12.983320
vt 0.856147 12.755850
vt 0.874016 12.528390
vt 3.001792 8.546620
vt 2.079955 7.418715
vt 2.454816 7.158496
vt 3.189223 8.416511
vt 2.138218 19.288549
vt 2.252326 19.808559
vt 0.889717 20.009451
vt 0.816688 19.676649
vt 3.249262 10.802440
vt 2.732595 10.930840
vt 2.494217 9.574288
vt 2.824884 9.492113
vt 2.147007 19.348949
vt 2.109967 19.880039
vt 0.745963 19.688850
vt 0.769669 19.348949
vt 2.252326 17.969120
vt 2.138218 18.489130
vt 0.816688 18.101030
vt 0.889717 17.768230
vt 2.726099 8.349524
vt 1.991692 7.091510
vt 2.179122 6.961401
vt 3.100960 8.089306
vt 2.948929 8.380919
vt 2.524642 6.987386
vt 2.970253 6.889069
vt 3.171735 8.331760
vt 2.970253 8.895365
vt 2.524642 8.797048
vt 2.948929 7.403515
vt 3.171735 7.452673
vt 1.331428 13.452200
vt 1.221936 13.009200
vt 2.659105 12.771510
vt 2.713851 12.993000
vt 2.561454 9.399098
vt 1.485093 8.417568
vt 1.625156 8.237453
vt 2.841580 9.038870
vt 2.567289 9.133254
vt 2.768771 7.690563
vt 3.214382 7.788880
vt 2.790095 9.182413
vt 1.947105 11.748990
vt 1.666979 11.388760
vt 2.883402 10.587340
vt 3.023465 10.767460
vt 1.165354 12.894580
vt 1.201092 12.439650
vt 2.639916 12.667110
vt 2.622047 12.894580
vt 2.602426 10.357040
vt 2.412456 10.771950
vt 1.139553 10.063660
vt 1.234538 9.856209
vt -1.737586 5.244094
vt -1.737586 5.826772
vt -4.089186 5.826772
vt -4.089186 5.244094
vt -5.244094 1.737586
vt -5.244094 7.144814
vt -5.826772 7.144814
vt -5.826772 1.737586
vt 1.737586 5.826772
vt 1.737586 5.244094
vt 4.089186 5.244094
vt 4.089186 5.826772
vt 5.244094 7.144814
vt 5.244094 1.737586
vt 5.826772 1.737586
vt 5.826772 7.144814
s 1
usemtl wood.022
f 2/1/1 1/2/2 3/3/3
f 3/3/3 4/4/4 2/1/1
f 4/4/4 5/5/5 2/1/1
f 4/4/4 6/6/6 5/5/5
f 1/2/2 2/1/1 7/7/7
f 7/7/7 8/8/8 1/2/2
f 7/7/7 6/6/6 8/8/8
f 6/6/6 4/4/4 8/8/8
f 10/9/9 9/10/10 1/11/2
f 1/11/2 11/12/11 10/9/9
f 1/11/2 12/13/12 11/12/11
f 1/11/2 8/14/8 12/13/12
f 4/15/4 13/16/13 12/17/12
f 12/17/12 8/18/8 4/15/4
f 14/19/14 13/20/13 4/8/4
f 14/19/14 4/8/4 3/2/3
f 14/19/14 3/2/3 15/21/15
f 15/21/15 16/22/13 14/19/14
f 15/23/15 9/11/10 10/24/9
f 10/24/9 16/25/13 15/23/15
usemtl metalMedium.006
f 18/26/16 17/27/17 19/28/18
f 19/28/18 20/29/19 18/26/16
f 22/30/20 21/31/21 23/32/22
f 23/32/22 24/33/23 22/30/20
f 26/34/24 25/35/25 27/36/26
f 27/36/26 28/37/27 26/34/24
f 30/38/28 29/39/29 31/40/30
f 31/40/30 32/41/31 30/38/28
f 34/42/32 33/43/33 35/44/34
f 35/44/34 36/45/35 34/42/32
f 29/46/29 37/47/36 38/48/37
f 38/48/37 31/49/30 29/46/29
f 40/50/38 39/51/39 41/52/40
f 41/52/40 42/53/41 40/50/38
f 32/54/31 43/55/42 44/56/43
f 44/56/43 30/57/28 32/54/31
f 43/58/42 40/59/38 42/60/41
f 42/60/41 44/61/43 43/58/42
f 31/62/30 14/25/14 11/24/11
f 11/24/11 32/63/31 31/62/30
f 11/24/11 43/64/42 32/63/31
f 11/24/11 40/65/38 43/64/42
f 11/24/11 39/66/39 40/65/38
f 11/24/11 12/14/12 39/66/39
f 31/62/30 38/67/37 14/25/14
f 38/67/37 45/68/44 14/25/14
f 12/14/12 46/69/45 39/66/39
f 12/14/12 47/70/46 46/69/45
f 12/14/12 48/71/47 47/70/46
f 12/14/12 49/72/48 48/71/47
f 49/72/48 50/73/49 48/71/47
f 49/72/48 51/74/50 50/73/49
f 49/72/48 52/75/51 51/74/50
f 52/75/51 53/76/52 51/74/50
f 52/75/51 54/77/53 53/76/52
f 54/77/53 55/78/54 53/76/52
f 55/78/54 56/79/55 53/76/52
f 56/79/55 57/80/56 53/76/52
f 12/14/12 58/81/57 49/72/48
f 12/14/12 59/82/58 58/81/57
f 12/14/12 60/83/59 59/82/58
f 12/14/12 61/84/60 60/83/59
f 12/14/12 62/85/61 61/84/60
f 12/14/12 63/86/62 62/85/61
f 12/14/12 64/87/63 63/86/62
f 53/76/52 57/80/56 65/88/64
f 53/76/52 65/88/64 66/89/65
f 53/76/52 66/89/65 67/90/66
f 53/76/52 67/90/66 68/91/67
f 64/87/63 12/14/12 13/92/13
f 69/93/68 64/87/63 13/92/13
f 70/94/69 69/93/68 13/92/13
f 71/95/70 70/94/69 13/92/13
f 72/96/71 71/95/70 13/92/13
f 73/97/72 72/96/71 13/92/13
f 74/98/73 73/97/72 13/92/13
f 75/99/74 74/98/73 13/92/13
f 34/100/32 75/99/74 13/92/13
f 33/101/33 34/100/32 13/92/13
f 22/102/20 33/101/33 13/92/13
f 21/103/21 22/102/20 13/92/13
f 21/103/21 13/92/13 14/25/14
f 14/25/14 26/104/24 21/103/21
f 14/25/14 25/105/25 26/104/24
f 14/25/14 76/106/75 25/105/25
f 14/25/14 77/107/76 76/106/75
f 14/25/14 78/108/77 77/107/76
f 14/25/14 45/68/44 78/108/77
f 34/100/32 17/109/17 75/99/74
f 17/109/17 18/110/16 75/99/74
f 18/110/16 68/91/67 75/99/74
f 18/110/16 53/76/52 68/91/67
f 14/16/14 16/111/13 10/112/9
f 10/112/9 11/17/11 14/16/14
f 80/113/78 79/114/79 81/115/80
f 81/115/80 82/116/81 80/113/78
f 82/116/81 83/117/82 80/113/78
f 82/116/81 84/118/83 83/117/82
f 84/118/83 85/119/84 83/117/82
f 84/118/83 86/120/85 85/119/84
f 86/120/85 87/121/86 85/119/84
f 86/120/85 88/122/87 87/121/86
f 88/122/87 89/123/88 87/121/86
f 88/122/87 90/124/89 89/123/88
f 88/122/87 91/125/90 90/124/89
f 91/125/90 92/126/91 90/124/89
f 92/126/91 93/127/92 90/124/89
f 92/126/91 94/128/93 93/127/92
f 94/128/93 95/129/94 93/127/92
f 94/128/93 96/130/95 95/129/94
f 96/130/95 97/131/96 95/129/94
f 96/130/95 98/132/97 97/131/96
f 98/132/97 99/133/98 97/131/96
f 98/132/97 100/134/99 99/133/98
f 98/132/97 101/135/100 100/134/99
f 101/135/100 102/136/101 100/134/99
f 104/137/102 103/138/103 37/139/36
f 37/139/36 29/140/29 104/137/102
f 29/140/29 105/141/104 104/137/102
f 29/140/29 30/142/28 105/141/104
f 30/142/28 106/143/105 105/141/104
f 30/142/28 27/144/26 106/143/105
f 30/142/28 44/145/43 27/144/26
f 44/145/43 42/146/41 27/144/26
f 42/146/41 28/147/27 27/144/26
f 42/146/41 23/148/22 28/147/27
f 42/146/41 41/149/40 23/148/22
f 41/149/40 107/150/106 23/148/22
f 107/150/106 24/151/23 23/148/22
f 107/150/106 108/152/107 24/151/23
f 108/152/107 35/153/34 24/151/23
f 108/152/107 109/154/108 35/153/34
f 109/154/108 36/155/35 35/153/34
f 109/154/108 110/156/109 36/155/35
f 110/156/109 19/157/18 36/155/35
f 110/156/109 111/158/110 19/157/18
f 111/158/110 20/159/19 19/157/18
f 111/158/110 112/160/111 20/159/19
f 72/161/71 73/162/72 93/163/92
f 93/163/92 95/164/94 72/161/71
f 71/165/70 72/166/71 95/167/94
f 95/167/94 97/168/96 71/165/70
f 63/169/62 101/170/100 98/171/97
f 98/171/97 62/172/61 63/169/62
f 64/173/63 69/174/68 100/175/99
f 100/175/99 102/176/101 64/173/63
f 69/177/68 70/178/69 99/179/98
f 99/179/98 100/180/99 69/177/68
f 73/181/72 74/182/73 90/183/89
f 90/183/89 93/184/92 73/181/72
f 83/185/82 66/186/65 65/187/64
f 65/187/64 80/188/78 83/185/82
f 15/189/15 3/190/3 1/191/2
f 1/191/2 9/192/10 15/189/15
f 74/193/73 75/194/74 89/195/88
f 89/195/88 90/196/89 74/193/73
f 68/197/67 67/198/66 85/199/84
f 85/199/84 87/200/86 68/197/67
f 75/201/74 68/202/67 87/203/86
f 87/203/86 89/204/88 75/201/74
f 85/205/84 67/206/66 66/207/65
f 66/207/65 83/208/82 85/205/84
f 70/209/69 71/210/70 97/211/96
f 97/211/96 99/212/98 70/209/69
f 82/213/81 81/214/80 56/215/55
f 56/215/55 55/216/54 82/213/81
f 79/217/79 57/218/56 56/219/55
f 56/219/55 81/220/80 79/217/79
f 53/221/52 112/222/111 111/223/110
f 111/223/110 51/224/50 53/221/52
f 54/225/53 52/226/51 86/227/85
f 86/227/85 84/228/83 54/225/53
f 25/229/25 76/230/75 106/231/105
f 106/231/105 27/232/26 25/229/25
f 49/233/48 58/234/57 91/235/90
f 91/235/90 88/236/87 49/233/48
f 80/237/78 65/238/64 57/239/56
f 57/239/56 79/240/79 80/237/78
f 84/241/83 82/242/81 55/243/54
f 55/243/54 54/244/53 84/241/83
f 46/245/45 47/246/46 108/247/107
f 108/247/107 107/248/106 46/245/45
f 106/249/105 76/250/75 77/251/76
f 77/251/76 105/252/104 106/249/105
f 60/253/59 61/254/60 96/255/95
f 96/255/95 94/256/93 60/253/59
f 62/257/61 98/258/97 96/259/95
f 96/259/95 61/260/60 62/257/61
f 39/261/39 46/262/45 107/263/106
f 107/263/106 41/264/40 39/261/39
f 105/265/104 77/266/76 78/267/77
f 78/267/77 104/268/102 105/265/104
f 52/269/51 49/270/48 88/271/87
f 88/271/87 86/272/85 52/269/51
f 63/273/62 64/274/63 102/275/101
f 102/275/101 101/276/100 63/273/62
f 58/277/57 59/278/58 92/279/91
f 92/279/91 91/280/90 58/277/57
f 59/281/58 60/282/59 94/283/93
f 94/283/93 92/284/91 59/281/58
f 51/285/50 111/286/110 110/287/109
f 110/287/109 50/288/49 51/285/50
f 104/289/102 78/290/77 45/291/44
f 45/291/44 103/292/103 104/289/102
f 53/293/52 18/294/16 20/295/19
f 20/295/19 112/296/111 53/293/52
f 33/297/33 22/298/20 24/299/23
f 24/299/23 35/300/34 33/297/33
f 50/301/49 110/302/109 109/303/108
f 109/303/108 48/304/47 50/301/49
f 103/305/103 45/306/44 38/307/37
f 38/307/37 37/308/36 103/305/103
f 17/309/17 34/310/32 36/311/35
f 36/311/35 19/312/18 17/309/17
f 21/313/21 26/314/24 28/315/27
f 28/315/27 23/316/22 21/313/21
f 47/317/46 48/318/47 109/319/108
f 109/319/108 108/320/107 47/317/46
f 114/7/112 113/1/113 115/5/114
f 115/5/114 116/6/115 114/7/112
f 115/321/114 5/322/5 6/323/6
f 6/323/6 116/324/115 115/321/114
f 114/325/112 116/326/115 6/327/6
f 6/327/6 7/328/7 114/325/112
f 2/329/1 113/330/113 114/331/112
f 114/331/112 7/332/7 2/329/1
f 115/333/114 113/334/113 2/335/1
f 2/335/1 5/336/5 115/333/114
