# Blender 4.3.2
# www.blender.org
mtllib spotlight-lamp-2.mtl
o spotlight-lamp-2
v -0.025882 -0.220000 -0.096593
v -0.070711 -0.220000 -0.070711
v -0.096593 -0.220000 -0.025882
v -0.096593 -0.220000 0.025882
v -0.070711 -0.220000 0.070711
v -0.025882 -0.220000 0.096593
v 0.025882 -0.220000 0.096593
v 0.070711 -0.220000 0.070711
v 0.096593 -0.220000 0.025882
v 0.096593 -0.220000 -0.025882
v 0.070711 -0.220000 -0.070711
v 0.025882 -0.220000 -0.096593
v -0.025882 -0.195119 -0.096593
v -0.070711 -0.195119 -0.070711
v -0.096593 -0.195119 -0.025882
v -0.096593 -0.195119 0.025882
v -0.070711 -0.195119 0.070711
v -0.025882 -0.195119 0.096593
v 0.025882 -0.195119 0.096593
v 0.070711 -0.195119 0.070711
v 0.096593 -0.195119 0.025882
v 0.096593 -0.195119 -0.025882
v 0.070711 -0.195119 -0.070711
v 0.025882 -0.195119 -0.096593
v -0.125000 -0.165851 0.125000
v 0.125000 -0.165851 0.125000
v -0.125000 -0.165851 -0.125000
v 0.125000 -0.165851 -0.125000
v -0.125000 0.159341 0.125000
v 0.125000 0.159341 0.125000
v -0.125000 0.159341 -0.125000
v 0.125000 0.159341 -0.125000
v -0.125000 -0.242756 -0.225000
v 0.125000 -0.242756 -0.225000
v -0.225000 -0.242756 0.125000
v -0.225000 -0.242756 -0.125000
v -0.125000 -0.242756 0.225000
v 0.125000 -0.242756 0.225000
v 0.225000 -0.242756 0.125000
v 0.225000 -0.242756 -0.125000
vn 0.5000 -0.0000 0.8660
vn -0.8660 -0.0000 -0.5000
vn 0.5000 -0.0000 -0.8660
vn -0.0000 -0.0000 1.0000
vn 0.8660 -0.0000 0.5000
vn -1.0000 -0.0000 -0.0000
vn -0.0000 -0.0000 -1.0000
vn 1.0000 -0.0000 -0.0000
vn -0.8660 -0.0000 0.5000
vn -0.5000 -0.0000 -0.8660
vn 0.8660 -0.0000 -0.5000
vn -0.5000 -0.0000 0.8660
vn 0.1836 0.9302 -0.3179
vn 0.3179 0.9302 0.1836
vn 0.7176 0.6965 -0.0000
vn 0.3179 0.9302 -0.1836
vn -0.1836 0.9302 -0.3179
vn -0.3179 0.9302 -0.1836
vn -0.1836 0.9302 0.3179
vn -0.3179 0.9302 0.1836
vn 0.1836 0.9302 0.3179
vn -0.7176 0.6965 -0.0000
vn -0.0000 0.6965 0.7176
vn -0.0000 0.6965 -0.7176
vn -0.0000 -1.0000 -0.0000
vn -0.0000 1.0000 -0.0000
vn -0.0000 -0.7927 0.6096
vn 0.6096 -0.7927 -0.0000
vn -0.0000 -0.7927 -0.6096
vn -0.6096 -0.7927 -0.0000
vt 0.927474 0.907473
vt 0.898579 0.847357
vt 0.927474 0.847357
vt 0.985266 0.929477
vt 0.956370 0.877415
vt 0.985266 0.877415
vt 0.956370 0.929477
vt 0.927474 0.877415
vt 0.927474 0.959535
vt 0.898579 0.907473
vt 0.898579 0.795296
vt 0.927474 0.795296
vt 0.956370 0.817300
vt 0.985266 0.817300
vt 0.927474 0.817300
vt 0.898579 0.765238
vt 0.927474 0.765238
vt 0.956370 0.765238
vt 0.985266 0.765238
vt 0.956370 0.959535
vt 0.927474 0.929477
vt 0.927474 0.989592
vt 0.898579 0.959535
vt 0.651360 0.422596
vt 0.783318 0.459603
vt 0.731704 0.493320
vt 0.731704 0.677552
vt 0.651360 0.748276
vt 0.701905 0.619153
vt 0.701905 0.551719
vt 0.915277 0.711269
vt 0.783318 0.748276
vt 0.863663 0.677552
vt 0.833863 0.619153
vt 0.863663 0.493320
vt 0.783318 0.422596
vt 0.915277 0.459603
vt 0.833863 0.551719
vt 0.783318 0.711269
vt 0.522236 0.461762
vt 0.325680 0.423634
vt 0.651360 0.423634
vt 0.522236 0.923523
vt 0.325680 0.885395
vt 0.651360 0.885395
vt 0.000000 0.516420
vt 0.325680 0.258164
vt 0.325680 0.516420
vt 0.651359 0.258256
vt 0.977039 0.000000
vt 0.977039 0.258256
vt 0.651360 0.000000
vt 0.651360 0.461762
vt 0.000000 0.000000
vt 0.325680 0.000000
vt 0.816459 0.765238
vt 0.868521 0.959535
vt 0.674224 0.907473
vt 0.000000 0.680761
vt 0.130272 1.000000
vt 0.000000 0.938925
vt 0.651359 0.422596
vt 0.260544 0.938925
vt 0.130272 0.741836
vt 0.260544 0.680761
vt 0.000000 0.680761
vt 0.956370 0.929477
vt 0.898579 0.989592
vt 0.454803 0.461762
vt 0.454803 0.923523
vt 0.000000 0.258164
vt 0.325680 0.000000
vt 0.325680 0.461762
vt 0.674224 0.847357
vt 0.704282 0.795296
vt 0.756344 0.765238
vt 0.868521 0.795296
vt 0.816459 0.989592
vt 0.756344 0.989592
vt 0.704282 0.959535
vt 0.130272 0.741836
vt 0.977039 0.422596
vt 0.130272 1.000000
vt 0.325680 0.680761
s 0
f 1/1/1 14/2/1 2/3/1
f 8/4/2 21/5/2 9/6/2
f 5/7/3 18/8/3 6/5/3
f 12/9/4 13/10/4 1/1/4
f 2/3/5 15/11/5 3/12/5
f 9/6/6 22/13/6 10/14/6
f 6/5/7 19/15/7 7/13/7
f 3/12/8 16/16/8 4/17/8
f 10/14/9 23/18/9 11/19/9
f 7/13/10 20/17/10 8/18/10
f 4/20/11 17/21/11 5/7/11
f 11/22/12 24/23/12 12/9/12
f 25/24/13 18/25/13 17/26/13
f 14/27/14 27/28/14 15/29/14
f 16/30/15 27/28/15 25/24/15
f 17/26/16 16/30/16 25/24/16
f 19/31/17 26/32/17 20/33/17
f 20/33/18 26/32/18 21/34/18
f 23/35/19 28/36/19 24/37/19
f 22/38/20 28/36/20 23/35/20
f 13/39/21 27/28/21 14/27/21
f 22/38/22 26/32/22 28/36/22
f 13/40/23 28/41/23 27/42/23
f 19/43/24 25/44/24 26/45/24
f 26/46/6 32/47/6 28/48/6
f 27/49/8 29/50/8 25/51/8
f 28/41/4 31/52/4 27/42/4
f 25/44/7 30/53/7 26/45/7
f 32/47/25 29/54/25 31/55/25
f 5/56/26 9/57/26 1/58/26
f 27/59/27 34/60/27 28/61/27
f 25/51/28 36/62/28 27/49/28
f 26/63/29 37/64/29 25/65/29
f 28/48/30 39/66/30 26/46/30
f 1/1/1 13/10/1 14/2/1
f 8/4/2 20/67/2 21/5/2
f 5/7/3 17/21/3 18/8/3
f 12/9/4 24/23/4 13/10/4
f 2/3/5 14/2/5 15/11/5
f 9/6/6 21/5/6 22/13/6
f 6/5/7 18/8/7 19/15/7
f 3/12/8 15/11/8 16/16/8
f 10/14/9 22/13/9 23/18/9
f 7/13/10 19/15/10 20/17/10
f 4/20/11 16/9/11 17/21/11
f 11/22/12 23/68/12 24/23/12
f 16/30/15 15/29/15 27/28/15
f 22/38/22 21/34/22 26/32/22
f 13/40/23 24/69/23 28/41/23
f 19/43/24 18/70/24 25/44/24
f 26/46/6 30/71/6 32/47/6
f 27/49/8 31/52/8 29/50/8
f 28/41/4 32/72/4 31/52/4
f 25/44/7 29/73/7 30/53/7
f 32/47/25 30/71/25 29/54/25
f 1/58/26 2/74/26 3/75/26
f 3/75/26 4/76/26 5/56/26
f 5/56/26 6/77/26 7/2/26
f 7/2/26 8/10/26 9/57/26
f 9/57/26 10/78/26 11/79/26
f 11/79/26 12/80/26 1/58/26
f 1/58/26 3/75/26 5/56/26
f 5/56/26 7/2/26 9/57/26
f 9/57/26 11/79/26 1/58/26
f 27/59/27 33/81/27 34/60/27
f 25/51/28 35/82/28 36/62/28
f 26/63/29 38/83/29 37/64/29
f 28/48/30 40/84/30 39/66/30
