# Blender 4.3.2
# www.blender.org
mtllib table-glasses-1.mtl
o table-glasses-1
v -0.204275 0.750000 0.018207
v -0.227412 0.750000 -0.000921
v -0.234152 0.750000 0.021031
v -0.223390 0.750000 0.041329
v -0.201431 0.750000 0.048082
v -0.181138 0.750000 0.037335
v -0.174398 0.750000 0.015383
v -0.185160 0.750000 -0.004914
v -0.207119 0.750000 -0.011668
v -0.240867 0.848792 -0.012045
v -0.251541 0.848792 0.022690
v -0.234527 0.848792 0.054799
v -0.199792 0.848792 0.065473
v -0.167682 0.848792 0.048459
v -0.157009 0.848792 0.013724
v -0.174023 0.848792 -0.018385
v -0.208758 0.848792 -0.029059
v -0.313296 0.750000 -0.026197
v -0.323574 0.750000 -0.054403
v -0.340495 0.750000 -0.038879
v -0.341483 0.750000 -0.015926
v -0.325959 0.750000 0.001010
v -0.303018 0.750000 0.002008
v -0.286097 0.750000 -0.013516
v -0.285109 0.750000 -0.036468
v -0.300632 0.750000 -0.053405
v -0.329551 0.848792 -0.070807
v -0.356333 0.848792 -0.046247
v -0.357905 0.848792 -0.009942
v -0.333345 0.848792 0.016840
v -0.297041 0.848792 0.018412
v -0.270258 0.848792 -0.006148
v -0.268687 0.848792 -0.042452
v -0.293246 0.848792 -0.069235
v -0.158354 0.750000 0.213147
v -0.146777 0.750000 0.185449
v -0.169740 0.750000 0.185381
v -0.186033 0.750000 0.201578
v -0.186112 0.750000 0.224552
v -0.169931 0.750000 0.240845
v -0.146968 0.750000 0.240913
v -0.130674 0.750000 0.224716
v -0.130595 0.750000 0.201742
v -0.140044 0.848792 0.169341
v -0.176383 0.848792 0.169225
v -0.202160 0.848792 0.194838
v -0.202276 0.848792 0.231176
v -0.176663 0.848792 0.256953
v -0.140325 0.848792 0.257070
v -0.114548 0.848792 0.231457
v -0.114431 0.848792 0.195118
v -0.330918 0.750000 0.171194
v -0.338232 0.750000 0.142079
v -0.356664 0.750000 0.155775
v -0.360014 0.750000 0.178503
v -0.346321 0.750000 0.196950
v -0.323605 0.750000 0.200310
v -0.305173 0.750000 0.186614
v -0.301822 0.750000 0.163886
v -0.315516 0.750000 0.145438
v -0.342485 0.848792 0.125146
v -0.371658 0.848792 0.146812
v -0.376966 0.848792 0.182761
v -0.355300 0.848792 0.211934
v -0.319352 0.848792 0.217242
v -0.290179 0.848792 0.195576
v -0.284870 0.848792 0.159627
v -0.306537 0.848792 0.130454
v 0.002583 0.750000 0.325984
v 0.004643 0.750000 0.296035
v -0.017123 0.750000 0.303351
v -0.027346 0.750000 0.323925
v -0.020037 0.750000 0.345705
v 0.000522 0.750000 0.355933
v 0.022289 0.750000 0.348617
v 0.032512 0.750000 0.328043
v 0.025203 0.750000 0.306263
v 0.005842 0.848792 0.278617
v -0.028606 0.848792 0.290186
v -0.044784 0.848792 0.322725
v -0.033215 0.848792 0.357173
v -0.000676 0.848792 0.373351
v 0.033772 0.848792 0.361782
v 0.049949 0.848792 0.329243
v 0.038380 0.848792 0.294795
vn -0.0000 -1.0000 -0.0000
vn -0.4620 -0.1612 -0.8721
vn 0.2900 -0.1613 -0.9433
vn 0.8720 -0.1613 -0.4622
vn -0.9434 -0.1612 -0.2898
vn 0.9434 -0.1612 0.2898
vn 0.4620 -0.1612 0.8721
vn -0.2900 -0.1613 0.9433
vn -0.8720 -0.1613 0.4622
vn 0.0428 -0.1612 -0.9860
vn 0.7274 -0.1613 -0.6669
vn 0.9860 -0.1613 0.0426
vn -0.6671 -0.1612 -0.7273
vn 0.6671 -0.1612 0.7273
vn -0.0428 -0.1612 0.9860
vn -0.7274 -0.1613 0.6669
vn -0.9860 -0.1613 -0.0426
vn 0.7002 -0.1612 -0.6956
vn 0.9869 -0.1613 0.0032
vn 0.6957 -0.1613 0.7000
vn 0.0031 -0.1612 -0.9869
vn -0.0031 -0.1612 0.9869
vn -0.7002 -0.1612 0.6956
vn -0.9869 -0.1613 -0.0032
vn -0.6957 -0.1613 -0.7000
vn 0.1443 -0.1612 -0.9763
vn 0.7924 -0.1613 -0.5884
vn 0.9763 -0.1613 0.1441
vn -0.5885 -0.1612 -0.7923
vn 0.5885 -0.1612 0.7923
vn -0.1443 -0.1612 0.9763
vn -0.7924 -0.1613 0.5884
vn -0.9763 -0.1613 -0.1441
vn 0.4395 -0.1612 -0.8837
vn 0.9356 -0.1613 -0.3141
vn 0.8837 -0.1613 0.4393
vn -0.3143 -0.1612 -0.9355
vn 0.3143 -0.1612 0.9355
vn -0.4395 -0.1612 0.8837
vn -0.9356 -0.1613 0.3141
vn -0.8837 -0.1613 -0.4393
vt 0.500000 0.500000
vt 0.146447 0.853553
vt 0.500000 1.000000
vt 0.000000 0.500000
vt 0.146447 0.146447
vt 0.500000 0.000000
vt 0.853553 0.146447
vt 1.000000 0.500000
vt 0.853553 0.853553
s 0
f 1/1/1 3/2/1 2/3/1
f 1/1/1 4/4/1 3/2/1
f 1/1/1 5/5/1 4/4/1
f 1/1/1 6/6/1 5/5/1
f 1/1/1 7/7/1 6/6/1
f 1/1/1 8/8/1 7/7/1
f 1/1/1 9/9/1 8/8/1
f 1/1/1 2/3/1 9/9/1
f 9/9/2 2/3/2 10/3/2 17/9/2
f 8/8/3 9/9/3 17/9/3 16/8/3
f 7/7/4 8/8/4 16/8/4 15/7/4
f 2/3/5 3/2/5 11/2/5 10/3/5
f 6/6/6 7/7/6 15/7/6 14/6/6
f 5/5/7 6/6/7 14/6/7 13/5/7
f 4/4/8 5/5/8 13/5/8 12/4/8
f 3/2/9 4/4/9 12/4/9 11/2/9
f 18/1/1 20/2/1 19/3/1
f 18/1/1 21/4/1 20/2/1
f 18/1/1 22/5/1 21/4/1
f 18/1/1 23/6/1 22/5/1
f 18/1/1 24/7/1 23/6/1
f 18/1/1 25/8/1 24/7/1
f 18/1/1 26/9/1 25/8/1
f 18/1/1 19/3/1 26/9/1
f 26/9/10 19/3/10 27/3/10 34/9/10
f 25/8/11 26/9/11 34/9/11 33/8/11
f 24/7/12 25/8/12 33/8/12 32/7/12
f 19/3/13 20/2/13 28/2/13 27/3/13
f 23/6/14 24/7/14 32/7/14 31/6/14
f 22/5/15 23/6/15 31/6/15 30/5/15
f 21/4/16 22/5/16 30/5/16 29/4/16
f 20/2/17 21/4/17 29/4/17 28/2/17
f 35/1/1 37/2/1 36/3/1
f 35/1/1 38/4/1 37/2/1
f 35/1/1 39/5/1 38/4/1
f 35/1/1 40/6/1 39/5/1
f 35/1/1 41/7/1 40/6/1
f 35/1/1 42/8/1 41/7/1
f 35/1/1 43/9/1 42/8/1
f 35/1/1 36/3/1 43/9/1
f 43/9/18 36/3/18 44/3/18 51/9/18
f 42/8/19 43/9/19 51/9/19 50/8/19
f 41/7/20 42/8/20 50/8/20 49/7/20
f 36/3/21 37/2/21 45/2/21 44/3/21
f 40/6/22 41/7/22 49/7/22 48/6/22
f 39/5/23 40/6/23 48/6/23 47/5/23
f 38/4/24 39/5/24 47/5/24 46/4/24
f 37/2/25 38/4/25 46/4/25 45/2/25
f 52/1/1 54/2/1 53/3/1
f 52/1/1 55/4/1 54/2/1
f 52/1/1 56/5/1 55/4/1
f 52/1/1 57/6/1 56/5/1
f 52/1/1 58/7/1 57/6/1
f 52/1/1 59/8/1 58/7/1
f 52/1/1 60/9/1 59/8/1
f 52/1/1 53/3/1 60/9/1
f 60/9/26 53/3/26 61/3/26 68/9/26
f 59/8/27 60/9/27 68/9/27 67/8/27
f 58/7/28 59/8/28 67/8/28 66/7/28
f 53/3/29 54/2/29 62/2/29 61/3/29
f 57/6/30 58/7/30 66/7/30 65/6/30
f 56/5/31 57/6/31 65/6/31 64/5/31
f 55/4/32 56/5/32 64/5/32 63/4/32
f 54/2/33 55/4/33 63/4/33 62/2/33
f 69/1/1 71/2/1 70/3/1
f 69/1/1 72/4/1 71/2/1
f 69/1/1 73/5/1 72/4/1
f 69/1/1 74/6/1 73/5/1
f 69/1/1 75/7/1 74/6/1
f 69/1/1 76/8/1 75/7/1
f 69/1/1 77/9/1 76/8/1
f 69/1/1 70/3/1 77/9/1
f 77/9/34 70/3/34 78/3/34 85/9/34
f 76/8/35 77/9/35 85/9/35 84/8/35
f 75/7/36 76/8/36 84/8/36 83/7/36
f 70/3/37 71/2/37 79/2/37 78/3/37
f 74/6/38 75/7/38 83/7/38 82/6/38
f 73/5/39 74/6/39 82/6/39 81/5/39
f 72/4/40 73/5/40 81/5/40 80/4/40
f 71/2/41 72/4/41 80/4/41 79/2/41
