# Blender 4.3.2
# www.blender.org
mtllib table-bottles-2.mtl
o table-bottles-2
v 0.081720 0.749344 0.079442
v 0.091165 0.749344 0.030571
v 0.053864 0.749344 0.038211
v 0.032881 0.749344 0.070003
v 0.040507 0.749344 0.107325
v 0.072275 0.749344 0.128313
v 0.109575 0.749344 0.120674
v 0.130559 0.749344 0.088881
v 0.122933 0.749344 0.051559
v 0.091165 0.951591 0.030571
v 0.053864 0.951591 0.038211
v 0.032881 0.951591 0.070003
v 0.040507 0.951591 0.107325
v 0.072275 0.951591 0.128313
v 0.109575 0.951591 0.120674
v 0.130559 0.951591 0.088881
v 0.122933 0.951591 0.051559
v 0.085147 1.001918 0.061711
v 0.071614 1.001918 0.064483
v 0.064001 1.001918 0.076018
v 0.066767 1.001918 0.089558
v 0.078293 1.001918 0.097173
v 0.091826 1.001918 0.094401
v 0.099439 1.001918 0.082867
v 0.096672 1.001918 0.069326
v 0.085147 1.074623 0.061711
v 0.071614 1.074623 0.064483
v 0.064001 1.074623 0.076018
v 0.066767 1.074623 0.089558
v 0.078293 1.074623 0.097173
v 0.091826 1.074623 0.094401
v 0.099439 1.074623 0.082867
v 0.096672 1.074623 0.069326
v 0.228500 0.749344 0.000305
v 0.265399 0.749344 -0.033104
v 0.230983 0.749344 -0.049392
v 0.195114 0.749344 -0.036569
v 0.178802 0.749344 -0.002145
v 0.191602 0.749344 0.033714
v 0.226017 0.749344 0.050002
v 0.261887 0.749344 0.037179
v 0.278199 0.749344 0.002755
v 0.265399 0.951591 -0.033104
v 0.230983 0.951591 -0.049392
v 0.195114 0.951591 -0.036569
v 0.178802 0.951591 -0.002145
v 0.191602 0.951591 0.033714
v 0.226017 0.951591 0.050002
v 0.261887 0.951591 0.037179
v 0.278199 0.951591 0.002755
v 0.241887 1.001918 -0.011816
v 0.229401 1.001918 -0.017726
v 0.216387 1.001918 -0.013073
v 0.210469 1.001918 -0.000584
v 0.215113 1.001918 0.012426
v 0.227599 1.001918 0.018335
v 0.240613 1.001918 0.013683
v 0.246531 1.001918 0.001194
v 0.241887 1.074623 -0.011816
v 0.229401 1.074623 -0.017726
v 0.216387 1.074623 -0.013073
v 0.210469 1.074623 -0.000584
v 0.215113 1.074623 0.012426
v 0.227599 1.074623 0.018335
v 0.240613 1.074623 0.013683
v 0.246531 1.074623 0.001194
vn -0.0000 1.0000 -0.0000
vn 0.4764 -0.5031 -0.7211
vn 0.8468 -0.5030 -0.1730
vn -0.4764 -0.5031 0.7211
vn 0.7214 -0.5030 0.4761
vn 0.1734 -0.5031 0.8466
vn -0.7214 -0.5030 -0.4761
vn -0.8468 -0.5030 0.1730
vn -0.1734 -0.5031 -0.8466
vn 0.9798 -0.0000 -0.2002
vn 0.5512 -0.0000 -0.8343
vn -0.2007 -0.0000 -0.9797
vn -0.8346 -0.0000 -0.5508
vn -0.9798 -0.0000 0.2002
vn 0.2007 -0.0000 0.9797
vn -0.5512 -0.0000 0.8343
vn 0.8346 -0.0000 0.5508
vn 0.8139 -0.5031 -0.2905
vn 0.7811 -0.5030 0.3701
vn -0.8139 -0.5031 0.2905
vn 0.2910 -0.5030 0.8139
vn -0.3697 -0.5031 0.7811
vn -0.2910 -0.5030 -0.8139
vn -0.7811 -0.5030 -0.3701
vn 0.3697 -0.5031 -0.7811
vn 0.9037 -0.0000 0.4282
vn 0.9418 -0.0000 -0.3362
vn 0.4278 -0.0000 -0.9039
vn -0.3366 -0.0000 -0.9416
vn -0.9037 -0.0000 -0.4282
vn -0.4278 -0.0000 0.9039
vn -0.9418 -0.0000 0.3362
vn 0.3366 -0.0000 0.9416
vt 0.500000 0.500000
vt 0.500000 1.000000
vt 0.146447 0.853553
vt 0.000000 0.500000
vt 0.146447 0.146447
vt 0.500000 0.000000
vt 0.853553 0.146447
vt 1.000000 0.500000
vt 0.853553 0.853553
s 0
f 1/1/1 2/2/1 3/3/1
f 1/1/1 3/3/1 4/4/1
f 1/1/1 4/4/1 5/5/1
f 1/1/1 5/5/1 6/6/1
f 1/1/1 6/6/1 7/7/1
f 1/1/1 7/7/1 8/8/1
f 1/1/1 8/8/1 9/9/1
f 1/1/1 9/9/1 2/2/1
f 14/6/2 13/5/2 21/5/2 22/6/2
f 13/5/3 12/4/3 20/4/3 21/5/3
f 10/2/4 17/9/4 25/9/4 18/2/4
f 12/4/5 11/3/5 19/3/5 20/4/5
f 11/3/6 10/2/6 18/2/6 19/3/6
f 16/8/7 15/7/7 23/7/7 24/8/7
f 17/9/8 16/8/8 24/8/8 25/9/8
f 15/7/9 14/6/9 22/6/9 23/7/9
f 5/5/10 4/4/10 12/4/10 13/5/10
f 6/6/11 5/5/11 13/5/11 14/6/11
f 7/7/12 6/6/12 14/6/12 15/7/12
f 8/8/13 7/7/13 15/7/13 16/8/13
f 9/9/14 8/8/14 16/8/14 17/9/14
f 3/3/15 2/2/15 10/2/15 11/3/15
f 2/2/16 9/9/16 17/9/16 10/2/16
f 4/4/17 3/3/17 11/3/17 12/4/17
f 21/5/10 20/4/10 28/4/10 29/5/10
f 22/6/11 21/5/11 29/5/11 30/6/11
f 23/7/12 22/6/12 30/6/12 31/7/12
f 24/8/13 23/7/13 31/7/13 32/8/13
f 25/9/14 24/8/14 32/8/14 33/9/14
f 19/3/15 18/2/15 26/2/15 27/3/15
f 20/4/17 19/3/17 27/3/17 28/4/17
f 18/2/16 25/9/16 33/9/16 26/2/16
f 34/1/1 35/2/1 36/3/1
f 34/1/1 36/3/1 37/4/1
f 34/1/1 37/4/1 38/5/1
f 34/1/1 38/5/1 39/6/1
f 34/1/1 39/6/1 40/7/1
f 34/1/1 40/7/1 41/8/1
f 34/1/1 41/8/1 42/9/1
f 34/1/1 42/9/1 35/2/1
f 47/6/18 46/5/18 54/5/18 55/6/18
f 46/5/19 45/4/19 53/4/19 54/5/19
f 43/2/20 50/9/20 58/9/20 51/2/20
f 45/4/21 44/3/21 52/3/21 53/4/21
f 44/3/22 43/2/22 51/2/22 52/3/22
f 49/8/23 48/7/23 56/7/23 57/8/23
f 50/9/24 49/8/24 57/8/24 58/9/24
f 48/7/25 47/6/25 55/6/25 56/7/25
f 38/5/26 37/4/26 45/4/26 46/5/26
f 39/6/27 38/5/27 46/5/27 47/6/27
f 40/7/28 39/6/28 47/6/28 48/7/28
f 41/8/29 40/7/29 48/7/29 49/8/29
f 42/9/30 41/8/30 49/8/30 50/9/30
f 36/3/31 35/2/31 43/2/31 44/3/31
f 35/2/32 42/9/32 50/9/32 43/2/32
f 37/4/33 36/3/33 44/3/33 45/4/33
f 54/5/26 53/4/26 61/4/26 62/5/26
f 55/6/27 54/5/27 62/5/27 63/6/27
f 56/7/28 55/6/28 63/6/28 64/7/28
f 57/8/29 56/7/29 64/7/29 65/8/29
f 58/9/30 57/8/30 65/8/30 66/9/30
f 52/3/31 51/2/31 59/2/31 60/3/31
f 53/4/33 52/3/33 60/3/33 61/4/33
f 51/2/32 58/9/32 66/9/32 59/2/32
