# Blender 4.3.2
# www.blender.org
mtllib table-bottles-1.mtl
o table-bottles-1
v 0.232502 0.749344 -0.170582
v 0.208424 0.749344 -0.194393
v 0.198651 0.749344 -0.170404
v 0.208707 0.749344 -0.146519
v 0.232702 0.749344 -0.136730
v 0.256581 0.749344 -0.146770
v 0.266354 0.749344 -0.170759
v 0.256298 0.749344 -0.194644
v 0.232302 0.749344 -0.204433
v 0.208424 0.886936 -0.194393
v 0.198651 0.886936 -0.170404
v 0.208707 0.886936 -0.146519
v 0.232702 0.886936 -0.136730
v 0.256581 0.886936 -0.146770
v 0.266354 0.886936 -0.170759
v 0.256298 0.886936 -0.194644
v 0.232302 0.886936 -0.204433
v 0.223767 0.921175 -0.179221
v 0.220221 0.921175 -0.170517
v 0.223869 0.921175 -0.161852
v 0.232575 0.921175 -0.158300
v 0.241238 0.921175 -0.161943
v 0.244784 0.921175 -0.170646
v 0.241136 0.921175 -0.179312
v 0.232430 0.921175 -0.182863
v 0.223767 0.970638 -0.179221
v 0.220221 0.970638 -0.170517
v 0.223869 0.970638 -0.161852
v 0.232575 0.970638 -0.158300
v 0.241238 0.970638 -0.161943
v 0.244784 0.970638 -0.170646
v 0.241136 0.970638 -0.179312
v 0.232430 0.970638 -0.182863
v 0.089306 0.749344 -0.086949
v 0.058460 0.749344 -0.100924
v 0.057620 0.749344 -0.075034
v 0.075341 0.749344 -0.056124
v 0.101242 0.749344 -0.055271
v 0.120151 0.749344 -0.072974
v 0.120992 0.749344 -0.098864
v 0.103271 0.749344 -0.117774
v 0.077370 0.749344 -0.118627
v 0.058460 0.886936 -0.100924
v 0.057620 0.886936 -0.075034
v 0.075341 0.886936 -0.056124
v 0.101242 0.886936 -0.055271
v 0.120151 0.886936 -0.072974
v 0.120992 0.886936 -0.098864
v 0.103271 0.886936 -0.117774
v 0.077370 0.886936 -0.118627
v 0.078115 0.921175 -0.092019
v 0.077810 0.921175 -0.082626
v 0.084239 0.921175 -0.075765
v 0.093637 0.921175 -0.075456
v 0.100497 0.921175 -0.081879
v 0.100802 0.921175 -0.091272
v 0.094373 0.921175 -0.098133
v 0.084975 0.921175 -0.098442
v 0.078115 0.970638 -0.092019
v 0.077810 0.970638 -0.082626
v 0.084239 0.970638 -0.075765
v 0.093637 0.970638 -0.075456
v 0.100497 0.970638 -0.081879
v 0.100802 0.970638 -0.091272
v 0.094373 0.970638 -0.098133
v 0.084975 0.970638 -0.098442
v 0.219957 0.749344 -0.343853
v 0.193069 0.749344 -0.364439
v 0.186397 0.749344 -0.339410
v 0.199384 0.749344 -0.316983
v 0.224422 0.749344 -0.310297
v 0.246844 0.749344 -0.323267
v 0.253516 0.749344 -0.348296
v 0.240529 0.749344 -0.370722
v 0.215492 0.749344 -0.377409
v 0.193069 0.886936 -0.364439
v 0.186397 0.886936 -0.339410
v 0.199384 0.886936 -0.316983
v 0.224422 0.886936 -0.310297
v 0.246844 0.886936 -0.323267
v 0.253516 0.886936 -0.348296
v 0.240529 0.886936 -0.370722
v 0.215492 0.886936 -0.377409
v 0.210202 0.921175 -0.351322
v 0.207781 0.921175 -0.342241
v 0.212493 0.921175 -0.334104
v 0.221577 0.921175 -0.331678
v 0.229712 0.921175 -0.336384
v 0.232132 0.921175 -0.345465
v 0.227421 0.921175 -0.353602
v 0.218337 0.921175 -0.356028
v 0.210202 0.970638 -0.351322
v 0.207781 0.970638 -0.342241
v 0.212493 0.970638 -0.334104
v 0.221577 0.970638 -0.331678
v 0.229712 0.970638 -0.336384
v 0.232132 0.970638 -0.345465
v 0.227421 0.970638 -0.353602
v 0.218337 0.970638 -0.356028
v 0.060141 0.749344 -0.196583
v 0.043866 0.749344 -0.226279
v 0.027649 0.749344 -0.206081
v 0.030464 0.749344 -0.180319
v 0.050664 0.749344 -0.164084
v 0.076415 0.749344 -0.166887
v 0.092633 0.749344 -0.187085
v 0.089818 0.749344 -0.212847
v 0.069618 0.749344 -0.229082
v 0.043866 0.886936 -0.226279
v 0.027649 0.886936 -0.206081
v 0.030464 0.886936 -0.180319
v 0.050664 0.886936 -0.164084
v 0.076415 0.886936 -0.166887
v 0.092633 0.886936 -0.187085
v 0.089818 0.886936 -0.212847
v 0.069618 0.886936 -0.229082
v 0.054236 0.921175 -0.207357
v 0.048352 0.921175 -0.200029
v 0.049374 0.921175 -0.190682
v 0.056703 0.921175 -0.184792
v 0.066046 0.921175 -0.185809
v 0.071930 0.921175 -0.193137
v 0.070908 0.921175 -0.202484
v 0.063579 0.921175 -0.208374
v 0.054236 0.970638 -0.207357
v 0.048352 0.970638 -0.200029
v 0.049374 0.970638 -0.190682
v 0.056703 0.970638 -0.184792
v 0.066046 0.970638 -0.185809
v 0.071930 0.970638 -0.193137
v 0.070908 0.970638 -0.202484
v 0.063579 0.970638 -0.208374
vn -0.0000 1.0000 -0.0000
vn -0.3350 -0.5031 -0.7966
vn 0.3265 -0.5030 -0.8003
vn 0.3350 -0.5031 0.7966
vn 0.7966 -0.5030 -0.3354
vn 0.8003 -0.5031 0.3261
vn -0.7966 -0.5030 0.3354
vn -0.3265 -0.5030 0.8003
vn -0.8003 -0.5031 -0.3261
vn 0.3777 -0.0000 -0.9259
vn -0.3876 -0.0000 -0.9218
vn -0.9261 -0.0000 -0.3773
vn -0.9216 -0.0000 0.3880
vn -0.3777 -0.0000 0.9259
vn 0.9261 -0.0000 0.3773
vn 0.3876 -0.0000 0.9218
vn 0.9216 -0.0000 -0.3880
vn -0.5906 -0.5031 -0.6309
vn 0.0285 -0.5030 -0.8638
vn 0.5906 -0.5031 0.6309
vn 0.6307 -0.5030 -0.5910
vn 0.8638 -0.5031 0.0280
vn -0.6307 -0.5030 0.5910
vn -0.0285 -0.5030 0.8638
vn -0.8638 -0.5031 -0.0280
vn 0.0329 -0.0000 -0.9995
vn -0.6834 -0.0000 -0.7300
vn -0.9995 -0.0000 -0.0325
vn -0.7297 -0.0000 0.6838
vn -0.0329 -0.0000 0.9995
vn 0.9995 -0.0000 0.0324
vn 0.6834 -0.0000 0.7300
vn 0.7297 -0.0000 -0.6838
vn -0.9995 -0.0000 -0.0324
vn -0.4327 -0.5031 -0.7481
vn 0.2230 -0.5030 -0.8350
vn 0.4327 -0.5031 0.7481
vn 0.7480 -0.5030 -0.4331
vn 0.8350 -0.5031 0.2226
vn -0.7480 -0.5030 0.4331
vn -0.2230 -0.5030 0.8350
vn -0.8351 -0.5031 -0.2226
vn 0.2580 -0.0000 -0.9661
vn -0.5007 -0.0000 -0.8656
vn -0.9663 -0.0000 -0.2576
vn -0.8654 -0.0000 0.5011
vn -0.2580 -0.0000 0.9661
vn 0.9663 -0.0000 0.2576
vn 0.5007 -0.0000 0.8656
vn 0.8654 -0.0000 -0.5011
vn -0.0935 -0.5031 -0.8591
vn 0.5415 -0.5030 -0.6737
vn 0.0935 -0.5031 0.8591
vn 0.8592 -0.5030 -0.0939
vn 0.6739 -0.5031 0.5411
vn -0.8592 -0.5030 0.0939
vn -0.5415 -0.5030 0.6737
vn -0.6739 -0.5031 -0.5411
vn 0.6265 -0.0000 -0.7795
vn -0.1082 -0.0000 -0.9941
vn -0.7797 -0.0000 -0.6261
vn -0.9941 -0.0000 0.1087
vn -0.6265 -0.0000 0.7795
vn 0.7797 -0.0000 0.6261
vn 0.1082 -0.0000 0.9941
vn 0.9941 -0.0000 -0.1087
vn -0.9941 -0.0000 0.1086
vn 0.9941 -0.0000 -0.1086
vt 0.500000 0.500000
vt 0.500000 1.000000
vt 0.146447 0.853553
vt 0.000000 0.500000
vt 0.146447 0.146447
vt 0.500000 0.000000
vt 0.853553 0.146447
vt 1.000000 0.500000
vt 0.853553 0.853553
s 0
f 1/1/1 2/2/1 3/3/1
f 1/1/1 3/3/1 4/4/1
f 1/1/1 4/4/1 5/5/1
f 1/1/1 5/5/1 6/6/1
f 1/1/1 6/6/1 7/7/1
f 1/1/1 7/7/1 8/8/1
f 1/1/1 8/8/1 9/9/1
f 1/1/1 9/9/1 2/2/1
f 14/6/2 13/5/2 21/5/2 22/6/2
f 13/5/3 12/4/3 20/4/3 21/5/3
f 10/2/4 17/9/4 25/9/4 18/2/4
f 12/4/5 11/3/5 19/3/5 20/4/5
f 11/3/6 10/2/6 18/2/6 19/3/6
f 16/8/7 15/7/7 23/7/7 24/8/7
f 17/9/8 16/8/8 24/8/8 25/9/8
f 15/7/9 14/6/9 22/6/9 23/7/9
f 5/5/10 4/4/10 12/4/10 13/5/10
f 6/6/11 5/5/11 13/5/11 14/6/11
f 7/7/12 6/6/12 14/6/12 15/7/12
f 8/8/13 7/7/13 15/7/13 16/8/13
f 9/9/14 8/8/14 16/8/14 17/9/14
f 3/3/15 2/2/15 10/2/15 11/3/15
f 2/2/16 9/9/16 17/9/16 10/2/16
f 4/4/17 3/3/17 11/3/17 12/4/17
f 21/5/10 20/4/10 28/4/10 29/5/10
f 22/6/11 21/5/11 29/5/11 30/6/11
f 23/7/12 22/6/12 30/6/12 31/7/12
f 24/8/13 23/7/13 31/7/13 32/8/13
f 25/9/14 24/8/14 32/8/14 33/9/14
f 19/3/15 18/2/15 26/2/15 27/3/15
f 20/4/17 19/3/17 27/3/17 28/4/17
f 18/2/16 25/9/16 33/9/16 26/2/16
f 34/1/1 35/2/1 36/3/1
f 34/1/1 36/3/1 37/4/1
f 34/1/1 37/4/1 38/5/1
f 34/1/1 38/5/1 39/6/1
f 34/1/1 39/6/1 40/7/1
f 34/1/1 40/7/1 41/8/1
f 34/1/1 41/8/1 42/9/1
f 34/1/1 42/9/1 35/2/1
f 47/6/18 46/5/18 54/5/18 55/6/18
f 46/5/19 45/4/19 53/4/19 54/5/19
f 43/2/20 50/9/20 58/9/20 51/2/20
f 45/4/21 44/3/21 52/3/21 53/4/21
f 44/3/22 43/2/22 51/2/22 52/3/22
f 49/8/23 48/7/23 56/7/23 57/8/23
f 50/9/24 49/8/24 57/8/24 58/9/24
f 48/7/25 47/6/25 55/6/25 56/7/25
f 38/5/26 37/4/26 45/4/26 46/5/26
f 39/6/27 38/5/27 46/5/27 47/6/27
f 40/7/28 39/6/28 47/6/28 48/7/28
f 41/8/29 40/7/29 48/7/29 49/8/29
f 42/9/30 41/8/30 49/8/30 50/9/30
f 36/3/31 35/2/31 43/2/31 44/3/31
f 35/2/32 42/9/32 50/9/32 43/2/32
f 37/4/33 36/3/33 44/3/33 45/4/33
f 54/5/26 53/4/26 61/4/26 62/5/26
f 55/6/27 54/5/27 62/5/27 63/6/27
f 56/7/34 55/6/34 63/6/34 64/7/34
f 57/8/29 56/7/29 64/7/29 65/8/29
f 58/9/30 57/8/30 65/8/30 66/9/30
f 52/3/31 51/2/31 59/2/31 60/3/31
f 53/4/33 52/3/33 60/3/33 61/4/33
f 51/2/32 58/9/32 66/9/32 59/2/32
f 67/1/1 68/2/1 69/3/1
f 67/1/1 69/3/1 70/4/1
f 67/1/1 70/4/1 71/5/1
f 67/1/1 71/5/1 72/6/1
f 67/1/1 72/6/1 73/7/1
f 67/1/1 73/7/1 74/8/1
f 67/1/1 74/8/1 75/9/1
f 67/1/1 75/9/1 68/2/1
f 80/6/35 79/5/35 87/5/35 88/6/35
f 79/5/36 78/4/36 86/4/36 87/5/36
f 76/2/37 83/9/37 91/9/37 84/2/37
f 78/4/38 77/3/38 85/3/38 86/4/38
f 77/3/39 76/2/39 84/2/39 85/3/39
f 82/8/40 81/7/40 89/7/40 90/8/40
f 83/9/41 82/8/41 90/8/41 91/9/41
f 81/7/42 80/6/42 88/6/42 89/7/42
f 71/5/43 70/4/43 78/4/43 79/5/43
f 72/6/44 71/5/44 79/5/44 80/6/44
f 73/7/45 72/6/45 80/6/45 81/7/45
f 74/8/46 73/7/46 81/7/46 82/8/46
f 75/9/47 74/8/47 82/8/47 83/9/47
f 69/3/48 68/2/48 76/2/48 77/3/48
f 68/2/49 75/9/49 83/9/49 76/2/49
f 70/4/50 69/3/50 77/3/50 78/4/50
f 87/5/43 86/4/43 94/4/43 95/5/43
f 88/6/44 87/5/44 95/5/44 96/6/44
f 89/7/45 88/6/45 96/6/45 97/7/45
f 90/8/46 89/7/46 97/7/46 98/8/46
f 91/9/47 90/8/47 98/8/47 99/9/47
f 85/3/48 84/2/48 92/2/48 93/3/48
f 86/4/50 85/3/50 93/3/50 94/4/50
f 84/2/49 91/9/49 99/9/49 92/2/49
f 100/1/1 101/2/1 102/3/1
f 100/1/1 102/3/1 103/4/1
f 100/1/1 103/4/1 104/5/1
f 100/1/1 104/5/1 105/6/1
f 100/1/1 105/6/1 106/7/1
f 100/1/1 106/7/1 107/8/1
f 100/1/1 107/8/1 108/9/1
f 100/1/1 108/9/1 101/2/1
f 113/6/51 112/5/51 120/5/51 121/6/51
f 112/5/52 111/4/52 119/4/52 120/5/52
f 109/2/53 116/9/53 124/9/53 117/2/53
f 111/4/54 110/3/54 118/3/54 119/4/54
f 110/3/55 109/2/55 117/2/55 118/3/55
f 115/8/56 114/7/56 122/7/56 123/8/56
f 116/9/57 115/8/57 123/8/57 124/9/57
f 114/7/58 113/6/58 121/6/58 122/7/58
f 104/5/59 103/4/59 111/4/59 112/5/59
f 105/6/60 104/5/60 112/5/60 113/6/60
f 106/7/61 105/6/61 113/6/61 114/7/61
f 107/8/62 106/7/62 114/7/62 115/8/62
f 108/9/63 107/8/63 115/8/63 116/9/63
f 102/3/64 101/2/64 109/2/64 110/3/64
f 101/2/65 108/9/65 116/9/65 109/2/65
f 103/4/66 102/3/66 110/3/66 111/4/66
f 120/5/59 119/4/59 127/4/59 128/5/59
f 121/6/60 120/5/60 128/5/60 129/6/60
f 122/7/61 121/6/61 129/6/61 130/7/61
f 123/8/67 122/7/67 130/7/67 131/8/67
f 124/9/63 123/8/63 131/8/63 132/9/63
f 118/3/64 117/2/64 125/2/64 126/3/64
f 119/4/68 118/3/68 126/3/68 127/4/68
f 117/2/65 124/9/65 132/9/65 125/2/65
