# Blender 4.3.2
# www.blender.org
mtllib table-round.mtl
o table-round
v 0.000000 0.741557 -1.000000
v -0.382683 0.741557 -0.923880
v -0.707107 0.741557 -0.707107
v -0.923880 0.741557 -0.382683
v -1.000000 0.741557 0.000000
v -0.923880 0.741557 0.382683
v -0.707107 0.741557 0.707107
v -0.382683 0.741557 0.923880
v 0.000000 0.741557 1.000000
v 0.382683 0.741557 0.923880
v 0.707107 0.741557 0.707107
v 0.923880 0.741557 0.382683
v 1.000000 0.741557 0.000000
v 0.923880 0.741557 -0.382683
v 0.707107 0.741557 -0.707107
v 0.382683 0.741557 -0.923880
v 0.000000 0.801955 -1.000000
v -0.382683 0.801955 -0.923880
v -0.707107 0.801955 -0.707107
v -0.923880 0.801955 -0.382683
v -1.000000 0.801955 0.000000
v -0.923880 0.801955 0.382683
v -0.707107 0.801955 0.707107
v -0.382683 0.801955 0.923880
v 0.000000 0.801955 1.000000
v 0.382683 0.801955 0.923880
v 0.707107 0.801955 0.707107
v 0.923880 0.801955 0.382683
v 1.000000 0.801955 0.000000
v 0.923880 0.801955 -0.382683
v 0.707107 0.801955 -0.707107
v 0.382683 0.801955 -0.923880
v -0.051743 0.636163 -0.124918
v 0.000000 0.636163 -0.135210
v -0.095608 0.636163 -0.095608
v -0.124918 0.636163 -0.051743
v -0.135210 0.636163 0.000000
v -0.124918 0.636163 0.051743
v -0.095608 0.636163 0.095608
v -0.051743 0.636163 0.124918
v 0.000000 0.636163 0.135210
v 0.051743 0.636163 0.124918
v 0.095608 0.636163 0.095608
v 0.124918 0.636163 0.051743
v 0.135210 0.636163 0.000000
v 0.124918 0.636163 -0.051743
v 0.095608 0.636163 -0.095608
v 0.051743 0.636163 -0.124918
v 0.000000 0.592645 -0.083814
v -0.059266 0.592645 -0.059266
v -0.083814 0.592645 0.000000
v -0.059266 0.592645 0.059266
v 0.000000 0.592645 0.083814
v 0.059266 0.592645 0.059266
v 0.083814 0.592645 0.000000
v 0.059266 0.592645 -0.059266
v 0.000000 0.054342 -0.083814
v -0.059266 0.054342 -0.059264
v -0.083814 0.054342 0.000001
v -0.059266 0.054342 0.059266
v 0.000000 0.054342 0.083816
v 0.059266 0.054342 0.059266
v 0.083814 0.054342 0.000001
v 0.059266 0.054342 -0.059264
v 0.000000 -0.001799 -0.157789
v -0.111574 -0.001799 -0.111572
v -0.157790 -0.001799 0.000001
v -0.111574 -0.001799 0.111574
v 0.000000 -0.001799 0.157791
v 0.111574 -0.001799 0.111574
v 0.157790 -0.001799 0.000001
v 0.111574 -0.001799 -0.111572
vn -0.1209 -0.9924 -0.0241
vn -0.0000 1.0000 -0.0000
vn -0.8315 -0.0000 0.5556
vn 0.8315 -0.0000 -0.5556
vn -0.5556 -0.0000 0.8315
vn 0.5556 -0.0000 -0.8315
vn -0.1951 -0.0000 0.9808
vn -0.1951 -0.0000 -0.9808
vn 0.1951 -0.0000 -0.9808
vn 0.1951 -0.0000 0.9808
vn -0.5556 -0.0000 -0.8315
vn 0.5556 -0.0000 0.8315
vn -0.8315 -0.0000 -0.5556
vn 0.8315 -0.0000 0.5556
vn -0.9808 -0.0000 -0.1951
vn 0.9808 -0.0000 0.1951
vn -0.9808 -0.0000 0.1951
vn 0.9808 -0.0000 -0.1951
vn 0.1209 -0.9924 0.0241
vn -0.1209 -0.9924 0.0241
vn 0.1209 -0.9924 -0.0241
vn -0.1025 -0.9924 0.0685
vn 0.1025 -0.9924 -0.0685
vn -0.0685 -0.9924 0.1025
vn 0.0685 -0.9924 -0.1025
vn -0.0241 -0.9924 0.1209
vn -0.0241 -0.9924 -0.1209
vn 0.0241 -0.9924 -0.1209
vn 0.0241 -0.9924 0.1209
vn -0.0685 -0.9924 -0.1025
vn 0.0685 -0.9924 0.1025
vn -0.1025 -0.9924 -0.0685
vn 0.1025 -0.9924 0.0685
vn -0.5433 -0.7569 -0.3631
vn -0.5558 -0.7988 -0.2302
vn -0.6409 -0.7569 -0.1275
vn -0.1275 -0.7569 -0.6409
vn -0.2302 -0.7988 -0.5558
vn -0.3631 -0.7569 -0.5433
vn 0.1275 -0.7569 -0.6409
vn 0.5433 -0.7569 -0.3631
vn 0.3631 -0.7569 -0.5433
vn 0.2302 -0.7988 -0.5558
vn 0.5433 -0.7569 0.3631
vn 0.5558 -0.7988 0.2302
vn 0.6409 -0.7569 0.1275
vn 0.6409 -0.7569 -0.1275
vn 0.5558 -0.7988 -0.2302
vn 0.1275 -0.7569 0.6409
vn 0.2302 -0.7988 0.5558
vn 0.3631 -0.7569 0.5433
vn -0.3631 -0.7569 0.5433
vn -0.2302 -0.7988 0.5558
vn -0.1275 -0.7569 0.6409
vn -0.6409 -0.7569 0.1275
vn -0.5558 -0.7988 0.2302
vn -0.5433 -0.7569 0.3631
vn -0.3827 -0.0000 0.9239
vn -0.3827 -0.0000 -0.9239
vn 0.9239 -0.0000 -0.3827
vn 0.3827 -0.0000 0.9239
vn -0.9239 -0.0000 0.3827
vn -0.9239 -0.0000 -0.3827
vn 0.3827 -0.0000 -0.9239
vn 0.9239 -0.0000 0.3827
vn 0.5864 0.7727 0.2429
vn -0.2429 0.7727 0.5864
vn -0.2429 0.7727 -0.5864
vn 0.5864 0.7727 -0.2429
vn 0.2429 0.7727 0.5864
vn -0.5864 0.7727 0.2429
vn -0.5864 0.7727 -0.2429
vn 0.2429 0.7727 -0.5864
vt 1.000000 0.200296
vt 0.780546 0.231408
vt 0.961977 0.108358
vt 0.500486 0.200466
vt 0.300019 0.500486
vt -0.000000 0.300019
vt 0.136031 0.767590
vt 0.120621 0.668166
vt 0.136031 0.668166
vt 0.030821 0.583261
vt 0.046231 0.680901
vt 0.030821 0.680901
vt 0.136031 0.857506
vt 0.120621 0.767590
vt 0.030821 0.500486
vt 0.046231 0.583261
vt 0.015410 0.583261
vt 0.000000 0.500486
vt 0.015410 0.500486
vt 0.015411 0.680901
vt 0.030821 0.778541
vt 0.015411 0.778541
vt 0.030821 0.861316
vt 0.015411 0.861316
vt 0.015410 0.680901
vt 0.000000 0.583261
vt 0.015411 0.583261
vt 0.030821 0.680901
vt 0.015410 0.778540
vt 0.000000 0.680901
vt 0.015411 0.500486
vt 0.030821 0.583261
vt 0.015410 0.861316
vt 0.000000 0.778540
vt 0.136031 0.574371
vt 0.120621 0.500486
vt 0.136031 0.500486
vt 0.030821 0.778541
vt 0.046231 0.861316
vt 0.030821 0.861316
vt 0.120621 0.574371
vt 0.046231 0.778541
vt 0.500486 0.300228
vt 0.723289 0.269781
vt 0.538509 0.392166
vt 0.771046 0.221898
vt 0.891719 0.038023
vt 0.732788 0.279291
vt 0.608767 0.462501
vt 0.758635 0.216756
vt 0.799923 -0.000000
vt 0.745200 0.284432
vt 0.700563 0.500524
vt 0.700563 0.000077
vt 0.745200 0.216767
vt 0.758635 0.284422
vt 0.799923 0.500447
vt 0.732788 0.221927
vt 0.608767 0.038242
vt 0.891719 0.462282
vt 0.780546 0.269737
vt 0.961977 0.391839
vt 0.771046 0.279262
vt 0.723289 0.231452
vt 0.538509 0.108685
vt 0.785687 0.257298
vt 1.000000 0.299842
vt 0.718148 0.243891
vt 0.500486 0.200682
vt 0.785687 0.243839
vt 0.718148 0.257350
vt 0.773542 0.254887
vt 0.770355 0.238838
vt 0.764466 0.268502
vt 0.748445 0.271707
vt 0.731676 0.246576
vt 0.734862 0.262625
vt 0.740751 0.232961
vt 0.756773 0.229756
vt 0.136031 0.500486
vt 0.149160 0.637831
vt 0.136031 0.637831
vt 0.232809 0.500486
vt 0.249176 0.637831
vt 0.232809 0.637831
vt 0.193295 0.500486
vt 0.176928 0.637831
vt 0.176928 0.500486
vt 0.221236 0.500486
vt 0.204868 0.637831
vt 0.204868 0.500486
vt 0.149160 0.500486
vt 0.165354 0.637831
vt 0.221236 0.500486
vt 0.221236 0.637831
vt 0.165354 0.637831
vt 0.165354 0.500486
vt 0.193295 0.637831
vt 0.091610 0.557437
vt 0.120621 0.553087
vt 0.098833 0.574875
vt 0.103183 0.529497
vt 0.098832 0.500486
vt 0.120621 0.522273
vt 0.063669 0.545864
vt 0.046231 0.522274
vt 0.063669 0.529497
vt 0.068020 0.574875
vt 0.075243 0.557438
vt 0.103183 0.545864
vt 0.075242 0.517924
vt 0.091609 0.517923
vt 0.068019 0.500486
vt 0.046231 0.553088
vt -0.000000 0.200466
vt 0.038097 0.108492
vt 0.108492 0.038097
vt 0.200466 -0.000000
vt 0.300019 -0.000000
vt 0.391994 0.038097
vt 0.462388 0.108492
vt 0.500486 0.300019
vt 0.462388 0.391994
vt 0.391994 0.462388
vt 0.200466 0.500486
vt 0.108492 0.462388
vt 0.038097 0.391994
vt 0.120621 0.857506
vt 0.046231 0.500486
vt 0.030821 0.500486
vt -0.000000 0.861316
vt 0.249176 0.500486
vt 0.221236 0.637831
vt 0.165354 0.500486
s 0
f 4/1/1 37/2/1 5/3/1
f 25/4/2 29/5/2 17/6/2
f 7/7/3 22/8/3 6/9/3
f 15/10/4 30/11/4 14/12/4
f 8/13/5 23/14/5 7/7/5
f 16/15/6 31/16/6 15/10/6
f 9/17/7 24/18/7 8/19/7
f 2/20/8 17/21/8 1/22/8
f 1/22/9 32/23/9 16/24/9
f 10/25/10 25/26/10 9/17/10
f 3/27/11 18/28/11 2/20/11
f 11/29/12 26/30/12 10/25/12
f 4/31/13 19/32/13 3/27/13
f 12/33/14 27/34/14 11/29/14
f 5/35/15 20/36/15 4/37/15
f 13/38/16 28/39/16 12/40/16
f 6/9/17 21/41/17 5/35/17
f 14/12/18 29/42/18 13/38/18
f 12/43/19 45/44/19 13/45/19
f 5/3/20 38/46/20 6/47/20
f 13/45/21 46/48/21 14/49/21
f 6/47/22 39/50/22 7/51/22
f 14/49/23 47/52/23 15/53/23
f 8/54/24 39/50/24 40/55/24
f 15/53/25 48/56/25 16/57/25
f 8/54/26 41/58/26 9/59/26
f 1/60/27 33/61/27 2/62/27
f 1/60/28 48/56/28 34/63/28
f 9/59/29 42/64/29 10/65/29
f 2/62/30 35/66/30 3/67/30
f 10/65/31 43/68/31 11/69/31
f 3/67/32 36/70/32 4/1/32
f 11/69/33 44/71/33 12/43/33
f 35/66/34 50/72/34 36/70/34
f 50/72/35 51/73/35 36/70/35
f 36/70/36 51/73/36 37/2/36
f 34/63/37 49/74/37 33/61/37
f 49/74/38 50/72/38 33/61/38
f 33/61/39 50/72/39 35/66/39
f 49/74/40 34/63/40 48/56/40
f 47/52/41 46/48/41 56/75/41
f 56/75/42 48/56/42 47/52/42
f 56/75/43 49/74/43 48/56/43
f 43/68/44 54/76/44 44/71/44
f 54/76/45 55/77/45 44/71/45
f 44/71/46 55/77/46 45/44/46
f 55/77/47 46/48/47 45/44/47
f 55/77/48 56/75/48 46/48/48
f 41/58/49 53/78/49 42/64/49
f 53/78/50 54/76/50 42/64/50
f 42/64/51 54/76/51 43/68/51
f 39/50/52 52/79/52 40/55/52
f 52/79/53 53/78/53 40/55/53
f 40/55/54 53/78/54 41/58/54
f 37/2/55 51/73/55 38/46/55
f 51/73/56 52/79/56 38/46/56
f 38/46/57 52/79/57 39/50/57
f 53/80/58 60/81/58 61/82/58
f 50/83/59 57/84/59 58/85/59
f 55/86/60 64/87/60 56/88/60
f 53/89/61 62/90/61 54/91/61
f 52/92/62 59/93/62 60/81/62
f 51/94/63 58/85/63 59/95/63
f 56/88/64 57/96/64 49/97/64
f 54/91/65 63/98/65 55/86/65
f 63/99/66 70/100/66 71/101/66
f 61/102/67 68/103/67 69/104/67
f 57/105/68 66/106/68 58/107/68
f 63/99/69 72/108/69 64/109/69
f 61/102/70 70/100/70 62/110/70
f 59/111/71 68/103/71 60/112/71
f 59/111/72 66/106/72 67/113/72
f 57/105/73 72/108/73 65/114/73
f 4/1/1 36/70/1 37/2/1
f 17/6/2 18/115/2 19/116/2
f 19/116/2 20/117/2 21/118/2
f 21/118/2 22/119/2 23/120/2
f 23/120/2 24/121/2 25/4/2
f 25/4/2 26/122/2 27/123/2
f 27/123/2 28/124/2 29/5/2
f 29/5/2 30/125/2 31/126/2
f 31/126/2 32/127/2 17/6/2
f 17/6/2 19/116/2 21/118/2
f 21/118/2 23/120/2 25/4/2
f 25/4/2 27/123/2 29/5/2
f 29/5/2 31/126/2 17/6/2
f 17/6/2 21/118/2 25/4/2
f 7/7/3 23/14/3 22/8/3
f 15/10/4 31/16/4 30/11/4
f 8/13/5 24/128/5 23/14/5
f 16/15/6 32/129/6 31/16/6
f 9/17/7 25/26/7 24/18/7
f 2/20/8 18/28/8 17/21/8
f 1/22/9 17/21/9 32/23/9
f 10/25/10 26/30/10 25/26/10
f 3/27/11 19/32/11 18/28/11
f 11/29/12 27/34/12 26/30/12
f 4/31/13 20/130/13 19/32/13
f 12/33/14 28/131/14 27/34/14
f 5/35/15 21/41/15 20/36/15
f 13/38/16 29/42/16 28/39/16
f 6/9/17 22/8/17 21/41/17
f 14/12/18 30/11/18 29/42/18
f 12/43/19 44/71/19 45/44/19
f 5/3/20 37/2/20 38/46/20
f 13/45/21 45/44/21 46/48/21
f 6/47/22 38/46/22 39/50/22
f 14/49/23 46/48/23 47/52/23
f 8/54/24 7/51/24 39/50/24
f 15/53/25 47/52/25 48/56/25
f 8/54/26 40/55/26 41/58/26
f 1/60/27 34/63/27 33/61/27
f 1/60/28 16/57/28 48/56/28
f 9/59/29 41/58/29 42/64/29
f 2/62/30 33/61/30 35/66/30
f 10/65/31 42/64/31 43/68/31
f 3/67/32 35/66/32 36/70/32
f 11/69/33 43/68/33 44/71/33
f 53/80/58 52/92/58 60/81/58
f 50/83/59 49/132/59 57/84/59
f 55/86/60 63/98/60 64/87/60
f 53/89/61 61/133/61 62/90/61
f 52/92/62 51/134/62 59/93/62
f 51/94/63 50/83/63 58/85/63
f 56/88/64 64/87/64 57/96/64
f 54/91/65 62/90/65 63/98/65
f 63/99/66 62/110/66 70/100/66
f 61/102/67 60/112/67 68/103/67
f 57/105/68 65/114/68 66/106/68
f 63/99/69 71/101/69 72/108/69
f 61/102/70 69/104/70 70/100/70
f 59/111/71 67/113/71 68/103/71
f 59/111/72 58/107/72 66/106/72
f 57/105/73 64/109/73 72/108/73
