# Blender 4.3.2
# www.blender.org
mtllib table-glasses-2.mtl
o table-glasses-2
v -0.105162 0.750000 -0.310356
v -0.090138 0.750000 -0.336346
v -0.112903 0.750000 -0.339351
v -0.131134 0.750000 -0.325370
v -0.134151 0.750000 -0.302595
v -0.120186 0.750000 -0.284366
v -0.097420 0.750000 -0.281362
v -0.079189 0.750000 -0.295342
v -0.076173 0.750000 -0.318118
v -0.081400 0.848792 -0.351461
v -0.117425 0.848792 -0.356224
v -0.146266 0.848792 -0.334118
v -0.151029 0.848792 -0.298093
v -0.128923 0.848792 -0.269252
v -0.092898 0.848792 -0.264489
v -0.064057 0.848792 -0.286595
v -0.059294 0.848792 -0.322620
v -0.079462 0.750000 -0.425234
v -0.053352 0.750000 -0.440049
v -0.071469 0.750000 -0.454160
v -0.094267 0.750000 -0.451326
v -0.108393 0.750000 -0.433208
v -0.105571 0.750000 -0.410418
v -0.087455 0.750000 -0.396308
v -0.064656 0.750000 -0.399142
v -0.050530 0.750000 -0.417260
v -0.038168 0.848792 -0.448665
v -0.066831 0.848792 -0.471001
v -0.102893 0.848792 -0.466528
v -0.125229 0.848792 -0.437864
v -0.120756 0.848792 -0.401802
v -0.092092 0.848792 -0.379466
v -0.056030 0.848792 -0.383940
v -0.033694 0.848792 -0.412603
v -0.300276 0.750000 -0.206676
v -0.271041 0.750000 -0.199855
v -0.274784 0.750000 -0.222511
v -0.293460 0.750000 -0.235891
v -0.316129 0.750000 -0.232157
v -0.329511 0.750000 -0.213497
v -0.325768 0.750000 -0.190841
v -0.307092 0.750000 -0.177461
v -0.284424 0.750000 -0.181195
v -0.254039 0.848792 -0.195889
v -0.259954 0.848792 -0.231743
v -0.289489 0.848792 -0.252913
v -0.325343 0.848792 -0.246998
v -0.346513 0.848792 -0.217463
v -0.340598 0.848792 -0.181609
v -0.311064 0.848792 -0.160439
v -0.275210 0.848792 -0.166354
v -0.253218 0.750000 -0.355950
v -0.223342 0.750000 -0.358887
v -0.234168 0.750000 -0.379138
v -0.256153 0.750000 -0.385806
v -0.276419 0.750000 -0.374984
v -0.283094 0.750000 -0.353012
v -0.272268 0.750000 -0.332761
v -0.250283 0.750000 -0.326093
v -0.230017 0.750000 -0.336915
v -0.205967 0.848792 -0.360595
v -0.223091 0.848792 -0.392646
v -0.257863 0.848792 -0.403200
v -0.289914 0.848792 -0.386076
v -0.300469 0.848792 -0.351304
v -0.283344 0.848792 -0.319253
v -0.248572 0.848792 -0.308699
v -0.216522 0.848792 -0.325823
vn -0.0000 -1.0000 -0.0000
vn 0.7834 -0.1612 -0.6003
vn 0.9784 -0.1613 0.1294
vn 0.6004 -0.1613 0.7832
vn 0.1293 -0.1612 -0.9784
vn -0.1293 -0.1612 0.9784
vn -0.7834 -0.1612 0.6003
vn -0.9784 -0.1613 -0.1294
vn -0.6004 -0.1613 -0.7832
vn 0.9794 -0.1612 -0.1214
vn 0.7784 -0.1613 0.6067
vn 0.1216 -0.1613 0.9794
vn 0.6066 -0.1612 -0.7785
vn -0.6066 -0.1612 0.7785
vn -0.9794 -0.1612 0.1214
vn -0.7784 -0.1613 -0.6067
vn -0.1216 -0.1613 -0.9794
vn 0.8021 -0.1612 0.5750
vn 0.1605 -0.1613 0.9738
vn -0.5749 -0.1613 0.8022
vn 0.9738 -0.1612 -0.1607
vn -0.9738 -0.1612 0.1607
vn -0.8021 -0.1612 -0.5750
vn -0.1605 -0.1613 -0.9738
vn 0.5749 -0.1613 -0.8022
vn 0.9444 -0.1612 0.2867
vn 0.4650 -0.1613 0.8705
vn -0.2866 -0.1613 0.9444
vn 0.8704 -0.1612 -0.4652
vn -0.8704 -0.1612 0.4652
vn -0.9444 -0.1612 -0.2867
vn -0.4650 -0.1613 -0.8705
vn 0.2866 -0.1613 -0.9444
vt 0.500000 0.500000
vt 0.146447 0.853553
vt 0.500000 1.000000
vt 0.000000 0.500000
vt 0.146447 0.146447
vt 0.500000 0.000000
vt 0.853553 0.146447
vt 1.000000 0.500000
vt 0.853553 0.853553
s 0
f 1/1/1 3/2/1 2/3/1
f 1/1/1 4/4/1 3/2/1
f 1/1/1 5/5/1 4/4/1
f 1/1/1 6/6/1 5/5/1
f 1/1/1 7/7/1 6/6/1
f 1/1/1 8/8/1 7/7/1
f 1/1/1 9/9/1 8/8/1
f 1/1/1 2/3/1 9/9/1
f 9/9/2 2/3/2 10/3/2 17/9/2
f 8/8/3 9/9/3 17/9/3 16/8/3
f 7/7/4 8/8/4 16/8/4 15/7/4
f 2/3/5 3/2/5 11/2/5 10/3/5
f 6/6/6 7/7/6 15/7/6 14/6/6
f 5/5/7 6/6/7 14/6/7 13/5/7
f 4/4/8 5/5/8 13/5/8 12/4/8
f 3/2/9 4/4/9 12/4/9 11/2/9
f 18/1/1 20/2/1 19/3/1
f 18/1/1 21/4/1 20/2/1
f 18/1/1 22/5/1 21/4/1
f 18/1/1 23/6/1 22/5/1
f 18/1/1 24/7/1 23/6/1
f 18/1/1 25/8/1 24/7/1
f 18/1/1 26/9/1 25/8/1
f 18/1/1 19/3/1 26/9/1
f 26/9/10 19/3/10 27/3/10 34/9/10
f 25/8/11 26/9/11 34/9/11 33/8/11
f 24/7/12 25/8/12 33/8/12 32/7/12
f 19/3/13 20/2/13 28/2/13 27/3/13
f 23/6/14 24/7/14 32/7/14 31/6/14
f 22/5/15 23/6/15 31/6/15 30/5/15
f 21/4/16 22/5/16 30/5/16 29/4/16
f 20/2/17 21/4/17 29/4/17 28/2/17
f 35/1/1 37/2/1 36/3/1
f 35/1/1 38/4/1 37/2/1
f 35/1/1 39/5/1 38/4/1
f 35/1/1 40/6/1 39/5/1
f 35/1/1 41/7/1 40/6/1
f 35/1/1 42/8/1 41/7/1
f 35/1/1 43/9/1 42/8/1
f 35/1/1 36/3/1 43/9/1
f 43/9/18 36/3/18 44/3/18 51/9/18
f 42/8/19 43/9/19 51/9/19 50/8/19
f 41/7/20 42/8/20 50/8/20 49/7/20
f 36/3/21 37/2/21 45/2/21 44/3/21
f 40/6/22 41/7/22 49/7/22 48/6/22
f 39/5/23 40/6/23 48/6/23 47/5/23
f 38/4/24 39/5/24 47/5/24 46/4/24
f 37/2/25 38/4/25 46/4/25 45/2/25
f 52/1/1 54/2/1 53/3/1
f 52/1/1 55/4/1 54/2/1
f 52/1/1 56/5/1 55/4/1
f 52/1/1 57/6/1 56/5/1
f 52/1/1 58/7/1 57/6/1
f 52/1/1 59/8/1 58/7/1
f 52/1/1 60/9/1 59/8/1
f 52/1/1 53/3/1 60/9/1
f 60/9/26 53/3/26 61/3/26 68/9/26
f 59/8/27 60/9/27 68/9/27 67/8/27
f 58/7/28 59/8/28 67/8/28 66/7/28
f 53/3/29 54/2/29 62/2/29 61/3/29
f 57/6/30 58/7/30 66/7/30 65/6/30
f 56/5/31 57/6/31 65/6/31 64/5/31
f 55/4/32 56/5/32 64/5/32 63/4/32
f 54/2/33 55/4/33 63/4/33 62/2/33
